<svg xmlns="http://www.w3.org/2000/svg" viewBox="0 0 181.8 24.57"><defs><style>.cls-1{fill:#005afb;}.cls-2{fill:none;}</style></defs><title>computer</title><g id="Layer_2" data-name="Layer 2"><g id="computer"><g id="part_1"><path class="cls-1" d="M7.71,9.61C7,8.38,6.48,7.38,6.05,6.62L5.3,5.22,2,4.85c.28.51.59,1.07.91,1.67.64,1.17,1.21,2.26,1.73,3.26.23.45.44.86.6,1.23a2.27,2.27,0,0,1,.26.76v4.47a1.73,1.73,0,0,1-.18.83,1.16,1.16,0,0,1-.64.53,3.65,3.65,0,0,1-1,.19l-1.09.1v.92H11.2v-.92a6.84,6.84,0,0,1-1.13-.16,7.4,7.4,0,0,1-1-.26,1.26,1.26,0,0,1-.64-.55,1.62,1.62,0,0,1-.19-.81V12.6a5.06,5.06,0,0,1,.16-1.47,6.8,6.8,0,0,1,.63-1.34c.86-1.5,1.57-2.74,2.14-3.72a1.63,1.63,0,0,0,.11-.17l-1.24-.14Z"/><path class="cls-1" d="M25.09,8.42a6.42,6.42,0,0,1,.59,1.84,11.5,11.5,0,0,1,.19,2.05,8.38,8.38,0,0,1-.94,4.33,2.9,2.9,0,0,1-2.58,1.57,2.73,2.73,0,0,1-1.65-.47,3.68,3.68,0,0,1-1.12-1.3,6.79,6.79,0,0,1-.64-1.89,12.71,12.71,0,0,1-.2-2.3,12.17,12.17,0,0,1,.17-2,6.11,6.11,0,0,1,.58-1.81,3.61,3.61,0,0,1,1.15-1.34A3.36,3.36,0,0,1,21,7l-2.23-.25a6.14,6.14,0,0,0-.94.83,7,7,0,0,0-1.75,4.91,7.64,7.64,0,0,0,.5,2.81A6.47,6.47,0,0,0,17.9,17.4a6,6,0,0,0,2,1.34,5.89,5.89,0,0,0,2.32.46,6.63,6.63,0,0,0,2.65-.51,5.62,5.62,0,0,0,2.08-1.54,6.22,6.22,0,0,0,1.22-2.21,8.37,8.37,0,0,0,.43-2.66A6.66,6.66,0,0,0,27,7.66l-2.72-.31A3.47,3.47,0,0,1,25.09,8.42Z"/><path class="cls-1" d="M39.72,15.84a3.59,3.59,0,0,1-.41.56,4.3,4.3,0,0,1-.62.58,3.71,3.71,0,0,1-.93.52,3.38,3.38,0,0,1-1.27.22A1.94,1.94,0,0,1,35,17a3.09,3.09,0,0,1-.62-2.09V8.49L31.82,8.2a1.53,1.53,0,0,1,.11.49v6.12A5.08,5.08,0,0,0,32.82,18a3.1,3.1,0,0,0,2.58,1.1A5.09,5.09,0,0,0,36.94,19a5.19,5.19,0,0,0,1.13-.53,4.41,4.41,0,0,0,.89-.67c.26-.24.5-.48.7-.69h.08v1.62l.2.18,4.17-.28v-.86c-.26,0-.49,0-.71-.06a1.38,1.38,0,0,1-.56-.19,1.58,1.58,0,0,1-.5-.53,1.44,1.44,0,0,1-.18-.75V9.37l-2.44-.28Z"/><path class="cls-1" d="M47.56,16.63a1.43,1.43,0,0,1-.17.76,1,1,0,0,1-.54.41,2.08,2.08,0,0,1-.55.1l-.62.05v.86h6.75V18a8.63,8.63,0,0,1-.89-.09,3.27,3.27,0,0,1-.84-.19,1.1,1.1,0,0,1-.55-.43A1.47,1.47,0,0,1,50,16.5V10.25L47.56,10Z"/><path class="cls-1" d="M63.74,13.75a9,9,0,0,0,1.84,3,8,8,0,0,0,2.68,1.87,7.81,7.81,0,0,0,3.16.65,8,8,0,0,0,4.38-1.17,8.06,8.06,0,0,0,3-3.91l-1-.47a7.56,7.56,0,0,1-.8,1.58,6.77,6.77,0,0,1-1.14,1.3,5.44,5.44,0,0,1-1.53.87,5.29,5.29,0,0,1-1.93.34,5.14,5.14,0,0,1-2.54-.63,6.15,6.15,0,0,1-2-1.72,8.53,8.53,0,0,1-1.28-2.6c-.07-.23-.11-.49-.16-.74l-3.23-.36A10.39,10.39,0,0,0,63.74,13.75Z"/><path class="cls-1" d="M88.88,16.64a2.88,2.88,0,0,1-2.57,1.57,2.78,2.78,0,0,1-1.66-.47,3.65,3.65,0,0,1-1.11-1.3,6.79,6.79,0,0,1-.64-1.89c0-.2-.06-.41-.09-.61l-2.7-.3a7.16,7.16,0,0,0,.4,1.64,6.45,6.45,0,0,0,1.34,2.12,6.17,6.17,0,0,0,2,1.34,6,6,0,0,0,2.33.46,6.63,6.63,0,0,0,2.65-.51,5.62,5.62,0,0,0,2.08-1.54A6.32,6.32,0,0,0,92.07,15L89.6,14.7A5.93,5.93,0,0,1,88.88,16.64Z"/><path class="cls-1" d="M96.23,16.63a1.43,1.43,0,0,1-.18.76,1,1,0,0,1-.54.41,2.08,2.08,0,0,1-.55.1l-.61.05v.86h6.21V18a3.09,3.09,0,0,1-.64-.09,2.24,2.24,0,0,1-.55-.19,1.1,1.1,0,0,1-.55-.46,1.36,1.36,0,0,1-.18-.73v-.76l-2.41-.27Z"/><path class="cls-1" d="M104.05,16.63a1.43,1.43,0,0,1-.18.76.93.93,0,0,1-.53.41,2.09,2.09,0,0,1-.52.1l-.57.05v.86h6.09V18a3.14,3.14,0,0,1-.63-.08,5.31,5.31,0,0,1-.53-.17,1.07,1.07,0,0,1-.54-.45,1.55,1.55,0,0,1-.13-.64l-2.46-.28Z"/><path class="cls-1" d="M119.41,22.3a1.71,1.71,0,0,1-.16.77.88.88,0,0,1-.54.45,4.11,4.11,0,0,1-.68.13c-.25,0-.51.05-.77.06v.86h7.14v-.86a5.69,5.69,0,0,1-1-.12,5.06,5.06,0,0,1-.89-.23,1,1,0,0,1-.56-.45,1.55,1.55,0,0,1-.18-.78v-3.8l-2.41-.27Z"/><path class="cls-1" d="M123.13,18.89a6,6,0,0,0,1.9.26,5.26,5.26,0,0,0,1.63-.28l-4.61-.52A4.53,4.53,0,0,0,123.13,18.89Z"/><path class="cls-1" d="M111.7,17.39a1,1,0,0,1-.54.41,2.16,2.16,0,0,1-.54.1L110,18v.86h6.22V18a4,4,0,0,1-.65-.08,4.36,4.36,0,0,1-.59-.17,1.48,1.48,0,0,1-.28-.17l-3-.34C111.72,17.25,111.73,17.34,111.7,17.39Z"/></g><g id="part_2"><path class="cls-2" d="M129.26,8.8a3.54,3.54,0,0,0-1.15-1.22,3,3,0,0,0-1.71-.47,3.05,3.05,0,0,0-1.64.42,5,5,0,0,0-1.17,1V16.1a3.08,3.08,0,0,0,.39.73,3,3,0,0,0,.59.64,3.22,3.22,0,0,0,.87.53,3,3,0,0,0,1.14.2,2.86,2.86,0,0,0,1.4-.38,3.42,3.42,0,0,0,1.13-1.08,5.92,5.92,0,0,0,.76-1.87,10.23,10.23,0,0,0,.25-2.38,9.55,9.55,0,0,0-.21-2A5.46,5.46,0,0,0,129.26,8.8Z"/><path class="cls-2" d="M113.64,10A3.13,3.13,0,0,0,113,8a1.94,1.94,0,0,0-1.54-.74,3.58,3.58,0,0,0-1.19.2,3.75,3.75,0,0,0-1,.54,3.37,3.37,0,0,0-.63.62,5.65,5.65,0,0,0-.38.55V16.5s0,.07,0,.11l5.23.58a1.32,1.32,0,0,0,.13-.56Z"/><path class="cls-2" d="M89.83,12.31a11.5,11.5,0,0,0-.19-2.05,6.42,6.42,0,0,0-.59-1.84A3.55,3.55,0,0,0,88,7.13a2.71,2.71,0,0,0-1.65-.49,2.9,2.9,0,0,0-1.71.5,3.52,3.52,0,0,0-1.15,1.34,6.11,6.11,0,0,0-.59,1.81,12.13,12.13,0,0,0-.16,2,13,13,0,0,0,.11,1.69l6.79.76A11.47,11.47,0,0,0,89.83,12.31Z"/><path class="cls-1" d="M121.82,18.28v0l.23,0a.47.47,0,0,1-.12-.07Z"/><path class="cls-2" d="M105.2,8a1.93,1.93,0,0,0-1.54-.74,3.58,3.58,0,0,0-1.19.2,3.8,3.8,0,0,0-1,.56,3,3,0,0,0-.64.64l-.39.54v6.57l5.41.61V10A3.13,3.13,0,0,0,105.2,8Z"/><path class="cls-2" d="M35,17a1.94,1.94,0,0,0,1.5.7,3.38,3.38,0,0,0,1.27-.22,3.71,3.71,0,0,0,.93-.52,4.3,4.3,0,0,0,.62-.58,3.59,3.59,0,0,0,.41-.56V9.09l-5.35-.6v6.44A3.09,3.09,0,0,0,35,17Z"/><path class="cls-1" d="M24,7.13a2.71,2.71,0,0,0-1.65-.49A3,3,0,0,0,21,7l3.27.37A2.5,2.5,0,0,0,24,7.13Z"/><path class="cls-2" d="M83.54,16.44a3.65,3.65,0,0,0,1.11,1.3,2.78,2.78,0,0,0,1.66.47,2.88,2.88,0,0,0,2.57-1.57,5.93,5.93,0,0,0,.72-1.94l-6.79-.76c0,.2,0,.41.09.61A6.79,6.79,0,0,0,83.54,16.44Z"/><path class="cls-2" d="M21.26,8.48a6.11,6.11,0,0,0-.58,1.81,12.17,12.17,0,0,0-.17,2,12.71,12.71,0,0,0,.2,2.3,6.8,6.8,0,0,0,.65,1.89,3.56,3.56,0,0,0,1.11,1.3,2.73,2.73,0,0,0,1.65.47,2.9,2.9,0,0,0,2.58-1.57,8.38,8.38,0,0,0,.95-4.33,11.55,11.55,0,0,0-.2-2.05,6.43,6.43,0,0,0-.58-1.84A3.65,3.65,0,0,0,26,7.35L22.74,7a3.36,3.36,0,0,0-.33.16A3.61,3.61,0,0,0,21.26,8.48Z"/><path class="cls-2" d="M167.54,9.37a4.71,4.71,0,0,0-.4-1.38,2.65,2.65,0,0,0-.81-1A2.26,2.26,0,0,0,165,6.64a2.78,2.78,0,0,0-2.26,1.13,5.23,5.23,0,0,0-1,3.15h5.91A10.83,10.83,0,0,0,167.54,9.37Z"/><path class="cls-2" d="M7.71,9.61l2.36-3.85L5.3,5.22l.75,1.4C6.48,7.38,7,8.38,7.71,9.61Z"/><path class="cls-1" d="M6.58,4.32c-.14-.27-.28-.55-.44-.84l-.4-.77c-.09-.2-.17-.37-.22-.5a.9.9,0,0,1-.08-.27c0-.19.18-.33.55-.44a8.66,8.66,0,0,1,1.87-.18V.4H0v.92a5.38,5.38,0,0,1,.79.13,2.61,2.61,0,0,1,.74.3,3.72,3.72,0,0,1,.76.66,7.82,7.82,0,0,1,.76,1.12l.73,1.32,3.29.37Z"/><path class="cls-1" d="M15.54,2.3a3.78,3.78,0,0,1,.69-.48,2.5,2.5,0,0,1,.69-.32,3.08,3.08,0,0,1,.7-.18V.4h-6.4v.92l.81.07a4,4,0,0,1,.82.14,1.71,1.71,0,0,1,.59.28.62.62,0,0,1,.22.48,8.14,8.14,0,0,1-1.07,2.2l-.75,1.27,1.25.14c.54-.92,1.12-1.83,1.75-2.72A7.69,7.69,0,0,1,15.54,2.3Z"/><path class="cls-1" d="M24.15,5.66a6.09,6.09,0,0,0-3.64,1.07L22.74,7a3,3,0,0,1,1.38-.34,2.71,2.71,0,0,1,1.65.49,2.5,2.5,0,0,1,.24.22l2.72.31a1.39,1.39,0,0,0-.15-.19A5.87,5.87,0,0,0,24.15,5.66Z"/><path class="cls-1" d="M36.14,6.05,36,5.86l-4.27.32V7a5.51,5.51,0,0,1,.74.1,1.52,1.52,0,0,1,.59.22,1.62,1.62,0,0,1,.52.56,1.36,1.36,0,0,1,.06.29l2.55.29Z"/><path class="cls-1" d="M43.73,5.86l-4.66.32V7l1,.06a1.38,1.38,0,0,1,.69.19,1.7,1.7,0,0,1,.51.56,1.55,1.55,0,0,1,.18.76v.49l2.44.28V6.05Z"/><path class="cls-1" d="M53.14,7.65a2.94,2.94,0,0,1,1.42-.49c0,.16-.05.31-.08.47a2.7,2.7,0,0,0,0,.52,1.14,1.14,0,0,0,.39.83,1.5,1.5,0,0,0,1.11.37,1.11,1.11,0,0,0,1-.51,2.18,2.18,0,0,0,.32-1.17,2,2,0,0,0-.51-1.43,1.75,1.75,0,0,0-1.33-.53,3.83,3.83,0,0,0-1.81.54,6.07,6.07,0,0,0-1.79,1.6h-.06V6.05l-.18-.19-4.26.29V7A5.39,5.39,0,0,1,48,7.1a1.9,1.9,0,0,1,.58.23,1.53,1.53,0,0,1,.53.62,1.87,1.87,0,0,1,.19.79V10l2.41.28V9.06A4.17,4.17,0,0,1,53.14,7.65Z"/><path class="cls-1" d="M68.35,6a8.24,8.24,0,0,1,1.18-2.67,5.25,5.25,0,0,1,1.88-1.65,5,5,0,0,1,2.33-.56,3.83,3.83,0,0,1,2,.5A5,5,0,0,1,77.18,3a8.43,8.43,0,0,1,1,1.9A15.37,15.37,0,0,1,78.77,7h1.07L79.72.4h-1l-.53.88a9.38,9.38,0,0,0-2.1-.94A8.27,8.27,0,0,0,73.59,0a8.47,8.47,0,0,0-3.44.7,8.11,8.11,0,0,0-2.78,2A9.23,9.23,0,0,0,65.5,5.78a11.36,11.36,0,0,0-.67,4,12.22,12.22,0,0,0,.16,2l3.22.36a11.57,11.57,0,0,1-.28-2.49A14.53,14.53,0,0,1,68.35,6Z"/><path class="cls-1" d="M94.29,12.28a6.6,6.6,0,0,0-1.75-4.81,6.4,6.4,0,0,0-9,.09,7,7,0,0,0-1.75,4.91,8.78,8.78,0,0,0,.1,1.17l2.71.3a11.39,11.39,0,0,1-.12-1.69,11.13,11.13,0,0,1,.17-2,5.83,5.83,0,0,1,.58-1.81,3.52,3.52,0,0,1,1.15-1.34,2.9,2.9,0,0,1,1.71-.5,2.71,2.71,0,0,1,1.65.49,3.55,3.55,0,0,1,1.09,1.29,6.42,6.42,0,0,1,.59,1.84,11.5,11.5,0,0,1,.19,2.05,12.24,12.24,0,0,1-.22,2.39l2.46.28s0,0,0,0A8.66,8.66,0,0,0,94.29,12.28Z"/><path class="cls-1" d="M131.22,7.54a5.15,5.15,0,0,0-1.71-1.36,4.7,4.7,0,0,0-2.18-.51,4.25,4.25,0,0,0-2,.52,5.69,5.69,0,0,0-1.67,1.29l-.1,0V6l-.18-.16L119,6.15V7a4.65,4.65,0,0,1,.8.11,1.81,1.81,0,0,1,.65.23,1.72,1.72,0,0,1,.51.59,1.55,1.55,0,0,1,.19.75v9.37l2.41.27v0h.11a.47.47,0,0,0,.12.07l4.61.52a4.48,4.48,0,0,0,.62-.2A6.28,6.28,0,0,0,131,17.29a6.75,6.75,0,0,0,1.33-2.13,7.3,7.3,0,0,0,.51-2.77,8.36,8.36,0,0,0-.42-2.75A6.66,6.66,0,0,0,131.22,7.54Zm-1.35,7.33a5.92,5.92,0,0,1-.76,1.87A3.42,3.42,0,0,1,128,17.82a2.86,2.86,0,0,1-1.4.38,3,3,0,0,1-1.14-.2,3.22,3.22,0,0,1-.87-.53,3,3,0,0,1-.59-.64,3.08,3.08,0,0,1-.39-.73V8.54a5,5,0,0,1,1.17-1,3.05,3.05,0,0,1,1.64-.42,3,3,0,0,1,1.71.47,3.54,3.54,0,0,1,1.15,1.22,5.46,5.46,0,0,1,.65,1.73,9.55,9.55,0,0,1,.21,2A10.23,10.23,0,0,1,129.87,14.87Z"/><path class="cls-1" d="M147.15,17.47a1.58,1.58,0,0,1-.5-.53,1.35,1.35,0,0,1-.19-.75V6.05l-.19-.19-4.66.32V7l1,.06a1.39,1.39,0,0,1,.7.19,1.67,1.67,0,0,1,.5.56,1.56,1.56,0,0,1,.19.76v7.24a3.59,3.59,0,0,1-.41.56A4.3,4.3,0,0,1,143,17a3.71,3.71,0,0,1-.93.52,3.42,3.42,0,0,1-1.27.22,1.94,1.94,0,0,1-1.5-.7,3.09,3.09,0,0,1-.62-2.09V6.05l-.19-.19-4.27.32V7a5.51,5.51,0,0,1,.74.1,1.58,1.58,0,0,1,.59.22,1.62,1.62,0,0,1,.52.56,1.67,1.67,0,0,1,.17.78v6.12a5.08,5.08,0,0,0,.89,3.22,3.1,3.1,0,0,0,2.58,1.1,5.09,5.09,0,0,0,1.54-.18,5.19,5.19,0,0,0,1.13-.53,4.41,4.41,0,0,0,.89-.67c.26-.24.5-.48.7-.69h.08v1.62l.2.18,4.17-.28v-.86c-.26,0-.49,0-.71-.06A1.38,1.38,0,0,1,147.15,17.47Z"/><path class="cls-1" d="M156.05,17.51a2.61,2.61,0,0,1-1.11-.19,1.35,1.35,0,0,1-.63-.57,2.66,2.66,0,0,1-.28-.94c0-.36-.05-.81-.05-1.35V7.32h3.64V6.07H154v-4h-2.36v4h-2.36V7.32h2.31V16a3.53,3.53,0,0,0,.65,2.29,2.77,2.77,0,0,0,2.27.81,6.13,6.13,0,0,0,1.84-.24c.5-.16,1-.35,1.59-.59v-.94a3.79,3.79,0,0,1-.88.14C156.58,17.49,156.27,17.51,156.05,17.51Z"/><path class="cls-1" d="M168,17.19a3.63,3.63,0,0,1-2,.54,4.06,4.06,0,0,1-1.94-.43,3.53,3.53,0,0,1-1.32-1.19A5.37,5.37,0,0,1,162,14.3a10.06,10.06,0,0,1-.24-2.29h8.47v-.85A7.64,7.64,0,0,0,169.93,9,4.93,4.93,0,0,0,169,7.3a4.3,4.3,0,0,0-1.62-1.2,5.85,5.85,0,0,0-2.4-.44,5.24,5.24,0,0,0-2.46.56,5.6,5.6,0,0,0-1.84,1.49,6.83,6.83,0,0,0-1.16,2.16,7.84,7.84,0,0,0-.4,2.44,9,9,0,0,0,.38,2.63,6.09,6.09,0,0,0,1.12,2.18,5.21,5.21,0,0,0,1.91,1.48,6.22,6.22,0,0,0,2.71.55,5.41,5.41,0,0,0,3.1-.91,6.61,6.61,0,0,0,2.15-2.44l-.91-.56A5.42,5.42,0,0,1,168,17.19Zm-5.28-9.42A2.78,2.78,0,0,1,165,6.64a2.26,2.26,0,0,1,1.34.38,2.65,2.65,0,0,1,.81,1,4.71,4.71,0,0,1,.4,1.38,10.83,10.83,0,0,1,.12,1.55h-5.91A5.23,5.23,0,0,1,162.73,7.77Z"/><path class="cls-1" d="M181.29,6.24A1.73,1.73,0,0,0,180,5.71a3.79,3.79,0,0,0-1.8.54,5.83,5.83,0,0,0-1.79,1.6h-.07V6.05l-.18-.19-4.25.29V7a5.24,5.24,0,0,1,.72.09,2,2,0,0,1,.59.23,1.51,1.51,0,0,1,.52.62,1.73,1.73,0,0,1,.19.79v7.89a1.43,1.43,0,0,1-.18.76.93.93,0,0,1-.53.41,2.16,2.16,0,0,1-.56.1L172,18v.86h6.74V18a8.91,8.91,0,0,1-.89-.09,3.09,3.09,0,0,1-.83-.19,1.06,1.06,0,0,1-.55-.43,1.37,1.37,0,0,1-.18-.74V9.06a4.26,4.26,0,0,1,1.39-1.41,3,3,0,0,1,1.43-.49l-.09.47a2.75,2.75,0,0,0,0,.52,1.13,1.13,0,0,0,.38.83,1.52,1.52,0,0,0,1.11.37,1.11,1.11,0,0,0,1-.51,2.18,2.18,0,0,0,.32-1.17A2,2,0,0,0,181.29,6.24Z"/><path class="cls-1" d="M116.24,17.25a1.54,1.54,0,0,1-.16-.75V10a4.82,4.82,0,0,0-.94-3.27,3.26,3.26,0,0,0-2.57-1.06,4.9,4.9,0,0,0-1.48.21,4.14,4.14,0,0,0-1.16.54,7.76,7.76,0,0,0-.94.73l-.82.8a3.76,3.76,0,0,0-1.29-1.61,3.44,3.44,0,0,0-2.14-.67,5,5,0,0,0-1.47.21,4.09,4.09,0,0,0-1.13.51,8.23,8.23,0,0,0-.87.72l-.79.76h-.1V6.05l-.18-.19-4.28.29V7a3.09,3.09,0,0,1,.75.12,2,2,0,0,1,.61.25,1.76,1.76,0,0,1,.53.56,1.55,1.55,0,0,1,.19.75v6.76l2.41.27V9.15l.39-.54a3,3,0,0,1,.64-.64,3.8,3.8,0,0,1,1-.56,3.58,3.58,0,0,1,1.19-.2A1.93,1.93,0,0,1,105.2,8a3.13,3.13,0,0,1,.62,2.08v6.3l2.46.28s0-.07,0-.11V9.12a5.65,5.65,0,0,1,.38-.55,3.37,3.37,0,0,1,.63-.62,3.75,3.75,0,0,1,1-.54,3.58,3.58,0,0,1,1.19-.2A1.94,1.94,0,0,1,113,8a3.13,3.13,0,0,1,.61,2.08v6.6a1.32,1.32,0,0,1-.13.56l3,.34A.83.83,0,0,1,116.24,17.25Z"/></g></g></g></svg>
