<svg xmlns="http://www.w3.org/2000/svg" viewBox="0 0 263.41 86.66"><defs><style>.cls-1{fill:#005afb;}.cls-2{fill:none;}</style></defs><title>did_you_look_mob</title><g id="Layer_2" data-name="Layer 2"><g id="did_you_look_nob"><g id="part_1"><path class="cls-1" d="M37.23,5.47a2.42,2.42,0,0,0,1.88-.86,3,3,0,0,0,.76-2A2.56,2.56,0,0,0,39.13.78,2.52,2.52,0,0,0,37.23,0a2.36,2.36,0,0,0-1.79.83,2.79,2.79,0,0,0-.76,1.95,2.67,2.67,0,0,0,.76,1.87A2.35,2.35,0,0,0,37.23,5.47Z"/><path class="cls-2" d="M184.64,22.68a18.36,18.36,0,0,0-.3-3.21,10.2,10.2,0,0,0-.91-2.87,5.75,5.75,0,0,0-1.71-2,4.33,4.33,0,0,0-2.58-.76,4.59,4.59,0,0,0-2.67.77,5.72,5.72,0,0,0-1.79,2.11,9.17,9.17,0,0,0-.92,2.82,19.16,19.16,0,0,0-.26,3.06c0,.16,0,.31,0,.47l11.11,0C184.63,22.9,184.64,22.8,184.64,22.68Z"/><path class="cls-2" d="M161.09,62.1a5.1,5.1,0,0,0-.52-1.14,5.27,5.27,0,0,0-.91-1.11,5,5,0,0,0-1.38-.84,4.54,4.54,0,0,0-1.84-.34,4.15,4.15,0,0,0-2.23.63,6,6,0,0,0-1.81,1.8A9.31,9.31,0,0,0,151.21,64a15.87,15.87,0,0,0-.4,3.36l10.28,0Z"/><path class="cls-2" d="M58.13,64.73a8.53,8.53,0,0,0-1-2.71,5.61,5.61,0,0,0-1.81-1.91,4.8,4.8,0,0,0-2.67-.73,5.27,5.27,0,0,0-2.48.56,6.71,6.71,0,0,0-1.92,1.51v6.2l10.21,0A14.53,14.53,0,0,0,58.13,64.73Z"/><path class="cls-2" d="M59.42,17.27A5.21,5.21,0,0,0,58,15a5,5,0,0,0-1.38-.84,4.54,4.54,0,0,0-1.84-.34,4.15,4.15,0,0,0-2.23.63,6,6,0,0,0-1.81,1.8,9.31,9.31,0,0,0-1.19,2.89A16.12,16.12,0,0,0,49.11,23c0,.13,0,.24,0,.37l10.29,0Z"/><path class="cls-2" d="M99.7,60.7a3.13,3.13,0,0,0-2.45-1.16,5.72,5.72,0,0,0-2,.34,7.37,7.37,0,0,0-1.61.82,5.18,5.18,0,0,0-1.06,1c-.24.34-.43.62-.57.85v5l8.66,0V64A4.84,4.84,0,0,0,99.7,60.7Z"/><path class="cls-2" d="M78.73,62.92a7.27,7.27,0,0,0-.62-2.17,4.06,4.06,0,0,0-1.27-1.51,3.49,3.49,0,0,0-2.09-.59,4.35,4.35,0,0,0-3.54,1.77,8.23,8.23,0,0,0-1.53,4.92h9.24A16.23,16.23,0,0,0,78.73,62.92Z"/><path class="cls-2" d="M190.27,68.22c.13-.3.27-.66.41-1l-4.51,0c.93,2.23,1.67,4.07,2.2,5.46Z"/><path class="cls-2" d="M136.38,60.7a3.14,3.14,0,0,0-2.45-1.16,5.66,5.66,0,0,0-2,.34,7.13,7.13,0,0,0-1.58.82,4.72,4.72,0,0,0-1.07,1c-.26.36-.46.65-.58.86v4.86l8.66,0V64A4.84,4.84,0,0,0,136.38,60.7Z"/><path class="cls-2" d="M24.73,18.62A16.82,16.82,0,0,0,24,13.38,11.91,11.91,0,0,0,21.71,9.3a9.85,9.85,0,0,0-3.43-2.61,10.5,10.5,0,0,0-4.53-1l-1.88,0-1.55.05v17.7l13.89,0A20.87,20.87,0,0,0,24.73,18.62Z"/><path class="cls-2" d="M114.44,22.68a18.36,18.36,0,0,0-.3-3.21,10.19,10.19,0,0,0-.92-2.87,5.62,5.62,0,0,0-1.7-2,4.37,4.37,0,0,0-2.58-.76,4.59,4.59,0,0,0-2.67.77,5.74,5.74,0,0,0-1.8,2.11,9.16,9.16,0,0,0-.91,2.82,18.07,18.07,0,0,0-.26,3.06c0,.23,0,.44,0,.67l11.1,0C114.42,23,114.44,22.87,114.44,22.68Z"/><path class="cls-2" d="M207,22.68a18.41,18.41,0,0,0-.31-3.21,10.2,10.2,0,0,0-.91-2.87,5.64,5.64,0,0,0-1.71-2,4.33,4.33,0,0,0-2.58-.76,4.59,4.59,0,0,0-2.67.77,5.81,5.81,0,0,0-1.79,2.11,9.44,9.44,0,0,0-.92,2.82,19.16,19.16,0,0,0-.26,3.06c0,.14,0,.27,0,.41L207,23C207,22.86,207,22.78,207,22.68Z"/><path class="cls-1" d="M222,22.91h.11l0-.06Z"/><path class="cls-2" d="M215.81,64.3a10.19,10.19,0,0,0-.92-2.87,5.62,5.62,0,0,0-1.7-2,4.35,4.35,0,0,0-2.58-.76,4.59,4.59,0,0,0-2.67.77,5.74,5.74,0,0,0-1.8,2.11,9.44,9.44,0,0,0-.91,2.82A18.83,18.83,0,0,0,205,67.2l11.12,0A18.37,18.37,0,0,0,215.81,64.3Z"/><path class="cls-1" d="M28.26,11.76a12.5,12.5,0,0,0-4-4.73,15.23,15.23,0,0,0-4.37-2.15,16.58,16.58,0,0,0-5.11-.8H2.24V5.51a10.66,10.66,0,0,1,1.25.19,5.42,5.42,0,0,1,1.36.44A1.75,1.75,0,0,1,5.77,7,3.08,3.08,0,0,1,6,8.25V23.53h4.31V5.82l1.55-.05,1.88,0a10.5,10.5,0,0,1,4.53,1A9.85,9.85,0,0,1,21.71,9.3,11.91,11.91,0,0,1,24,13.38a16.82,16.82,0,0,1,.77,5.24,20.87,20.87,0,0,1-.52,4.86H29a15,15,0,0,0,.75-4.84A15.33,15.33,0,0,0,28.26,11.76Z"/><path class="cls-1" d="M39.18,12.61l-7,.44v1.34a9.07,9.07,0,0,1,1.33.21,4,4,0,0,1,1.12.42,2.61,2.61,0,0,1,.82.9,2.37,2.37,0,0,1,.29,1.18v6.35h3.77V12.89Z"/><path class="cls-1" d="M62.93,1.46l-8.19.45V3.16a20.35,20.35,0,0,1,2.08.26A3.86,3.86,0,0,1,58.35,4,2.36,2.36,0,0,1,59.14,5a4.13,4.13,0,0,1,.28,1.56v7a9.28,9.28,0,0,0-2.31-.9,10.59,10.59,0,0,0-2.75-.36,8.76,8.76,0,0,0-3.65.81,9.16,9.16,0,0,0-3,2.17,10.78,10.78,0,0,0-2.07,3.41,11.27,11.27,0,0,0-.75,4.11c0,.22,0,.41.05.62h4.21c0-.13,0-.24,0-.37a16.12,16.12,0,0,1,.43-3.88,9.31,9.31,0,0,1,1.19-2.89,6,6,0,0,1,1.81-1.8,4.15,4.15,0,0,1,2.23-.63,4.54,4.54,0,0,1,1.84.34A5,5,0,0,1,58,15a5.21,5.21,0,0,1,1.43,2.25v6.11h3.81V1.77Z"/><path class="cls-1" d="M86.33,21.83c-1-2.52-1.83-4.44-2.34-5.78-.08-.2-.16-.4-.22-.59a1.56,1.56,0,0,1-.09-.4c0-.2.29-.38.85-.54A6.65,6.65,0,0,1,86,14.27V12.85H76.87v1.34a5.08,5.08,0,0,1,1.82.66A2.89,2.89,0,0,1,80,16.29c1,2.42,2,4.75,2.92,7h4C86.74,22.82,86.55,22.35,86.33,21.83Z"/><path class="cls-1" d="M96.69,14.81a4.73,4.73,0,0,1,1.6-.7V12.85H90.87v1.3a5.34,5.34,0,0,1,1.75.55c.62.31.92.63.92,1a3.19,3.19,0,0,1-.26,1.16c-.18.45-.31.81-.41,1.06-.79,2.07-1.51,3.85-2.15,5.38h1.61c.89-2.13,1.84-4.38,2.88-6.78A3.6,3.6,0,0,1,96.69,14.81Z"/><path class="cls-1" d="M115.91,15.11a10,10,0,0,0-14.08.15,10.9,10.9,0,0,0-2.73,7.66c0,.12,0,.22,0,.34h4.19c0-.23,0-.44,0-.67a18.07,18.07,0,0,1,.26-3.06,9.16,9.16,0,0,1,.91-2.82,5.74,5.74,0,0,1,1.8-2.11,4.59,4.59,0,0,1,2.67-.77,4.37,4.37,0,0,1,2.58.76,5.62,5.62,0,0,1,1.7,2,10.19,10.19,0,0,1,.92,2.87,18.36,18.36,0,0,1,.3,3.21c0,.19,0,.35,0,.54h4.17c0-.19,0-.38,0-.57A10.37,10.37,0,0,0,115.91,15.11Z"/><path class="cls-1" d="M127.71,12.89l-.3-.28-6.67.48v1.34a9.9,9.9,0,0,1,1.16.15,2.68,2.68,0,0,1,.92.36A2.29,2.29,0,0,1,123.9,17v6.17h3.81Z"/><path class="cls-1" d="M139.57,12.61l-7.28.48v1.34l1.61.09a2.25,2.25,0,0,1,1.09.3,2.55,2.55,0,0,1,.79.88,2.37,2.37,0,0,1,.28,1.18v6.27h3.81V12.89Z"/><path class="cls-1" d="M161.49,1.46,154,1.91V3.2a12.14,12.14,0,0,1,1.56.25,4.11,4.11,0,0,1,1.33.44,2.67,2.67,0,0,1,.82,1A3,3,0,0,1,158,6.27V23.09h3.77V1.77Z"/><path class="cls-1" d="M184,15.11a10,10,0,0,0-14.08.15,10.9,10.9,0,0,0-2.73,7.66s0,.09,0,.14h4.2c0-.16,0-.31,0-.47a18.1,18.1,0,0,1,.27-3.06,9.16,9.16,0,0,1,.91-2.82,5.74,5.74,0,0,1,1.8-2.11,4.57,4.57,0,0,1,2.67-.77,4.37,4.37,0,0,1,2.58.76,5.62,5.62,0,0,1,1.7,2,9.89,9.89,0,0,1,.91,2.87,17.49,17.49,0,0,1,.31,3.21c0,.12,0,.22,0,.34h4.18c0-.13,0-.25,0-.37A10.4,10.4,0,0,0,184,15.11Z"/><path class="cls-1" d="M206.41,15.11a10,10,0,0,0-14.08.15,10.9,10.9,0,0,0-2.73,7.66s0,0,0,.08h4.2c0-.14,0-.27,0-.41a18.07,18.07,0,0,1,.26-3.06A9.44,9.44,0,0,1,195,16.7a5.74,5.74,0,0,1,1.8-2.11,4.59,4.59,0,0,1,2.67-.77,4.37,4.37,0,0,1,2.58.76,5.62,5.62,0,0,1,1.7,2,10.19,10.19,0,0,1,.92,2.87,18.36,18.36,0,0,1,.3,3.21c0,.1,0,.18,0,.27h4.18c0-.1,0-.2,0-.3A10.37,10.37,0,0,0,206.41,15.11Z"/><path class="cls-1" d="M225.24,18.06q.9-.91,1.38-1.32a14,14,0,0,1,5-2.63V12.85h-8.79v1.3a10.25,10.25,0,0,1,1.69.36c.59.18.88.45.88.82a.9.9,0,0,1-.19.47,5.09,5.09,0,0,1-.35.48c-.84.95-1.87,2-3.1,3.23l-3.41,3.39V1.77l-.29-.31-7.39.45V3.2l1.44.15a2.67,2.67,0,0,1,1.33.42,2.46,2.46,0,0,1,.82,1,3.2,3.2,0,0,1,.32,1.41V22.93l5.37,0,.06-.06,0,.06h4.61c-.68-.89-1.32-1.72-1.92-2.46C223.82,19.46,224.65,18.66,225.24,18.06Z"/><path class="cls-1" d="M54.06,57.13a7.2,7.2,0,0,0-2.93.67,8.79,8.79,0,0,0-2.75,2l-.14,0V46.6L48,46.29l-7.34.45V48c.37,0,.85.09,1.45.18a3.23,3.23,0,0,1,1.29.39,2.29,2.29,0,0,1,.8,1A3.25,3.25,0,0,1,44.47,51V67.66h3.77v-6.2a6.71,6.71,0,0,1,1.92-1.51,5.27,5.27,0,0,1,2.48-.56,4.8,4.8,0,0,1,2.67.73A5.61,5.61,0,0,1,57.12,62a8.53,8.53,0,0,1,1,2.71,14.53,14.53,0,0,1,.32,2.89h4.24a11.37,11.37,0,0,0-2.47-7.56A7.77,7.77,0,0,0,54.06,57.13Z"/><path class="cls-1" d="M82.91,67V65.7a11.88,11.88,0,0,0-.45-3.34,7.54,7.54,0,0,0-1.39-2.67,6.66,6.66,0,0,0-2.53-1.89,9.23,9.23,0,0,0-3.75-.69A8.35,8.35,0,0,0,71,58a9,9,0,0,0-2.87,2.32,10.7,10.7,0,0,0-1.81,3.38,12.17,12.17,0,0,0-.62,3.82s0,.06,0,.09h4c0-.19,0-.36,0-.55Zm-11.7-6.62a4.35,4.35,0,0,1,3.54-1.77,3.49,3.49,0,0,1,2.09.59,4.06,4.06,0,0,1,1.27,1.51,7.27,7.27,0,0,1,.62,2.17,16.23,16.23,0,0,1,.19,2.42H69.68A8.23,8.23,0,0,1,71.21,60.42Z"/><path class="cls-1" d="M103.08,58.83A5.13,5.13,0,0,0,99,57.13a7.8,7.8,0,0,0-2.35.33,7.26,7.26,0,0,0-1.82.81,10.74,10.74,0,0,0-1.44,1.08c-.36.35-.77.74-1.21,1.19h-.09V46.6l-.28-.31-7.4.45V48c.38,0,.88.08,1.49.16a2.92,2.92,0,0,1,1.29.37,2.43,2.43,0,0,1,.82,1A3.25,3.25,0,0,1,88.28,51V67.54h3.77v-5c.14-.23.33-.51.57-.85a5.18,5.18,0,0,1,1.06-1,7.37,7.37,0,0,1,1.61-.82,5.72,5.72,0,0,1,2-.34A3.13,3.13,0,0,1,99.7,60.7a4.84,4.84,0,0,1,1,3.28V67.5h3.81V63.7A7.3,7.3,0,0,0,103.08,58.83Z"/><path class="cls-1" d="M116.33,57.44l-7,.44v1.34a9.4,9.4,0,0,1,1.34.21,4,4,0,0,1,1.11.42,2.52,2.52,0,0,1,.82.9,2.38,2.38,0,0,1,.3,1.18v5.53h3.76V57.72Z"/><path class="cls-1" d="M114.39,52.43a2.38,2.38,0,0,0,1.87-.86,2.94,2.94,0,0,0,.76-2,2.58,2.58,0,0,0-.74-1.81,2.48,2.48,0,0,0-1.89-.78,2.38,2.38,0,0,0-1.8.83,2.83,2.83,0,0,0-.76,2,2.71,2.71,0,0,0,.76,1.87A2.37,2.37,0,0,0,114.39,52.43Z"/><path class="cls-1" d="M139.81,58.93a5.06,5.06,0,0,0-4.27-1.8,7.67,7.67,0,0,0-2.33.33,6.8,6.8,0,0,0-1.78.81,10.18,10.18,0,0,0-1.38,1.1c-.49.46-.89.84-1.22,1.17h-.1V57.72l-.28-.28-6.65.44v1.34a9.28,9.28,0,0,1,1.14.15,2.75,2.75,0,0,1,.91.36,2.49,2.49,0,0,1,.82.94,2.78,2.78,0,0,1,.29,1.26v5.5h3.77V62.56c.12-.21.32-.5.58-.86a4.72,4.72,0,0,1,1.07-1,7.13,7.13,0,0,1,1.58-.82,5.66,5.66,0,0,1,2-.34,3.14,3.14,0,0,1,2.45,1.16,4.84,4.84,0,0,1,1,3.28v3.41h3.8V63.7A7.6,7.6,0,0,0,139.81,58.93Z"/><path class="cls-1" d="M164.6,46.29l-8.19.45V48a20,20,0,0,1,2.08.26,3.86,3.86,0,0,1,1.53.56,2.36,2.36,0,0,1,.79,1.06,4.13,4.13,0,0,1,.28,1.56v7a9.28,9.28,0,0,0-2.31-.9,10.57,10.57,0,0,0-2.74-.36,8.8,8.8,0,0,0-3.66.81,9.16,9.16,0,0,0-3,2.17,10.78,10.78,0,0,0-2.07,3.41,11.49,11.49,0,0,0-.72,3.85l4.24,0a15.87,15.87,0,0,1,.4-3.36,9.31,9.31,0,0,1,1.19-2.89,6,6,0,0,1,1.81-1.8,4.15,4.15,0,0,1,2.23-.63,4.54,4.54,0,0,1,1.84.34,5,5,0,0,1,1.38.84,5.27,5.27,0,0,1,.91,1.11,5.1,5.1,0,0,1,.52,1.14v5.22h3.81V46.6Z"/><path class="cls-1" d="M188,66.66c-1.05-2.52-1.83-4.44-2.34-5.78-.08-.2-.15-.4-.21-.59a1.31,1.31,0,0,1-.1-.4c0-.2.29-.38.85-.54a6.65,6.65,0,0,1,1.46-.25V57.68h-9.12V59a5.2,5.2,0,0,1,1.83.66,2.85,2.85,0,0,1,1.29,1.45c.89,2.1,1.73,4.13,2.56,6.13h4C188.16,67.05,188.09,66.87,188,66.66Z"/><path class="cls-1" d="M198.36,59.64a4.82,4.82,0,0,1,1.6-.7V57.68h-7.42V59a5.59,5.59,0,0,1,1.75.55c.62.31.93.63.93,1a3.23,3.23,0,0,1-.27,1.16c-.17.45-.31.81-.4,1.06-.66,1.7-1.25,3.16-1.8,4.49h1.62c.79-1.87,1.62-3.83,2.51-5.9A3.65,3.65,0,0,1,198.36,59.64Z"/><path class="cls-1" d="M210.65,57.11a9.26,9.26,0,0,0-7.15,3,10.77,10.77,0,0,0-2.69,7.12H205a18.83,18.83,0,0,1,.25-2.85,9.44,9.44,0,0,1,.91-2.82,5.74,5.74,0,0,1,1.8-2.11,4.59,4.59,0,0,1,2.67-.77,4.35,4.35,0,0,1,2.58.76,5.62,5.62,0,0,1,1.7,2,10.19,10.19,0,0,1,.92,2.87,18.37,18.37,0,0,1,.29,2.86h4.18a10.28,10.28,0,0,0-2.7-7.21A9.24,9.24,0,0,0,210.65,57.11Z"/><path class="cls-1" d="M241.54,57.72l-.3-.28-7.28.48v1.34l1.62.09a2.21,2.21,0,0,1,1.08.3,2.55,2.55,0,0,1,.79.88,2.39,2.39,0,0,1,.28,1.18V67.1h3.81Z"/><path class="cls-1" d="M229.39,57.72l-.31-.28-6.67.48v1.34a10.36,10.36,0,0,1,1.17.15,2.7,2.7,0,0,1,.91.36,2.45,2.45,0,0,1,.81.86,2.53,2.53,0,0,1,.28,1.22v5.29h3.81Z"/><path class="cls-1" d="M254.45,65.54A10.71,10.71,0,0,0,261,62.68a8.26,8.26,0,0,0,2.39-6.12,9.23,9.23,0,0,0-.54-3.2,7.76,7.76,0,0,0-1.65-2.65,7.67,7.67,0,0,0-2.74-1.81,9.81,9.81,0,0,0-3.81-.68,9,9,0,0,0-2.88.46,6.94,6.94,0,0,0-2.2,1.12,5.14,5.14,0,0,0-1.4,1.51,3.15,3.15,0,0,0-.45,1.59,3.24,3.24,0,0,0,.47,1.74,1.69,1.69,0,0,0,1.56.75,2.67,2.67,0,0,0,1.89-.62,1.86,1.86,0,0,0,.64-1.37,7.51,7.51,0,0,0-.17-1.39c-.11-.61-.2-1.08-.27-1.4a4.48,4.48,0,0,1,1-.52,5.14,5.14,0,0,1,5.39,1.35,7.36,7.36,0,0,1,1.29,4.67,6.24,6.24,0,0,1-.58,3,5.37,5.37,0,0,1-1.61,1.82,6.6,6.6,0,0,1-2.25,1,15.71,15.71,0,0,1-2.53.42v4.72h1.86Z"/></g><g id="part_2"><path class="cls-2" d="M149,71a8.11,8.11,0,0,0,1.09,2.59,5.72,5.72,0,0,0,1.81,1.82,4.85,4.85,0,0,0,2.62.69,4.75,4.75,0,0,0,2.68-.71A8.58,8.58,0,0,0,159,73.79V67.32l-10.29,0c0,.18,0,.34,0,.52A13.31,13.31,0,0,0,149,71Z"/><path class="cls-2" d="M48.45,28.72a5.62,5.62,0,0,0,1.81,1.82,4.83,4.83,0,0,0,2.62.69,4.75,4.75,0,0,0,2.68-.71A8.58,8.58,0,0,0,57.35,29V23.38l-10.3,0a12.7,12.7,0,0,0,.31,2.72A8.11,8.11,0,0,0,48.45,28.72Z"/><path class="cls-2" d="M88.6,23.39l0-.1H84.86c.76,1.84,1.38,3.37,1.84,4.58Z"/><path class="cls-2" d="M193,29.12a5.66,5.66,0,0,0,1.74,2,4.37,4.37,0,0,0,2.58.74,4.51,4.51,0,0,0,4-2.45,12.81,12.81,0,0,0,1.47-6.5l-11.11,0a18.57,18.57,0,0,0,.3,3.18A10.25,10.25,0,0,0,193,29.12Z"/><path class="cls-2" d="M126.61,30a3,3,0,0,0,2.33,1.1,5.39,5.39,0,0,0,2-.35,5.61,5.61,0,0,0,1.46-.81,6.89,6.89,0,0,0,1-.9,4.82,4.82,0,0,0,.64-.88v-5l-8.35,0v3.59A4.76,4.76,0,0,0,126.61,30Z"/><path class="cls-2" d="M170.67,29.12a5.73,5.73,0,0,0,1.73,2,4.4,4.4,0,0,0,2.59.74,4.53,4.53,0,0,0,4-2.45A12.79,12.79,0,0,0,180.48,23l-11.11,0a18.91,18.91,0,0,0,.29,3.12A10.25,10.25,0,0,0,170.67,29.12Z"/><path class="cls-2" d="M228.28,74.86a3,3,0,0,0,2.33,1.1,5.57,5.57,0,0,0,2-.34,5.47,5.47,0,0,0,1.46-.82,6.89,6.89,0,0,0,1-.9,4.82,4.82,0,0,0,.64-.88V67.1l-8.35,0V71.6A4.76,4.76,0,0,0,228.28,74.86Z"/><path class="cls-2" d="M46.64,74.22a5.19,5.19,0,0,0,1,1.23,4.92,4.92,0,0,0,1.37.92,4.49,4.49,0,0,0,1.89.36,4.57,4.57,0,0,0,4-2.39,12.19,12.19,0,0,0,1.52-6.55c0-.05,0-.11,0-.17l-10.2,0v5.43A5.21,5.21,0,0,0,46.64,74.22Z"/><path class="cls-2" d="M203.21,71a10.25,10.25,0,0,0,1,3A5.66,5.66,0,0,0,206,76a4.38,4.38,0,0,0,2.59.74,4.5,4.5,0,0,0,4-2.45A13.07,13.07,0,0,0,214,67.51c0-.11,0-.23,0-.35l-11.12,0c0,.07,0,.14,0,.21A19.18,19.18,0,0,0,203.21,71Z"/><path class="cls-2" d="M102.54,29.12a5.66,5.66,0,0,0,1.74,2,4.37,4.37,0,0,0,2.58.74,4.51,4.51,0,0,0,4-2.45,12.57,12.57,0,0,0,1.46-6.23l-11.09,0a17.72,17.72,0,0,0,.29,2.92A10,10,0,0,0,102.54,29.12Z"/><path class="cls-2" d="M9.32,30.46a6.13,6.13,0,0,0,3.3.71,10.36,10.36,0,0,0,4.5-.91,8,8,0,0,0,3.12-2.53,11.44,11.44,0,0,0,1.84-3.94c0-.1,0-.21.05-.31l-13.88,0v4.39A2.83,2.83,0,0,0,9.32,30.46Z"/><path class="cls-1" d="M22.08,23.79a11.44,11.44,0,0,1-1.84,3.94,8,8,0,0,1-3.12,2.53,10.36,10.36,0,0,1-4.5.91,6.13,6.13,0,0,1-3.3-.71,2.83,2.83,0,0,1-1.07-2.55V23.52H3.93V29a2.68,2.68,0,0,1-.27,1.25,1.78,1.78,0,0,1-.88.78,5,5,0,0,1-1.25.25A14.71,14.71,0,0,1,0,31.39v1.44H11.92A19.35,19.35,0,0,0,17.65,32a15.86,15.86,0,0,0,5-2.57A13.14,13.14,0,0,0,26.24,25a10.82,10.82,0,0,0,.64-1.52H22.13C22.11,23.58,22.1,23.69,22.08,23.79Z"/><path class="cls-1" d="M33.62,29.43a2.19,2.19,0,0,1-.28,1.18,1.41,1.41,0,0,1-.84.64,3.88,3.88,0,0,1-.86.16l-1,.08v1.34h9.65V31.49a4.4,4.4,0,0,1-.95-.15,6.82,6.82,0,0,1-.87-.29,1.64,1.64,0,0,1-.85-.69,2.32,2.32,0,0,1-.27-1.18V23.44H33.62Z"/><path class="cls-1" d="M57.35,29a8.58,8.58,0,0,1-1.79,1.56,4.75,4.75,0,0,1-2.68.71,4.83,4.83,0,0,1-2.62-.69,5.62,5.62,0,0,1-1.81-1.82,8.11,8.11,0,0,1-1.09-2.59,12.7,12.7,0,0,1-.31-2.72h-4.2a12.28,12.28,0,0,0,.65,3.72,10.34,10.34,0,0,0,1.89,3.36,8.3,8.3,0,0,0,2.76,2.14,7.65,7.65,0,0,0,3.29.76,7.28,7.28,0,0,0,3.19-.75,8.21,8.21,0,0,0,2.6-1.93l.16,0v1.87l.3.28,7-.44V31.13c-.4,0-.85,0-1.33-.08a2.41,2.41,0,0,1-1.12-.31,2.37,2.37,0,0,1-.8-.84,2.47,2.47,0,0,1-.27-1.2V23.37H57.35Z"/><path class="cls-1" d="M88.6,23.39l-1.9,4.49c-.46-1.21-1.08-2.74-1.84-4.58h-4c.11.27.23.55.34.83q1.56,3.78,3.48,8.58a23.79,23.79,0,0,1-2,4.05,8,8,0,0,1-2.43,2.85q-.2-.34-.54-.87a5.71,5.71,0,0,0-.65-.82,3.16,3.16,0,0,0-.83-.62,2.39,2.39,0,0,0-1.11-.24,1.77,1.77,0,0,0-1.39.63,2.45,2.45,0,0,0-.56,1.66,2.21,2.21,0,0,0,.9,1.72,3.77,3.77,0,0,0,2.48.75,4.21,4.21,0,0,0,1.57-.3,5.47,5.47,0,0,0,1.7-1.14,13.6,13.6,0,0,0,2-2.5A37.12,37.12,0,0,0,86,33.46c.65-1.45,1.6-3.7,2.85-6.77.44-1.09.92-2.24,1.41-3.41H88.64Z"/><path class="cls-1" d="M110.88,29.45a4.51,4.51,0,0,1-4,2.45,4.37,4.37,0,0,1-2.58-.74,5.66,5.66,0,0,1-1.74-2,10,10,0,0,1-1-2.95,17.72,17.72,0,0,1-.29-2.92h-4.2a11.58,11.58,0,0,0,.76,4,10,10,0,0,0,2.1,3.31,9.1,9.1,0,0,0,3.06,2.1,9.33,9.33,0,0,0,3.63.72,10.36,10.36,0,0,0,4.14-.79A8.88,8.88,0,0,0,114,30.24a9.9,9.9,0,0,0,1.91-3.46,12.93,12.93,0,0,0,.62-3.57h-4.17A12.57,12.57,0,0,1,110.88,29.45Z"/><path class="cls-1" d="M134,28.19a4.82,4.82,0,0,1-.64.88,6.89,6.89,0,0,1-1,.9,5.61,5.61,0,0,1-1.46.81,5.39,5.39,0,0,1-2,.35,3,3,0,0,1-2.33-1.1,4.76,4.76,0,0,1-1-3.26V23.18h-3.81v3.39a7.93,7.93,0,0,0,1.38,5,4.89,4.89,0,0,0,4,1.73,7.92,7.92,0,0,0,2.41-.29,8.93,8.93,0,0,0,1.76-.83,7.87,7.87,0,0,0,1.39-1c.41-.39.77-.75,1.1-1.09H134v2.54l.3.28,6.53-.44V31.13c-.41,0-.78-.05-1.12-.09a2.3,2.3,0,0,1-.87-.3,2.5,2.5,0,0,1-.79-.83,2.25,2.25,0,0,1-.28-1.17v-5.6H134Z"/><path class="cls-1" d="M155.93,29.42a2.21,2.21,0,0,1-.28,1.19,1.47,1.47,0,0,1-.85.64,4.32,4.32,0,0,1-.87.15l-1,.09v1.34h9.75V31.49a5.5,5.5,0,0,1-1-.14,5.08,5.08,0,0,1-.88-.3,1.67,1.67,0,0,1-.85-.7,2.28,2.28,0,0,1-.27-1.17v-6.1h-3.77Z"/><path class="cls-1" d="M179,29.45a4.53,4.53,0,0,1-4,2.45,4.4,4.4,0,0,1-2.59-.74,5.73,5.73,0,0,1-1.73-2,10.25,10.25,0,0,1-1-2.95,18.91,18.91,0,0,1-.29-3.12h-4.2a11.49,11.49,0,0,0,.77,4.25A9.8,9.8,0,0,0,168,30.62a9.24,9.24,0,0,0,6.7,2.82,10.36,10.36,0,0,0,4.14-.79,8.88,8.88,0,0,0,3.24-2.41A9.9,9.9,0,0,0,184,26.78a13.25,13.25,0,0,0,.64-3.77h-4.18A12.79,12.79,0,0,1,179,29.45Z"/><path class="cls-1" d="M201.38,29.45a4.51,4.51,0,0,1-4,2.45,4.37,4.37,0,0,1-2.58-.74,5.66,5.66,0,0,1-1.74-2,10.25,10.25,0,0,1-1-2.95,18.57,18.57,0,0,1-.3-3.18h-4.21a11.57,11.57,0,0,0,.78,4.31,10,10,0,0,0,2.1,3.31,9.1,9.1,0,0,0,3.06,2.1,9.33,9.33,0,0,0,3.63.72,10.36,10.36,0,0,0,4.14-.79,8.88,8.88,0,0,0,3.24-2.41,9.9,9.9,0,0,0,1.91-3.46,13.33,13.33,0,0,0,.65-3.84h-4.19A12.81,12.81,0,0,1,201.38,29.45Z"/><path class="cls-1" d="M212.51,29.42a2.21,2.21,0,0,1-.28,1.19,1.47,1.47,0,0,1-.85.64,4.11,4.11,0,0,1-.84.15l-1,.09v1.34h9.79V31.49a5.7,5.7,0,0,1-1-.14,6.25,6.25,0,0,1-.93-.3,1.56,1.56,0,0,1-.86-.7,2.55,2.55,0,0,1-.26-1.21V24.4l1.6-1.49-5.37,0Z"/><path class="cls-1" d="M221.7,27.93c1.2,1.74,2.33,3.38,3.39,4.9h6V31.49a5.32,5.32,0,0,1-2.06-.44,5.31,5.31,0,0,1-1.6-1.56c-.64-.86-1.65-2.23-3-4.14-.64-.88-1.24-1.69-1.82-2.45H218Q219.91,25.35,221.7,27.93Z"/><path class="cls-1" d="M56.38,67.79a12.19,12.19,0,0,1-1.52,6.55,4.57,4.57,0,0,1-4,2.39A4.49,4.49,0,0,1,49,76.37a4.92,4.92,0,0,1-1.37-.92,5.08,5.08,0,0,1-1.44-2.37V67.65H42.4v3.11c0,1.31,0,2.67,0,4.07s-.08,2.61-.14,3.61l1.25.28L45,76.4a13.71,13.71,0,0,0,3,1.36,10.53,10.53,0,0,0,3.23.51,8.74,8.74,0,0,0,6.59-3.06,10.71,10.71,0,0,0,2.84-7.56s0,0,0,0H56.37C56.37,67.68,56.38,67.74,56.38,67.79Z"/><path class="cls-1" d="M64.15,71.62A9.86,9.86,0,0,0,65.91,75a8.37,8.37,0,0,0,3,2.31,10,10,0,0,0,4.23.85A8.5,8.5,0,0,0,78,76.77,10.29,10.29,0,0,0,81.33,73l-1.42-.87a8.2,8.2,0,0,1-2.53,3,5.53,5.53,0,0,1-3.11.85,6.46,6.46,0,0,1-3-.68,5.51,5.51,0,0,1-2.06-1.86A8.54,8.54,0,0,1,68,70.62a16.47,16.47,0,0,1-.35-3h-4A14.68,14.68,0,0,0,64.15,71.62Z"/><path class="cls-1" d="M98.63,74.26a2.29,2.29,0,0,1-.27,1.18,1.41,1.41,0,0,1-.84.64,3.72,3.72,0,0,1-.93.16l-1,.08v1.34h9.83V76.32a5.43,5.43,0,0,1-1-.13,7.34,7.34,0,0,1-.85-.27,1.66,1.66,0,0,1-.84-.68,2.25,2.25,0,0,1-.26-1.15v-6.6H98.63Z"/><path class="cls-1" d="M86.21,74.25a2.21,2.21,0,0,1-.28,1.19,1.47,1.47,0,0,1-.85.64,4.24,4.24,0,0,1-.84.15l-1,.09v1.34h9.79V76.32a6.23,6.23,0,0,1-1-.14,5,5,0,0,1-.93-.3,1.76,1.76,0,0,1-.84-.69A2.19,2.19,0,0,1,90,74.05V67.53H86.21Z"/><path class="cls-1" d="M110.77,74.26a2.29,2.29,0,0,1-.27,1.18,1.48,1.48,0,0,1-.84.64,3.46,3.46,0,0,1-.87.16l-1,.08v1.34h9.65V76.32a4.4,4.4,0,0,1-1-.15,6.22,6.22,0,0,1-.86-.29,1.63,1.63,0,0,1-.86-.69,2.32,2.32,0,0,1-.27-1.18V67.45h-3.77Z"/><path class="cls-1" d="M135.31,74.26a2.29,2.29,0,0,1-.27,1.18,1.48,1.48,0,0,1-.84.64,3.64,3.64,0,0,1-.93.16l-1,.08v1.34H142V76.32a5.32,5.32,0,0,1-1-.12,5.85,5.85,0,0,1-.84-.28,1.64,1.64,0,0,1-.83-.68,2.37,2.37,0,0,1-.24-1.15V67.38h-3.81Z"/><path class="cls-1" d="M122.89,74.26a2.19,2.19,0,0,1-.28,1.18,1.41,1.41,0,0,1-.84.64,3.38,3.38,0,0,1-.86.16l-1,.08v1.34h9.79V76.32a7.09,7.09,0,0,1-1-.14,4.51,4.51,0,0,1-.92-.3,1.79,1.79,0,0,1-.85-.69,2.09,2.09,0,0,1-.28-1.14V67.42h-3.77Z"/><path class="cls-1" d="M159,73.79a8.58,8.58,0,0,1-1.79,1.56,4.75,4.75,0,0,1-2.68.71,4.85,4.85,0,0,1-2.62-.69,5.72,5.72,0,0,1-1.81-1.82A8.11,8.11,0,0,1,149,71a13.31,13.31,0,0,1-.33-3.09c0-.18,0-.34,0-.52l-4.24,0c0,.09,0,.17,0,.26a12.79,12.79,0,0,0,.7,4.34,10.34,10.34,0,0,0,1.89,3.36,8.3,8.3,0,0,0,2.76,2.14,7.65,7.65,0,0,0,3.29.76,7.25,7.25,0,0,0,3.19-.75,8.21,8.21,0,0,0,2.6-1.93l.16,0v1.87l.3.28,7-.44V76c-.41,0-.86,0-1.34-.08a2.41,2.41,0,0,1-1.12-.31,2.37,2.37,0,0,1-.8-.84,2.47,2.47,0,0,1-.27-1.2V67.31H159Z"/><path class="cls-1" d="M190.27,68.22l-1.9,4.49c-.53-1.39-1.27-3.23-2.2-5.46h-4l.71,1.71q1.56,3.78,3.48,8.58a22.39,22.39,0,0,1-2,4,8.08,8.08,0,0,1-2.42,2.85c-.14-.23-.32-.52-.55-.86a5.34,5.34,0,0,0-.65-.83,3.16,3.16,0,0,0-.83-.62,2.39,2.39,0,0,0-1.11-.24,1.77,1.77,0,0,0-1.39.63,2.45,2.45,0,0,0-.56,1.66,2.21,2.21,0,0,0,.9,1.72,3.78,3.78,0,0,0,2.49.75,4.25,4.25,0,0,0,1.57-.3,5.56,5.56,0,0,0,1.69-1.14,13.6,13.6,0,0,0,1.95-2.5,37.12,37.12,0,0,0,2.28-4.43c.65-1.45,1.6-3.7,2.85-6.77.56-1.36,1.15-2.8,1.78-4.29h-1.62C190.54,67.56,190.4,67.92,190.27,68.22Z"/><path class="cls-1" d="M214,67.51a13.07,13.07,0,0,1-1.49,6.77,4.5,4.5,0,0,1-4,2.45A4.38,4.38,0,0,1,206,76a5.66,5.66,0,0,1-1.74-2,10.25,10.25,0,0,1-1-3,19.18,19.18,0,0,1-.32-3.59c0-.07,0-.14,0-.21h-4.16c0,.18,0,.35,0,.54a11.8,11.8,0,0,0,.78,4.39,10,10,0,0,0,2.1,3.31,9.1,9.1,0,0,0,3.06,2.1,9.33,9.33,0,0,0,3.63.72,10.36,10.36,0,0,0,4.14-.79,9,9,0,0,0,3.25-2.41,9.88,9.88,0,0,0,1.9-3.46,13.09,13.09,0,0,0,.67-4.14c0-.11,0-.21,0-.32H214C214,67.28,214,67.4,214,67.51Z"/><path class="cls-1" d="M240.54,75.57a2.6,2.6,0,0,1-.79-.83,2.25,2.25,0,0,1-.28-1.17V67.09h-3.81V73a4.82,4.82,0,0,1-.64.88,6.89,6.89,0,0,1-1,.9,5.47,5.47,0,0,1-1.46.82,5.57,5.57,0,0,1-2,.34,3,3,0,0,1-2.33-1.1,4.76,4.76,0,0,1-1-3.26V67.13H223.5v4.27a7.87,7.87,0,0,0,1.39,5,4.85,4.85,0,0,0,4,1.73,7.92,7.92,0,0,0,2.41-.29,8.67,8.67,0,0,0,1.76-.83,8,8,0,0,0,1.4-1l1.09-1.08h.12v2.53l.3.28,6.53-.44V76a9.24,9.24,0,0,1-1.12-.09A2.36,2.36,0,0,1,240.54,75.57Z"/><rect class="cls-1" x="250.51" y="67.05" width="1.86" height="2.97"/><path class="cls-1" d="M251.51,72.55a2.71,2.71,0,0,0-2,.82,2.67,2.67,0,0,0-.82,2,2.61,2.61,0,0,0,.82,1.94,2.79,2.79,0,0,0,3.91,0,2.61,2.61,0,0,0,.82-1.94,2.67,2.67,0,0,0-.82-2A2.7,2.7,0,0,0,251.51,72.55Z"/></g></g></g></svg>
