<svg xmlns="http://www.w3.org/2000/svg" viewBox="0 0 430.23 37.33"><defs><style>.cls-1{fill:none;}.cls-2{fill:#005afb;}</style></defs><title>did_you_look_desktop</title><g id="Layer_2" data-name="Layer 2"><g id="did_you_look"><g id="part_2"><path class="cls-1" d="M324.46,22.81a7.55,7.55,0,0,0,1,2.39,5.22,5.22,0,0,0,1.68,1.69,4.5,4.5,0,0,0,2.42.64,4.36,4.36,0,0,0,2.48-.66,8.36,8.36,0,0,0,1.65-1.44v-6l-9.51,0c0,.16,0,.31,0,.48A12.47,12.47,0,0,0,324.46,22.81Z"/><path class="cls-1" d="M44.8,25.2a5.22,5.22,0,0,0,1.68,1.69,4.5,4.5,0,0,0,2.42.64,4.38,4.38,0,0,0,2.48-.66A8.36,8.36,0,0,0,53,25.43V20.27l-9.52,0a12.06,12.06,0,0,0,.28,2.52A7.55,7.55,0,0,0,44.8,25.2Z"/><path class="cls-1" d="M178.51,25.58a5.22,5.22,0,0,0,1.6,1.88,4,4,0,0,0,2.4.69,4.17,4.17,0,0,0,3.71-2.27,11.83,11.83,0,0,0,1.36-6l-10.28,0a18,18,0,0,0,.28,3A9.35,9.35,0,0,0,178.51,25.58Z"/><path class="cls-1" d="M117.08,26.42a2.77,2.77,0,0,0,2.16,1,5,5,0,0,0,1.83-.31,5.69,5.69,0,0,0,1.35-.75,5.51,5.51,0,0,0,.89-.84,4.54,4.54,0,0,0,.59-.81V20.06l-7.72,0V23.4A4.41,4.41,0,0,0,117.08,26.42Z"/><path class="cls-1" d="M157.82,25.58a5.24,5.24,0,0,0,1.61,1.88,4,4,0,0,0,2.39.69,4.2,4.2,0,0,0,3.72-2.27,11.85,11.85,0,0,0,1.35-5.95l-10.27,0a17.31,17.31,0,0,0,.27,2.89A9.65,9.65,0,0,0,157.82,25.58Z"/><path class="cls-1" d="M397.75,26.42a2.77,2.77,0,0,0,2.16,1,5,5,0,0,0,1.83-.31,5.69,5.69,0,0,0,1.35-.75,5.51,5.51,0,0,0,.89-.84,4.54,4.54,0,0,0,.59-.81V19.24l-7.72,0V23.4A4.41,4.41,0,0,0,397.75,26.42Z"/><path class="cls-1" d="M229.78,25.82a4.94,4.94,0,0,0,.9,1.15,4.87,4.87,0,0,0,1.27.85,4.12,4.12,0,0,0,1.74.33,4.21,4.21,0,0,0,3.69-2.22,11.17,11.17,0,0,0,1.41-6.05c0-.05,0-.1,0-.15l-9.44,0v5A5.29,5.29,0,0,0,229.78,25.82Z"/><path class="cls-1" d="M374.56,22.85a10,10,0,0,0,.93,2.73,5.24,5.24,0,0,0,1.61,1.88,4,4,0,0,0,2.39.69,4.2,4.2,0,0,0,3.72-2.27,12.14,12.14,0,0,0,1.37-6.26c0-.1,0-.21,0-.32l-10.28,0c0,.07,0,.13,0,.2A18.08,18.08,0,0,0,374.56,22.85Z"/><path class="cls-1" d="M94.82,25.58a5.24,5.24,0,0,0,1.61,1.88,4,4,0,0,0,2.39.69,4.2,4.2,0,0,0,3.72-2.27,11.67,11.67,0,0,0,1.34-5.76l-10.25,0a17.3,17.3,0,0,0,.26,2.7A10,10,0,0,0,94.82,25.58Z"/><path class="cls-1" d="M8.62,26.82a5.69,5.69,0,0,0,3.05.65,9.62,9.62,0,0,0,4.16-.84,7.49,7.49,0,0,0,2.89-2.34,10.62,10.62,0,0,0,1.7-3.64c0-.09,0-.2,0-.29l-12.84,0v4.06A2.63,2.63,0,0,0,8.62,26.82Z"/><path class="cls-2" d="M20.42,20.65a10.62,10.62,0,0,1-1.7,3.64,7.49,7.49,0,0,1-2.89,2.34,9.62,9.62,0,0,1-4.16.84,5.69,5.69,0,0,1-3.05-.65,2.63,2.63,0,0,1-1-2.36V20.4h-4v5.06a2.41,2.41,0,0,1-.26,1.15,1.6,1.6,0,0,1-.81.72,4.11,4.11,0,0,1-1.16.23A12.49,12.49,0,0,1,0,27.68V29H11a17.81,17.81,0,0,0,5.3-.79A14.33,14.33,0,0,0,21,25.84a12.05,12.05,0,0,0,3.32-4.08,9.71,9.71,0,0,0,.58-1.41H20.47C20.45,20.45,20.44,20.56,20.42,20.65Z"/><path class="cls-2" d="M31.09,25.86a2.11,2.11,0,0,1-.26,1.1,1.34,1.34,0,0,1-.77.59,4.08,4.08,0,0,1-.8.15l-.89.07V29h8.92V27.77a4.4,4.4,0,0,1-.87-.14,6.28,6.28,0,0,1-.8-.27,1.53,1.53,0,0,1-.8-.64,2.22,2.22,0,0,1-.25-1.09V20.32H31.09Z"/><path class="cls-2" d="M53,25.43a8.36,8.36,0,0,1-1.65,1.44,4.38,4.38,0,0,1-2.48.66,4.5,4.5,0,0,1-2.42-.64A5.22,5.22,0,0,1,44.8,25.2a7.55,7.55,0,0,1-1-2.39,12.06,12.06,0,0,1-.28-2.52l-3.89,0a11.67,11.67,0,0,0,.6,3.43A9.87,9.87,0,0,0,42,26.85a7.68,7.68,0,0,0,2.56,2,6.94,6.94,0,0,0,3,.7,6.67,6.67,0,0,0,2.94-.69,7.68,7.68,0,0,0,2.41-1.78l.15,0v1.72l.28.26,6.46-.41V27.43c-.37,0-.78,0-1.23-.07a2.31,2.31,0,0,1-1-.28,2.12,2.12,0,0,1-.74-.78,2.25,2.25,0,0,1-.26-1.11V20.26H53Z"/><path class="cls-2" d="M81.93,20.28c-.61,1.43-1.19,2.81-1.75,4.15-.43-1.12-1-2.54-1.7-4.24H74.75c.1.26.21.52.32.77q1.44,3.5,3.22,7.94a22.08,22.08,0,0,1-1.88,3.74,7.61,7.61,0,0,1-2.24,2.64c-.13-.22-.3-.48-.51-.8a4.49,4.49,0,0,0-.6-.77,2.91,2.91,0,0,0-.77-.57,2.18,2.18,0,0,0-1-.23,1.64,1.64,0,0,0-1.28.59A2.29,2.29,0,0,0,69.46,35a2,2,0,0,0,.84,1.59,3.43,3.43,0,0,0,2.29.7,4.06,4.06,0,0,0,1.46-.27A5.38,5.38,0,0,0,75.61,36a12.24,12.24,0,0,0,1.81-2.32,34.46,34.46,0,0,0,2.11-4.09c.6-1.34,1.48-3.42,2.63-6.26.41-1,.85-2.07,1.3-3.15H82Z"/><path class="cls-2" d="M102.54,25.88a4.2,4.2,0,0,1-3.72,2.27,4,4,0,0,1-2.39-.69,5.24,5.24,0,0,1-1.61-1.88,10,10,0,0,1-.93-2.73,17.3,17.3,0,0,1-.26-2.7H89.75a10.82,10.82,0,0,0,.69,3.74,9.17,9.17,0,0,0,2,3.07,8.59,8.59,0,0,0,6.19,2.6,9.57,9.57,0,0,0,3.82-.73,8.19,8.19,0,0,0,3-2.23,9.18,9.18,0,0,0,1.77-3.2,12.09,12.09,0,0,0,.57-3.3h-3.86A11.67,11.67,0,0,1,102.54,25.88Z"/><path class="cls-2" d="M123.9,24.72a4.54,4.54,0,0,1-.59.81,5.51,5.51,0,0,1-.89.84,5.69,5.69,0,0,1-1.35.75,5,5,0,0,1-1.83.31,2.77,2.77,0,0,1-2.16-1,4.41,4.41,0,0,1-.9-3V20.08h-3.52v3.13a7.35,7.35,0,0,0,1.28,4.66,4.51,4.51,0,0,0,3.73,1.6,7.21,7.21,0,0,0,2.23-.27,8.71,8.71,0,0,0,1.63-.76,7.5,7.5,0,0,0,1.29-1c.37-.36.71-.69,1-1h.11v2.34l.28.26,6-.41V27.43c-.37,0-.71,0-1-.08a1.94,1.94,0,0,1-.8-.27,2.32,2.32,0,0,1-.73-.77,2.07,2.07,0,0,1-.27-1.09V20.05H123.9Z"/><path class="cls-2" d="M144.2,25.86a2,2,0,0,1-.27,1.09,1.37,1.37,0,0,1-.78.6,4.63,4.63,0,0,1-.81.14l-.92.08V29h9V27.77a5.68,5.68,0,0,1-.91-.13,4.68,4.68,0,0,1-.82-.28,1.62,1.62,0,0,1-.79-.65,2.16,2.16,0,0,1-.24-1.08V20H144.2Z"/><path class="cls-2" d="M165.54,25.88a4.2,4.2,0,0,1-3.72,2.27,4,4,0,0,1-2.39-.69,5.24,5.24,0,0,1-1.61-1.88,9.65,9.65,0,0,1-.93-2.73,17.31,17.31,0,0,1-.27-2.89l-3.89,0a11.07,11.07,0,0,0,.71,3.92A9.17,9.17,0,0,0,155.39,27a8.59,8.59,0,0,0,6.19,2.6,9.57,9.57,0,0,0,3.82-.73,8.19,8.19,0,0,0,3-2.23,9.18,9.18,0,0,0,1.77-3.2,12.28,12.28,0,0,0,.59-3.49h-3.87A11.85,11.85,0,0,1,165.54,25.88Z"/><path class="cls-2" d="M186.22,25.88a4.17,4.17,0,0,1-3.71,2.27,4,4,0,0,1-2.4-.69,5.22,5.22,0,0,1-1.6-1.88,9.35,9.35,0,0,1-.93-2.73,18,18,0,0,1-.28-3l-3.88,0a10.73,10.73,0,0,0,.71,4A9.31,9.31,0,0,0,176.07,27a8.63,8.63,0,0,0,6.19,2.6,9.58,9.58,0,0,0,3.83-.73,8.19,8.19,0,0,0,3-2.23,9.16,9.16,0,0,0,1.76-3.2,12,12,0,0,0,.6-3.55h-3.87A11.83,11.83,0,0,1,186.22,25.88Z"/><path class="cls-2" d="M196.51,25.86a2,2,0,0,1-.26,1.09,1.37,1.37,0,0,1-.78.6,4.41,4.41,0,0,1-.78.14l-.89.08V29h9V27.77a6.2,6.2,0,0,1-1-.13,5.71,5.71,0,0,1-.86-.28,1.47,1.47,0,0,1-.79-.65A2.28,2.28,0,0,1,200,25.6V21.21l1.48-1.38-5,0Z"/><path class="cls-2" d="M205,24.48,208.14,29h5.58V27.77a5,5,0,0,1-1.91-.41,4.92,4.92,0,0,1-1.49-1.45c-.58-.78-1.52-2.06-2.8-3.82-.59-.81-1.15-1.56-1.69-2.27h-4.25C202.76,21.34,203.91,22.89,205,24.48Z"/><path class="cls-2" d="M238.79,19.88a11.17,11.17,0,0,1-1.41,6.05,4.21,4.21,0,0,1-3.69,2.22,4.12,4.12,0,0,1-1.74-.33,4.87,4.87,0,0,1-1.27-.85,4.94,4.94,0,0,1-.9-1.15,5.29,5.29,0,0,1-.44-1.05v-5h-3.48v2.87c0,1.21,0,2.47,0,3.77s-.07,2.41-.13,3.34l1.16.26,1.39-2.15A12.75,12.75,0,0,0,231,29.1a9.88,9.88,0,0,0,3,.47,8.07,8.07,0,0,0,6.09-2.83,9.91,9.91,0,0,0,2.63-7s0,0,0,0l-3.92,0C238.78,19.78,238.79,19.83,238.79,19.88Z"/><path class="cls-2" d="M246,23.42a8.89,8.89,0,0,0,1.62,3.15,7.66,7.66,0,0,0,2.76,2.14,9.19,9.19,0,0,0,3.91.78,7.81,7.81,0,0,0,4.48-1.31,9.49,9.49,0,0,0,3.11-3.52l-1.32-.81a7.57,7.57,0,0,1-2.33,2.82,5.16,5.16,0,0,1-2.87.78,5.93,5.93,0,0,1-2.82-.63,5.27,5.27,0,0,1-1.91-1.72,7.86,7.86,0,0,1-1.09-2.61,13.36,13.36,0,0,1-.32-2.79h-3.75A12.9,12.9,0,0,0,246,23.42Z"/><path class="cls-2" d="M277.86,25.86a2.13,2.13,0,0,1-.25,1.1,1.39,1.39,0,0,1-.78.59,4.2,4.2,0,0,1-.86.15l-1,.07V29h9.09V27.77a4.92,4.92,0,0,1-.92-.12,7.6,7.6,0,0,1-.78-.25,1.52,1.52,0,0,1-.78-.63,2.05,2.05,0,0,1-.24-1.06V19.6h-3.52Z"/><path class="cls-2" d="M266.37,25.86a2,2,0,0,1-.26,1.09,1.37,1.37,0,0,1-.78.6,4.41,4.41,0,0,1-.78.14l-.89.08V29h9V27.77a6.7,6.7,0,0,1-1-.13,4.23,4.23,0,0,1-.85-.28,1.62,1.62,0,0,1-.78-.64,1.94,1.94,0,0,1-.25-1v-6l-3.49,0Z"/><path class="cls-2" d="M289.08,25.86a2.11,2.11,0,0,1-.25,1.1,1.39,1.39,0,0,1-.78.59,4,4,0,0,1-.79.15l-.89.07V29h8.92V27.77a4.38,4.38,0,0,1-.88-.14,6.85,6.85,0,0,1-.8-.27,1.5,1.5,0,0,1-.79-.64,2.12,2.12,0,0,1-.25-1.09V19.57h-3.49Z"/><path class="cls-2" d="M311.78,25.86a2.13,2.13,0,0,1-.26,1.1,1.34,1.34,0,0,1-.77.59,4.2,4.2,0,0,1-.86.15l-.94.07V29h9V27.77a4.32,4.32,0,0,1-1.69-.37,1.5,1.5,0,0,1-.77-.63,2.17,2.17,0,0,1-.22-1.06V19.5h-3.52Z"/><path class="cls-2" d="M300.29,25.86A2.11,2.11,0,0,1,300,27a1.39,1.39,0,0,1-.78.59,4.08,4.08,0,0,1-.8.15l-.89.07V29h9.05V27.77a7.09,7.09,0,0,1-.94-.13,3.94,3.94,0,0,1-.86-.28,1.67,1.67,0,0,1-.78-.64,1.86,1.86,0,0,1-.26-1V19.54h-3.49Z"/><path class="cls-2" d="M333.7,25.43a8.36,8.36,0,0,1-1.65,1.44,4.36,4.36,0,0,1-2.48.66,4.5,4.5,0,0,1-2.42-.64,5.22,5.22,0,0,1-1.68-1.69,7.55,7.55,0,0,1-1-2.39,12.47,12.47,0,0,1-.3-2.85c0-.17,0-.32,0-.48h-3.92c0,.08,0,.16,0,.24a11.92,11.92,0,0,0,.64,4,9.87,9.87,0,0,0,1.75,3.11,7.68,7.68,0,0,0,2.56,2,6.94,6.94,0,0,0,3,.7,6.67,6.67,0,0,0,2.94-.69,7.68,7.68,0,0,0,2.41-1.78l.15,0v1.72l.28.26,6.46-.41V27.43c-.37,0-.78,0-1.23-.07a2.31,2.31,0,0,1-1-.28,2.12,2.12,0,0,1-.74-.78,2.25,2.25,0,0,1-.26-1.11V19.44H333.7Z"/><path class="cls-2" d="M362.6,20.28c-.61,1.43-1.19,2.81-1.75,4.15-.5-1.29-1.18-3-2-5.05h-3.73l.66,1.58q1.44,3.5,3.22,7.94a22.08,22.08,0,0,1-1.88,3.74,7.61,7.61,0,0,1-2.24,2.64c-.13-.22-.3-.48-.51-.8a4.49,4.49,0,0,0-.6-.77,2.91,2.91,0,0,0-.77-.57,2.18,2.18,0,0,0-1-.23,1.64,1.64,0,0,0-1.28.59,2.28,2.28,0,0,0-.51,1.53,2,2,0,0,0,.83,1.59,3.43,3.43,0,0,0,2.29.7,4.06,4.06,0,0,0,1.46-.27A5.25,5.25,0,0,0,356.28,36a12.24,12.24,0,0,0,1.81-2.32,34.46,34.46,0,0,0,2.11-4.09c.6-1.34,1.48-3.42,2.63-6.26.51-1.26,1.07-2.59,1.64-4H363C362.85,19.66,362.72,20,362.6,20.28Z"/><path class="cls-2" d="M384.58,19.62a12.14,12.14,0,0,1-1.37,6.26,4.2,4.2,0,0,1-3.72,2.27,4,4,0,0,1-2.39-.69,5.24,5.24,0,0,1-1.61-1.88,10,10,0,0,1-.93-2.73,18.08,18.08,0,0,1-.29-3.32c0-.07,0-.13,0-.2h-3.85c0,.17,0,.33,0,.5a10.88,10.88,0,0,0,.72,4.06A9.17,9.17,0,0,0,373.06,27a8.59,8.59,0,0,0,6.19,2.6,9.57,9.57,0,0,0,3.82-.73,8.19,8.19,0,0,0,3-2.23,9.18,9.18,0,0,0,1.77-3.2,12.24,12.24,0,0,0,.62-3.83,2.85,2.85,0,0,0,0-.29h-3.87C384.56,19.41,384.58,19.52,384.58,19.62Z"/><path class="cls-2" d="M409.09,27.08a2.32,2.32,0,0,1-.73-.77,2.07,2.07,0,0,1-.27-1.09v-6h-3.52v5.48a4.54,4.54,0,0,1-.59.81,5.51,5.51,0,0,1-.89.84,5.69,5.69,0,0,1-1.35.75,5,5,0,0,1-1.83.31,2.77,2.77,0,0,1-2.16-1,4.41,4.41,0,0,1-.9-3V19.27h-3.52v3.94a7.35,7.35,0,0,0,1.28,4.66,4.51,4.51,0,0,0,3.73,1.6,7.21,7.21,0,0,0,2.23-.27,8.71,8.71,0,0,0,1.63-.76,7.5,7.5,0,0,0,1.29-1c.37-.36.71-.69,1-1h.11v2.34l.28.26,6-.41V27.43c-.37,0-.71,0-1-.08A1.94,1.94,0,0,1,409.09,27.08Z"/><rect class="cls-2" x="418.31" y="19.2" width="1.72" height="2.74"/><path class="cls-2" d="M419.23,24.29a2.58,2.58,0,0,0-2.57,2.56,2.39,2.39,0,0,0,.76,1.79,2.57,2.57,0,0,0,3.61,0,2.39,2.39,0,0,0,.76-1.79,2.58,2.58,0,0,0-2.56-2.56Z"/></g><g id="part_1"><path class="cls-1" d="M170.74,19.62a16.52,16.52,0,0,0-.28-3,9.28,9.28,0,0,0-.84-2.65A5.18,5.18,0,0,0,168,12.13a3.94,3.94,0,0,0-2.38-.7,4.23,4.23,0,0,0-2.47.71,5.3,5.3,0,0,0-1.66,1.95,8.52,8.52,0,0,0-.85,2.61,17.35,17.35,0,0,0-.24,2.83c0,.15,0,.29,0,.43l10.27,0C170.73,19.83,170.74,19.73,170.74,19.62Z"/><path class="cls-1" d="M335.62,14.62a4.44,4.44,0,0,0-.49-1,4.32,4.32,0,0,0-.84-1,4.38,4.38,0,0,0-1.27-.78,4.26,4.26,0,0,0-1.7-.31,3.85,3.85,0,0,0-2.07.58,5.42,5.42,0,0,0-1.67,1.67,8.69,8.69,0,0,0-1.1,2.67,14.89,14.89,0,0,0-.37,3.11l9.51,0Z"/><path class="cls-1" d="M240.41,17.05a7.94,7.94,0,0,0-.94-2.51,5.21,5.21,0,0,0-1.67-1.76,4.39,4.39,0,0,0-2.47-.67,5,5,0,0,0-2.3.51,6.32,6.32,0,0,0-1.77,1.4v5.73l9.44,0A13.81,13.81,0,0,0,240.41,17.05Z"/><path class="cls-1" d="M55,14.62a4.44,4.44,0,0,0-.49-1,4.32,4.32,0,0,0-.84-1,4.38,4.38,0,0,0-1.27-.78,4.26,4.26,0,0,0-1.7-.31,3.85,3.85,0,0,0-2.07.58,5.42,5.42,0,0,0-1.67,1.67,8.69,8.69,0,0,0-1.1,2.67,15.35,15.35,0,0,0-.4,3.59c0,.11,0,.22,0,.33l9.52,0Z"/><path class="cls-1" d="M278.85,13.32a2.9,2.9,0,0,0-2.26-1.06,5.35,5.35,0,0,0-1.82.3,6.94,6.94,0,0,0-1.49.76,4.68,4.68,0,0,0-1,.94,8.67,8.67,0,0,0-.52.79v4.58l8,0V16.36A4.51,4.51,0,0,0,278.85,13.32Z"/><path class="cls-1" d="M81.93,20.28l0-.1H78.48c.7,1.7,1.27,3.12,1.7,4.24C80.74,23.09,81.32,21.71,81.93,20.28Z"/><path class="cls-1" d="M259.46,15.37a6.77,6.77,0,0,0-.58-2A3.74,3.74,0,0,0,257.7,12a3.22,3.22,0,0,0-1.93-.54,4,4,0,0,0-3.27,1.64,7.61,7.61,0,0,0-1.41,4.54h8.54A15.11,15.11,0,0,0,259.46,15.37Z"/><path class="cls-1" d="M362.6,20.28c.12-.28.25-.62.38-.92l-4.17,0c.86,2.07,1.54,3.76,2,5.05C361.41,23.09,362,21.71,362.6,20.28Z"/><path class="cls-1" d="M312.77,13.32a2.9,2.9,0,0,0-2.27-1.06,5.3,5.3,0,0,0-1.82.3,6.48,6.48,0,0,0-1.46.76,4.05,4.05,0,0,0-1,.93c-.24.33-.42.6-.54.8v4.49l8,0V16.36A4.51,4.51,0,0,0,312.77,13.32Z"/><path class="cls-1" d="M22.87,15.86A15.58,15.58,0,0,0,22.16,11a11.23,11.23,0,0,0-2.08-3.77A9.31,9.31,0,0,0,16.9,4.83,9.85,9.85,0,0,0,12.71,4L11,4,9.55,4V20.4l12.84,0A19.59,19.59,0,0,0,22.87,15.86Z"/><path class="cls-1" d="M105.83,19.62a16.57,16.57,0,0,0-.29-3A9.28,9.28,0,0,0,104.7,14a5.18,5.18,0,0,0-1.58-1.87,3.94,3.94,0,0,0-2.38-.7,4.23,4.23,0,0,0-2.47.71,5.3,5.3,0,0,0-1.66,1.95,8.8,8.8,0,0,0-.85,2.61,17.35,17.35,0,0,0-.24,2.83c0,.21,0,.41,0,.62l10.25,0C105.81,20,105.83,19.8,105.83,19.62Z"/><path class="cls-1" d="M191.43,19.62a16.52,16.52,0,0,0-.28-3,9.61,9.61,0,0,0-.84-2.65,5.28,5.28,0,0,0-1.58-1.87,4,4,0,0,0-2.39-.7,4.22,4.22,0,0,0-2.46.71,5.32,5.32,0,0,0-1.67,1.95,8.51,8.51,0,0,0-.84,2.61,17.35,17.35,0,0,0-.24,2.83c0,.13,0,.25,0,.37l10.28,0C191.42,19.79,191.43,19.71,191.43,19.62Z"/><path class="cls-2" d="M205.32,19.83h.1a.1.1,0,0,1,0,0Z"/><path class="cls-1" d="M386.21,16.65a9.28,9.28,0,0,0-.84-2.65,5.18,5.18,0,0,0-1.58-1.87,3.94,3.94,0,0,0-2.38-.7,4.23,4.23,0,0,0-2.47.71,5.3,5.3,0,0,0-1.66,1.95,8.8,8.8,0,0,0-.85,2.61,17.22,17.22,0,0,0-.23,2.63l10.28,0A16.89,16.89,0,0,0,386.21,16.65Z"/><path class="cls-2" d="M26.13,9.52a11.6,11.6,0,0,0-3.67-4.37,14.17,14.17,0,0,0-4.05-2,15.26,15.26,0,0,0-4.72-.74H2.07V3.75a9,9,0,0,1,1.16.17,4.77,4.77,0,0,1,1.26.41,1.63,1.63,0,0,1,.85.8,3,3,0,0,1,.21,1.15V20.41h4V4L11,4l1.73,0a9.85,9.85,0,0,1,4.19.88,9.31,9.31,0,0,1,3.18,2.42A11.23,11.23,0,0,1,22.16,11a15.58,15.58,0,0,1,.71,4.84,19.59,19.59,0,0,1-.48,4.5h4.38a13.64,13.64,0,0,0,.69-4.48A14.18,14.18,0,0,0,26.13,9.52Z"/><path class="cls-2" d="M36.23,10.31l-6.52.41V12a7.82,7.82,0,0,1,1.24.19,3.58,3.58,0,0,1,1,.39,2.38,2.38,0,0,1,.75.83A2.13,2.13,0,0,1,33,14.46v5.87h3.48V10.57Z"/><path class="cls-2" d="M34.43,5.68a2.2,2.2,0,0,0,1.73-.8A2.72,2.72,0,0,0,36.87,3a2.35,2.35,0,0,0-.69-1.68A2.3,2.3,0,0,0,34.43.62a2.16,2.16,0,0,0-1.66.77,2.56,2.56,0,0,0-.7,1.8,2.49,2.49,0,0,0,.7,1.73A2.21,2.21,0,0,0,34.43,5.68Z"/><path class="cls-2" d="M58.19,0,50.62.41V1.57a17.34,17.34,0,0,1,1.92.24A3.73,3.73,0,0,1,54,2.33a2.2,2.2,0,0,1,.73,1A3.89,3.89,0,0,1,55,4.75v6.44a9,9,0,0,0-2.14-.84A9.88,9.88,0,0,0,50.27,10a8.28,8.28,0,0,0-3.38.74,8.39,8.39,0,0,0-2.79,2,10,10,0,0,0-1.91,3.15,10.5,10.5,0,0,0-.69,3.8c0,.2,0,.38,0,.58l3.89,0c0-.11,0-.22,0-.33a15.35,15.35,0,0,1,.4-3.59,8.69,8.69,0,0,1,1.1-2.67A5.42,5.42,0,0,1,48.58,12a3.85,3.85,0,0,1,2.07-.58,4.26,4.26,0,0,1,1.7.31,4.38,4.38,0,0,1,1.27.78,4.32,4.32,0,0,1,.84,1,4.44,4.44,0,0,1,.49,1v5.65h3.52V.28Z"/><path class="cls-2" d="M79.83,18.84q-1.45-3.49-2.17-5.35c-.07-.19-.14-.37-.19-.54a1.38,1.38,0,0,1-.09-.38c0-.18.27-.35.79-.49a6.13,6.13,0,0,1,1.35-.24V10.53H71.08v1.24a4.93,4.93,0,0,1,1.69.61A2.7,2.7,0,0,1,74,13.72c.94,2.23,1.83,4.38,2.7,6.48h3.72C80.21,19.76,80,19.31,79.83,18.84Z"/><path class="cls-2" d="M89.41,12.34a4.8,4.8,0,0,1,1.48-.65V10.53H84v1.2a4.83,4.83,0,0,1,1.62.52c.57.28.85.58.85.9a3.13,3.13,0,0,1-.24,1.08l-.38,1c-.73,1.91-1.4,3.56-2,5h1.49c.82-2,1.7-4.05,2.66-6.28A3.42,3.42,0,0,1,89.41,12.34Z"/><path class="cls-2" d="M107.18,12.62a9.25,9.25,0,0,0-13,.14,10.09,10.09,0,0,0-2.52,7.08c0,.11,0,.21,0,.32h3.88c0-.21,0-.41,0-.62a17.35,17.35,0,0,1,.24-2.83,8.8,8.8,0,0,1,.85-2.61,5.3,5.3,0,0,1,1.66-1.95,4.23,4.23,0,0,1,2.47-.71,3.94,3.94,0,0,1,2.38.7A5.18,5.18,0,0,1,104.7,14a9.28,9.28,0,0,1,.84,2.65,16.57,16.57,0,0,1,.29,3c0,.18,0,.33,0,.5h3.86c0-.18,0-.35,0-.53A9.6,9.6,0,0,0,107.18,12.62Z"/><path class="cls-2" d="M118.1,10.57l-.28-.26-6.17.45V12c.38,0,.74.08,1.08.14a2.22,2.22,0,0,1,1.59,1.13,2.28,2.28,0,0,1,.26,1.13v5.7h3.52Z"/><path class="cls-2" d="M129.06,10.31l-6.73.45V12l1.49.09a2.11,2.11,0,0,1,1,.27,2.45,2.45,0,0,1,.73.81,2.32,2.32,0,0,1,.26,1.1v5.8h3.52V10.57Z"/><path class="cls-2" d="M149.34,0l-7,.41v1.2a11.46,11.46,0,0,1,1.44.23,3.64,3.64,0,0,1,1.23.41,2.28,2.28,0,0,1,.76.93,2.71,2.71,0,0,1,.29,1.26V20h3.49V.28Z"/><path class="cls-2" d="M170.18,12.62a9.25,9.25,0,0,0-13,.14,10.09,10.09,0,0,0-2.52,7.08c0,.05,0,.09,0,.14l3.89,0c0-.14,0-.28,0-.43a17.35,17.35,0,0,1,.24-2.83,8.8,8.8,0,0,1,.85-2.61,5.3,5.3,0,0,1,1.66-1.95,4.23,4.23,0,0,1,2.47-.71,3.94,3.94,0,0,1,2.38.7A5.18,5.18,0,0,1,167.7,14a9.28,9.28,0,0,1,.84,2.65,16.57,16.57,0,0,1,.29,3c0,.11,0,.21,0,.31h3.87c0-.11,0-.22,0-.34A9.6,9.6,0,0,0,170.18,12.62Z"/><path class="cls-2" d="M190.87,12.62a9.25,9.25,0,0,0-13,.14,10.09,10.09,0,0,0-2.52,7.08v.08l3.89,0c0-.12,0-.24,0-.37a17.35,17.35,0,0,1,.24-2.83,8.52,8.52,0,0,1,.85-2.61A5.21,5.21,0,0,1,182,12.14a4.23,4.23,0,0,1,2.47-.71,4,4,0,0,1,2.38.7A5.18,5.18,0,0,1,188.39,14a9.61,9.61,0,0,1,.84,2.65,16.52,16.52,0,0,1,.28,3c0,.09,0,.17,0,.25h3.87c0-.09,0-.18,0-.28A9.6,9.6,0,0,0,190.87,12.62Z"/><path class="cls-2" d="M208.29,15.35a17.44,17.44,0,0,1,1.27-1.22,11.77,11.77,0,0,1,1.85-1.27,13.67,13.67,0,0,1,2.78-1.17V10.53h-8.13v1.2a9.88,9.88,0,0,1,1.57.34q.81.24.81.75a1,1,0,0,1-.17.44,3.85,3.85,0,0,1-.33.44c-.78.88-1.73,1.87-2.86,3l-3.16,3.14V.28L201.66,0l-6.84.41v1.2l1.34.13a2.56,2.56,0,0,1,1.22.4,2.18,2.18,0,0,1,.76.92,3,3,0,0,1,.29,1.31V19.85l5,0,.06,0a.1.1,0,0,0,0,0h4.25c-.62-.82-1.22-1.59-1.77-2.27C207,16.64,207.74,15.91,208.29,15.35Z"/><path class="cls-2" d="M236.64,10a6.61,6.61,0,0,0-2.71.61,8.17,8.17,0,0,0-2.54,1.86l-.13,0V.28L231,0l-6.78.41v1.2c.33,0,.78.08,1.34.16a2.87,2.87,0,0,1,1.19.37,2,2,0,0,1,.74.92,3.09,3.09,0,0,1,.29,1.27V19.76h3.48V14a6.32,6.32,0,0,1,1.77-1.4,5,5,0,0,1,2.3-.51,4.39,4.39,0,0,1,2.47.67,5.21,5.21,0,0,1,1.67,1.76,7.94,7.94,0,0,1,.94,2.51,13.81,13.81,0,0,1,.29,2.68l3.92,0a10.5,10.5,0,0,0-2.28-7A7.16,7.16,0,0,0,236.64,10Z"/><path class="cls-2" d="M263.33,19.19V18a10.54,10.54,0,0,0-.43-3.09,7,7,0,0,0-1.28-2.47,6.22,6.22,0,0,0-2.34-1.75,8.64,8.64,0,0,0-3.47-.63,7.7,7.7,0,0,0-3.55.81A8.1,8.1,0,0,0,249.61,13a9.8,9.8,0,0,0-1.68,3.12,11.2,11.2,0,0,0-.57,3.53s0,.06,0,.09h3.74c0-.18,0-.33,0-.51ZM252.5,13.07a4,4,0,0,1,3.27-1.64,3.22,3.22,0,0,1,1.93.54,3.74,3.74,0,0,1,1.18,1.4,6.77,6.77,0,0,1,.58,2,15.11,15.11,0,0,1,.17,2.24h-8.54A7.61,7.61,0,0,1,252.5,13.07Z"/><path class="cls-2" d="M282,11.59A4.74,4.74,0,0,0,278.16,10a7.3,7.3,0,0,0-2.17.3,6.82,6.82,0,0,0-1.68.74,9,9,0,0,0-1.33,1c-.34.32-.72.68-1.13,1.09h-.07V.28L271.51,0l-6.84.41v1.2c.35,0,.81.07,1.38.14a2.71,2.71,0,0,1,1.19.35,2.2,2.2,0,0,1,.76,1,3.09,3.09,0,0,1,.29,1.27V19.65l3.49,0V15.05a8.67,8.67,0,0,1,.52-.79,4.68,4.68,0,0,1,1-.94,6.94,6.94,0,0,1,1.49-.76,5.35,5.35,0,0,1,1.82-.3,2.9,2.9,0,0,1,2.26,1.06,4.51,4.51,0,0,1,.93,3v3.25h3.52V16.1A6.76,6.76,0,0,0,282,11.59Z"/><path class="cls-2" d="M294.23,10.31l-6.53.41V12a7.66,7.66,0,0,1,1.24.19,3.47,3.47,0,0,1,1,.39,2.32,2.32,0,0,1,.76.83,2.23,2.23,0,0,1,.27,1.09v5.12h3.49v-9Z"/><path class="cls-2" d="M292.43,5.68a2.23,2.23,0,0,0,1.73-.8,2.71,2.71,0,0,0,.7-1.86,2.34,2.34,0,0,0-.68-1.68,2.31,2.31,0,0,0-1.75-.72,2.16,2.16,0,0,0-1.66.77,2.56,2.56,0,0,0-.7,1.8,2.49,2.49,0,0,0,.7,1.73A2.21,2.21,0,0,0,292.43,5.68Z"/><path class="cls-2" d="M315.93,11.68A4.67,4.67,0,0,0,312,10a7.11,7.11,0,0,0-2.15.3,6.28,6.28,0,0,0-1.65.74,10.5,10.5,0,0,0-1.28,1c-.45.41-.82.77-1.12,1.07h-.1v-2.6l-.26-.26-6.14.41V12a6.53,6.53,0,0,1,1,.14,2.39,2.39,0,0,1,.85.32,2.45,2.45,0,0,1,.76.87,2.58,2.58,0,0,1,.27,1.17v5.09h3.48V15.05c.12-.2.3-.47.54-.8a4.05,4.05,0,0,1,1-.93,6.48,6.48,0,0,1,1.46-.76,5.3,5.3,0,0,1,1.82-.3,2.9,2.9,0,0,1,2.27,1.06,4.51,4.51,0,0,1,.93,3v3.15h3.52V16.1A7,7,0,0,0,315.93,11.68Z"/><path class="cls-2" d="M338.86,0l-7.57.41V1.57a17.34,17.34,0,0,1,1.92.24,3.67,3.67,0,0,1,1.42.52,2.2,2.2,0,0,1,.73,1,3.89,3.89,0,0,1,.26,1.44v6.44a9,9,0,0,0-2.14-.84,9.88,9.88,0,0,0-2.54-.32,8.28,8.28,0,0,0-3.38.74,8.39,8.39,0,0,0-2.79,2,10.23,10.23,0,0,0-2.58,6.71h3.92a14.89,14.89,0,0,1,.37-3.11,8.69,8.69,0,0,1,1.1-2.67A5.42,5.42,0,0,1,329.25,12a3.85,3.85,0,0,1,2.07-.58,4.26,4.26,0,0,1,1.7.31,4.38,4.38,0,0,1,1.27.78,4.32,4.32,0,0,1,.84,1,4.44,4.44,0,0,1,.49,1v4.83h3.52V.28Z"/><path class="cls-2" d="M360.5,18.84q-1.46-3.49-2.16-5.35a5.21,5.21,0,0,1-.2-.54,1.38,1.38,0,0,1-.09-.38c0-.18.27-.35.79-.49a6.13,6.13,0,0,1,1.35-.24V10.53h-8.44v1.24a4.93,4.93,0,0,1,1.69.61,2.7,2.7,0,0,1,1.2,1.34c.82,1.94,1.6,3.82,2.36,5.67h3.73Z"/><path class="cls-2" d="M370.08,12.34a4.8,4.8,0,0,1,1.48-.65V10.53H364.7v1.2a4.83,4.83,0,0,1,1.62.52c.57.28.85.58.85.9a3.13,3.13,0,0,1-.24,1.08l-.38,1c-.6,1.57-1.14,2.92-1.66,4.15h1.5c.73-1.73,1.5-3.54,2.32-5.46A3.42,3.42,0,0,1,370.08,12.34Z"/><path class="cls-2" d="M381.45,10a8.55,8.55,0,0,0-6.62,2.75,10,10,0,0,0-2.48,6.58h3.85a17.22,17.22,0,0,1,.23-2.63,8.8,8.8,0,0,1,.85-2.61,5.3,5.3,0,0,1,1.66-1.95,4.23,4.23,0,0,1,2.47-.71,3.94,3.94,0,0,1,2.38.7A5.18,5.18,0,0,1,385.37,14a9.28,9.28,0,0,1,.84,2.65,16.89,16.89,0,0,1,.27,2.65h3.87a9.47,9.47,0,0,0-2.5-6.67A8.52,8.52,0,0,0,381.45,10Z"/><path class="cls-2" d="M410,10.57l-.28-.26-6.73.45V12l1.49.09a2.11,2.11,0,0,1,1,.27,2.45,2.45,0,0,1,.73.81,2.32,2.32,0,0,1,.26,1.1v5H410Z"/><path class="cls-2" d="M398.77,10.57l-.28-.26-6.17.45V12c.38,0,.74.08,1.08.14A2.22,2.22,0,0,1,395,13.26a2.28,2.28,0,0,1,.26,1.13v4.89h3.52Z"/><path class="cls-2" d="M422,17.8A10,10,0,0,0,428,15.16a7.64,7.64,0,0,0,2.21-5.67,8.53,8.53,0,0,0-.49-2.95,6.93,6.93,0,0,0-1.53-2.45,7.18,7.18,0,0,0-2.53-1.68,9.25,9.25,0,0,0-3.52-.63,8.21,8.21,0,0,0-2.67.43,6.68,6.68,0,0,0-2,1,4.89,4.89,0,0,0-1.29,1.4,3,3,0,0,0,0,3.08,1.57,1.57,0,0,0,1.44.69,2.43,2.43,0,0,0,1.74-.57,1.71,1.71,0,0,0,.6-1.26,7.33,7.33,0,0,0-.16-1.3c-.1-.56-.19-1-.25-1.29a4.31,4.31,0,0,1,.95-.48A4.08,4.08,0,0,1,422,3.26a4.16,4.16,0,0,1,3.47,1.5,6.78,6.78,0,0,1,1.19,4.32,5.92,5.92,0,0,1-.53,2.75,5,5,0,0,1-1.49,1.68,6.17,6.17,0,0,1-2.08,1,14.62,14.62,0,0,1-2.34.38V19.2H422Z"/></g></g></g></svg>
