<svg xmlns="http://www.w3.org/2000/svg" viewBox="0 0 134.45 20.47"><defs><style>.cls-1{fill:#005afb;}.cls-2{fill:none;}</style></defs><title>email</title><g id="Layer_2" data-name="Layer 2"><g id="email"><g id="part_1"><path class="cls-1" d="M43.21,18.33c-.08.09-.19.18-.28.27h.35v-.26Z"/><path class="cls-2" d="M99,9.22a1.91,1.91,0,0,0-1.53-.73,3.59,3.59,0,0,0-1.2.19,3.83,3.83,0,0,0-1,.54,3.37,3.37,0,0,0-.63.62,5.13,5.13,0,0,0-.38.55v6.09l5.38-.21v-5A3.15,3.15,0,0,0,99,9.22Z"/><path class="cls-2" d="M91.18,9.22a1.93,1.93,0,0,0-1.54-.73,3.36,3.36,0,0,0-1.2.2,3.79,3.79,0,0,0-1,.55,2.94,2.94,0,0,0-.63.64l-.39.54v6.37l5.41-.21V11.3A3.15,3.15,0,0,0,91.18,9.22Z"/><path class="cls-2" d="M72.66,18.63a1.89,1.89,0,0,0,.92.32,14.11,14.11,0,0,0,1.66.07h1.13c.46,0,.86,0,1.18-.05a8.08,8.08,0,0,0,1-.19,1.54,1.54,0,0,0,.75-.37,6.88,6.88,0,0,0,.91-1.3l-8.09.33c0,.17,0,.33.07.47A1.21,1.21,0,0,0,72.66,18.63Z"/><path class="cls-2" d="M26.7,17.92a8.42,8.42,0,0,0,.95-4.34,11.55,11.55,0,0,0-.2-2.05,6.53,6.53,0,0,0-.58-1.84,3.65,3.65,0,0,0-1.1-1.29,2.77,2.77,0,0,0-1.65-.48,2.94,2.94,0,0,0-1.71.49,3.65,3.65,0,0,0-1.15,1.35,6,6,0,0,0-.58,1.8,12.17,12.17,0,0,0-.17,2,12.63,12.63,0,0,0,.2,2.3,6.58,6.58,0,0,0,.65,1.89A3.56,3.56,0,0,0,22.47,19a2.46,2.46,0,0,0,.65.32l2.12-.09A3.21,3.21,0,0,0,26.7,17.92Z"/><path class="cls-1" d="M41.3,18.77a1.28,1.28,0,0,0,.2-.11l-2.36.1A1.9,1.9,0,0,0,40,19,3.38,3.38,0,0,0,41.3,18.77Z"/><path class="cls-1" d="M27,19.24l-2.11.09a3.42,3.42,0,0,0,1,.16A2.74,2.74,0,0,0,27,19.24Z"/><path class="cls-2" d="M110.56,18.49A2.08,2.08,0,0,0,112,19a3,3,0,0,0,1.62-.45,4.46,4.46,0,0,0,1.18-1.06l0-1.75-4.64.18a2.81,2.81,0,0,0-.19,1A2,2,0,0,0,110.56,18.49Z"/><path class="cls-2" d="M113.1,13c-.74.22-1.38.43-1.93.64a7,7,0,0,0-1.55.78,3.48,3.48,0,0,0-1,1,2.57,2.57,0,0,0-.2.45l4.65-.18Z"/><path class="cls-1" d="M11.84,19a7.84,7.84,0,0,1-1-.25,1.31,1.31,0,0,1-.64-.55,1.63,1.63,0,0,1-.19-.82V13.87a5.06,5.06,0,0,1,.16-1.47,6.77,6.77,0,0,1,.63-1.33C11.69,9.56,12.4,8.32,13,7.34s1.2-1.94,1.87-2.89a7.69,7.69,0,0,1,.7-.88,5.17,5.17,0,0,1,.69-.48,2.83,2.83,0,0,1,.69-.32,3.08,3.08,0,0,1,.7-.18V1.67h-6.4v.92l.81.08a4,4,0,0,1,.82.13,1.71,1.71,0,0,1,.59.29.61.61,0,0,1,.22.48,8.3,8.3,0,0,1-1.07,2.19C11.87,7,10.84,8.69,9.48,10.88l-1.65-3C7.4,7.12,7,6.36,6.58,5.59c-.14-.27-.28-.55-.44-.84L5.74,4c-.09-.2-.17-.36-.22-.49a1,1,0,0,1-.08-.27c0-.19.18-.34.55-.44a7.91,7.91,0,0,1,1.87-.19V1.67H0v.92a5.52,5.52,0,0,1,.79.14A2.6,2.6,0,0,1,1.53,3a4.05,4.05,0,0,1,.76.66A8.45,8.45,0,0,1,3.05,4.8c.47.83,1,1.83,1.65,3s1.2,2.25,1.72,3.25q.36.67.6,1.23a2.35,2.35,0,0,1,.26.76v4.48a1.78,1.78,0,0,1-.18.83,1.2,1.2,0,0,1-.64.53,4.62,4.62,0,0,1-1,.19l-1.09.09v.92L13,19.73v-.57A6.84,6.84,0,0,1,11.84,19Z"/><path class="cls-1" d="M29.9,16.21a8.31,8.31,0,0,0,.43-2.65,6.63,6.63,0,0,0-1.75-4.82,5.87,5.87,0,0,0-4.43-1.81,5.9,5.9,0,0,0-4.58,1.91,7,7,0,0,0-1.75,4.9,7.6,7.6,0,0,0,.5,2.81,6.64,6.64,0,0,0,1.35,2.12,5.85,5.85,0,0,0,.9.76l2.55-.1a2.46,2.46,0,0,1-.65-.32,3.56,3.56,0,0,1-1.11-1.3,6.58,6.58,0,0,1-.65-1.89,12.63,12.63,0,0,1-.2-2.3,12.17,12.17,0,0,1,.17-2,6,6,0,0,1,.58-1.8,3.65,3.65,0,0,1,1.15-1.35,2.94,2.94,0,0,1,1.71-.49,2.77,2.77,0,0,1,1.65.48,3.65,3.65,0,0,1,1.1,1.29,6.53,6.53,0,0,1,.58,1.84,11.55,11.55,0,0,1,.2,2.05,8.42,8.42,0,0,1-.95,4.34,3.21,3.21,0,0,1-1.46,1.32l2.68-.11a5.62,5.62,0,0,0,.76-.71A6.14,6.14,0,0,0,29.9,16.21Z"/><path class="cls-1" d="M36.77,18.29a3,3,0,0,1-.63-2.09V7.32L36,7.14l-4.27.31V8.3a5.51,5.51,0,0,1,.74.1,1.52,1.52,0,0,1,.59.23,1.6,1.6,0,0,1,.52.55,1.67,1.67,0,0,1,.17.78v6.12a5.53,5.53,0,0,0,.63,2.8l3-.12A2,2,0,0,1,36.77,18.29Z"/><path class="cls-1" d="M43.93,17.46V7.32l-.2-.18-4.66.31V8.3l1,.06a1.49,1.49,0,0,1,.69.19,1.81,1.81,0,0,1,.51.56,1.58,1.58,0,0,1,.18.76v7.24a3.08,3.08,0,0,1-.41.57,5,5,0,0,1-.62.58,3.57,3.57,0,0,1-.73.4l1.43-.06.28-.27h.07v.26l2.85-.11a1.52,1.52,0,0,1-.25-.26A1.5,1.5,0,0,1,43.93,17.46Z"/><path class="cls-1" d="M51.75,10.33a4,4,0,0,1,1.39-1.4,2.86,2.86,0,0,1,1.42-.5c0,.16-.05.32-.08.47a2.78,2.78,0,0,0,0,.52,1.14,1.14,0,0,0,.39.83,1.51,1.51,0,0,0,1.11.38,1.11,1.11,0,0,0,1-.52,2.18,2.18,0,0,0,.32-1.17,2,2,0,0,0-.51-1.43A1.79,1.79,0,0,0,55.41,7a3.83,3.83,0,0,0-1.81.54,6.07,6.07,0,0,0-1.79,1.6h-.06V7.32l-.18-.18-4.26.28v.86a5.36,5.36,0,0,1,.73.1,1.67,1.67,0,0,1,.58.22,1.6,1.6,0,0,1,.53.62,1.91,1.91,0,0,1,.19.8v7.89a1.43,1.43,0,0,1-.09.37l2.59-.1a1.65,1.65,0,0,1-.09-.41Z"/><path class="cls-1" d="M81.4,14.66a12.1,12.1,0,0,1-.84,1.86c-.11.23-.23.4-.34.59l2-.08.15-2.37Z"/><path class="cls-1" d="M70.31,16.6V11.08h2.08a4.53,4.53,0,0,1,1.35.16,1.81,1.81,0,0,1,.92.66,3.34,3.34,0,0,1,.47,1,5.68,5.68,0,0,1,.28,1.32h1V7h-1a6.31,6.31,0,0,1-.26,1.18,3.52,3.52,0,0,1-.49,1,2.1,2.1,0,0,1-.81.63,4.31,4.31,0,0,1-1.46.19H70.31V2.7h2.9c.47,0,.9,0,1.27,0s.69,0,1,.07A2.8,2.8,0,0,1,77.08,4,6,6,0,0,1,78.2,6.11h1V1.67H64.93v.92a7.07,7.07,0,0,1,.94.16,4.75,4.75,0,0,1,.94.3,1.15,1.15,0,0,1,.6.54,2,2,0,0,1,.14.76v13.2l2.81-.11A6.9,6.9,0,0,1,70.31,16.6Z"/><path class="cls-1" d="M101.11,8a3.25,3.25,0,0,0-2.56-1.07,4.85,4.85,0,0,0-1.48.21,4.3,4.3,0,0,0-1.16.54,6.29,6.29,0,0,0-.94.74l-.83.79a3.72,3.72,0,0,0-1.28-1.61,3.46,3.46,0,0,0-2.14-.67,4.93,4.93,0,0,0-1.47.21,4,4,0,0,0-1.14.52,7,7,0,0,0-.87.71l-.79.77h-.09V7.32l-.18-.18-4.28.28v.86a4.52,4.52,0,0,1,.75.12,2.49,2.49,0,0,1,.61.25,1.79,1.79,0,0,1,.53.57A1.53,1.53,0,0,1,84,10v6.93l2.42-.1V10.42l.39-.54a2.94,2.94,0,0,1,.63-.64,3.79,3.79,0,0,1,1-.55,3.36,3.36,0,0,1,1.2-.2,1.93,1.93,0,0,1,1.54.73,3.15,3.15,0,0,1,.62,2.08v5.28l2.44-.1V10.39a5.13,5.13,0,0,1,.38-.55,3.37,3.37,0,0,1,.63-.62,3.83,3.83,0,0,1,1-.54,3.59,3.59,0,0,1,1.2-.19A1.91,1.91,0,0,1,99,9.22a3.15,3.15,0,0,1,.62,2.08v5l2.44-.1v-4.9A4.77,4.77,0,0,0,101.11,8Z"/><path class="cls-1" d="M115.51,11.14A5.57,5.57,0,0,0,115.17,9a3.06,3.06,0,0,0-1-1.3,3.46,3.46,0,0,0-1.47-.64,10.53,10.53,0,0,0-1.9-.15,5.46,5.46,0,0,0-1.62.25,6.06,6.06,0,0,0-1.42.62,4.13,4.13,0,0,0-1.09,1,1.83,1.83,0,0,0-.12,2.17,1,1,0,0,0,.95.46,1.61,1.61,0,0,0,1.14-.37,1.13,1.13,0,0,0,.41-.83,3.65,3.65,0,0,0-.13-.94,3.56,3.56,0,0,1-.12-.76,1.94,1.94,0,0,1,.72-.42,2.88,2.88,0,0,1,1.11-.2,2.16,2.16,0,0,1,1.34.35,2.67,2.67,0,0,1,.74.84,2.87,2.87,0,0,1,.3.91,4.76,4.76,0,0,1,.07.65v1.28a16.27,16.27,0,0,1-2.4.93c-1.19.4-2,.67-2.37.82a7.61,7.61,0,0,0-1,.49,3,3,0,0,0-.86.69,3.28,3.28,0,0,0-.62,1.05l0,.13,2.61-.11a2.57,2.57,0,0,1,.2-.45,3.48,3.48,0,0,1,1-1,7,7,0,0,1,1.55-.78c.55-.21,1.19-.42,1.93-.64l0,2.73,2.4-.1c0-.41,0-.81,0-1.2C115.5,13.48,115.51,12.38,115.51,11.14Z"/><path class="cls-1" d="M123,7.14l-4.52.28v.86a6,6,0,0,1,.86.13,2.64,2.64,0,0,1,.71.27,1.72,1.72,0,0,1,.53.58,1.61,1.61,0,0,1,.18.76v5.4l2.42-.1v-8Z"/><path class="cls-1" d="M121.79,3.93a1.52,1.52,0,0,0,1.2-.55,1.92,1.92,0,0,0,.49-1.29A1.62,1.62,0,0,0,123,.93a1.6,1.6,0,0,0-1.21-.5,1.54,1.54,0,0,0-1.15.53,1.8,1.8,0,0,0-.48,1.25,1.75,1.75,0,0,0,.48,1.2A1.53,1.53,0,0,0,121.79,3.93Z"/><path class="cls-1" d="M130.77.2l-.18-.2-4.82.29v.83a7.38,7.38,0,0,1,1,.15,2.61,2.61,0,0,1,.86.29,1.67,1.67,0,0,1,.52.64,1.87,1.87,0,0,1,.2.88v12l2.42-.1Z"/></g><g id="part_2"><polygon class="cls-1" points="6.13 20.08 14.74 20.08 14.74 19.73 6.13 20.08 6.13 20.08"/><path class="cls-1" d="M25.89,19.49a3.42,3.42,0,0,1-1-.16l-2.56.1A5.18,5.18,0,0,0,23.4,20a5.94,5.94,0,0,0,2.33.46,6.84,6.84,0,0,0,2.65-.5,5.72,5.72,0,0,0,1.31-.84L27,19.24A2.74,2.74,0,0,1,25.89,19.49Z"/><path class="cls-1" d="M43.28,20l.2.18,4.18-.28V19c-.26,0-.5,0-.72,0a1.49,1.49,0,0,1-.55-.19,1.31,1.31,0,0,1-.26-.27l-2.85.11Z"/><path class="cls-1" d="M50.93,18.66a.88.88,0,0,1-.54.41,2.54,2.54,0,0,1-.55.11l-.61.05v.85H56v-.85l-.89-.09a3.48,3.48,0,0,1-.83-.2,1,1,0,0,1-.55-.43.84.84,0,0,1-.08-.33l-2.6.1A1.33,1.33,0,0,1,50.93,18.66Z"/><path class="cls-1" d="M79.31,18.41a1.54,1.54,0,0,1-.75.37,8.08,8.08,0,0,1-1,.19c-.32,0-.72.05-1.18.05H75.24A14.11,14.11,0,0,1,73.58,19a1.89,1.89,0,0,1-.92-.32,1.21,1.21,0,0,1-.46-.72c0-.14,0-.3-.07-.47l-2.81.11v0a1.68,1.68,0,0,1-.16.79,1.18,1.18,0,0,1-.58.51,3.32,3.32,0,0,1-.84.17c-.43.06-.78.09-1,.11v.92H82l.2-3-2,.08A6.88,6.88,0,0,1,79.31,18.41Z"/><path class="cls-1" d="M93.57,17.9a1.43,1.43,0,0,1-.18.76.88.88,0,0,1-.54.41,2.4,2.4,0,0,1-.51.11l-.58.05v.85h6.1v-.85a3.93,3.93,0,0,1-.63-.09c-.16,0-.34-.1-.54-.17a1,1,0,0,1-.53-.45,1.64,1.64,0,0,1-.15-.75V16.48l-2.44.1Z"/><path class="cls-1" d="M101.39,17.9a1.53,1.53,0,0,1-.17.76.94.94,0,0,1-.54.41,2.71,2.71,0,0,1-.54.11l-.6.05v.85h6.22v-.85a5.37,5.37,0,0,1-.65-.09,4.36,4.36,0,0,1-.59-.17,1.06,1.06,0,0,1-.54-.45,1.64,1.64,0,0,1-.15-.75v-1.6l-2.44.1Z"/><path class="cls-1" d="M85.75,17.91a1.39,1.39,0,0,1-.18.75.94.94,0,0,1-.54.41,2.54,2.54,0,0,1-.55.11l-.62.05v.85h6.22v-.85a5.19,5.19,0,0,1-.64-.09,3.14,3.14,0,0,1-.56-.2,1.1,1.1,0,0,1-.54-.45,1.42,1.42,0,0,1-.18-.74v-1l-2.41.1Z"/><path class="cls-1" d="M114.79,17.48a4.46,4.46,0,0,1-1.18,1.06A3,3,0,0,1,112,19a2.08,2.08,0,0,1-1.43-.5A2,2,0,0,1,110,16.9a2.81,2.81,0,0,1,.19-1l-2.62.11a4,4,0,0,0-.18,1.2,3,3,0,0,0,.93,2.31,3.34,3.34,0,0,0,2.37.88,5.07,5.07,0,0,0,2.33-.5,6.23,6.23,0,0,0,1.81-1.42h.08a2.16,2.16,0,0,0,.77,1.38,2.57,2.57,0,0,0,1.61.47,3.77,3.77,0,0,0,1-.13c.3-.09.66-.21,1.07-.36V19h-.87a1.42,1.42,0,0,1-.61-.13,1.48,1.48,0,0,1-.54-.51,1.55,1.55,0,0,1-.18-.8c0-.68,0-1.32,0-1.94l-2.4.1Z"/><path class="cls-1" d="M122.58,17.91a1.39,1.39,0,0,1-.18.75.94.94,0,0,1-.54.41,2.54,2.54,0,0,1-.55.11l-.62.05v.85h6.18v-.85a3.53,3.53,0,0,1-.61-.1,4.5,4.5,0,0,1-.55-.19,1,1,0,0,1-.55-.44,1.54,1.54,0,0,1-.17-.75V15.32l-2.41.1Z"/><path class="cls-1" d="M133.25,18.94a1,1,0,0,1-.54-.45,1.38,1.38,0,0,1-.17-.74V15l-2.41.1V17.9a1.42,1.42,0,0,1-.19.76.94.94,0,0,1-.54.41,3.17,3.17,0,0,1-.56.1l-.63.06v.85h6.24v-.85a4.76,4.76,0,0,1-.63-.09A3.23,3.23,0,0,1,133.25,18.94Z"/><path class="cls-1" d="M41.3,18.77A3.38,3.38,0,0,1,40,19a1.9,1.9,0,0,1-.89-.23l-3,.12a3.66,3.66,0,0,0,.26.42A3.11,3.11,0,0,0,39,20.41a5.18,5.18,0,0,0,1.54-.18,5.71,5.71,0,0,0,1.12-.54,5.23,5.23,0,0,0,.9-.66c.16-.15.28-.29.42-.43l-1.43.06A1.28,1.28,0,0,1,41.3,18.77Z"/></g></g></g></svg>
