<svg xmlns="http://www.w3.org/2000/svg" viewBox="0 0 343.39 82.68"><defs><style>.cls-1{fill:#2c2c2c;}</style></defs><title>password</title><g id="Layer_2" data-name="Layer 2"><g id="password"><g id="alice_123"><path class="cls-1" d="M4.89,81.23C5.13,72.4,3.08,63.66,3,54.83c0-4.54.3-9.27,2.23-13.44,1-2.28,4.71-7.94,8-7.41,5.55.9-1,25.64-8.75,19.35C3,52.12.83,54.23,2.33,55.45c9.54,7.76,15.61-9.8,15.76-16.74.07-3.63-1.16-8.3-5.7-7.64-7.16,1-11,10-11.91,16.14-1.71,11.39,1.72,22.64,1.41,34,0,1.93,3,1.93,3,0Z"/><path class="cls-1" d="M34.07,35.74c-5.63-2-10.43,1.39-12.6,6.6-1.3,3.13-2.76,10.73.69,13.2,5.49,3.94,12.25-11.67,13.44-15l-2.74.35q2.78,5.81,5.71,11.54c.88,1.72,3.47.21,2.59-1.51q-2.94-5.73-5.71-11.54c-.6-1.26-2.35-.75-2.74.36a39.31,39.31,0,0,1-3.35,6.83c-1.08,1.83-2.67,5.06-4.64,6.06-1.07.55-.76.66-1.21-.53-.66-1.73-.4-4.4,0-6.16,1-4.77,4.53-9.16,9.78-7.27,1.82.66,2.6-2.24.8-2.89Z"/><path class="cls-1" d="M55,32.93c-4.33,0-6.09,3.37-7.64,7a1.58,1.58,0,0,0,.54,2.06c2.24,1.65,4.91,3.69,6.07,6.29.3.67.92,2.12.21,2.76-1,.9-3.14.29-4.13-.24a24.22,24.22,0,0,0-4.28-1.94c-1.86-.55-2.65,2.34-.8,2.9,2.74.82,5.39,3.49,8.41,3.14a4.78,4.78,0,0,0,4-4.24c.62-4.81-4.59-8.77-8-11.26l.54,2c1-2.34,2-5.44,5-5.47a1.5,1.5,0,0,0,0-3Z"/><path class="cls-1" d="M79,39.94a69.46,69.46,0,0,0,1.55,11.31,1.54,1.54,0,0,0,1.84,1c3.68-.51,4.88-3.9,6.54-6.76l-2.06.54c3.9,2.3,9.33,5.21,13,1s1-9.23-3.51-11.14c-1.75-.75-3.28,1.83-1.51,2.59A6.41,6.41,0,0,1,98,40.82a3.53,3.53,0,0,1-3.09,5.35c-2.35.09-4.63-1.53-6.57-2.68A1.53,1.53,0,0,0,86.3,44c-1.19,2.06-2,5-4.74,5.38l1.85,1A65.13,65.13,0,0,1,82,39.94c-.16-1.91-3.17-1.93-3,0Z"/><path class="cls-1" d="M102.36,40.63c-.14,2.42-.07,5.57,1.85,7.37,1.52,1.43,3.63,1.29,5.4.44,3.19-1.53,6.38-5.89,4.74-9.5-1.19-2.61-4.48-3.19-7-3.25-1.93,0-1.93,3,0,3,.34,0,.67,0,1,.05l.46,0h-.08l.29,0a11.05,11.05,0,0,1,1.5.4c.25.09-.28-.15,0,0l.27.14.25.15c.06,0,.35.26.14.09s.16.15.24.23.12.16.18.22c-.18-.16-.15-.24,0,0s.24.5.13.24,0,0,0,.07a2.33,2.33,0,0,0,.07.25c0,.06.07.37,0,.06s0,0,0,.07v.51c0,.27,0,.08,0-.09a2,2,0,0,0,0,.24,4.42,4.42,0,0,1-.14.52c0,.17-.13.33-.17.49,0-.19.13-.28,0,0l-.13.28a7.38,7.38,0,0,1-.59,1c-.06.08-.12.15-.17.23s.23-.27,0,0-.26.31-.4.46a9,9,0,0,1-.84.79c-.06.06-.12.1-.18.15.35-.3.12-.08,0,0s-.31.22-.48.32-.3.17-.45.25l-.23.11c-.28.15.32-.1,0,0s-.62.17-.94.25c.42-.1.13,0-.11,0a1.48,1.48,0,0,0-.21,0c-.28,0,.36.1.1,0a1.67,1.67,0,0,0-.41-.11s.33.18.1,0a1.48,1.48,0,0,0-.21-.13c-.21-.11-.09-.12.05.05-.06-.07-.14-.11-.2-.18l-.18-.2c.19.18.13.2,0,0l-.31-.56c-.1-.19.1.3,0-.06l-.12-.36a7.33,7.33,0,0,1-.19-.81l0-.23c0-.29,0,.19,0,0s0-.33,0-.5a19.7,19.7,0,0,1,0-2.43,1.5,1.5,0,0,0-3,0Z"/><path class="cls-1" d="M120.26,42v4a1.5,1.5,0,0,0,3,0c.06-3.09.07-7,2.45-9.33s6.38-2.9,9.52-3.51c1.89-.38,1.09-3.27-.8-2.9-3.84.76-8.36,1.58-11.15,4.6s-2.94,7.34-3,11.14h3V42a1.5,1.5,0,0,0-3,0Z"/><path class="cls-1" d="M148.53,31.07A12.11,12.11,0,0,0,141.76,43c.18,1.64.89,3.47,2.61,4,2.11.65,4-1.1,5.29-2.55s-.85-3.58-2.13-2.12c-.3.35-1.64,2.07-2.3,1.8s-.54-2.26-.5-2.77A9.19,9.19,0,0,1,150,33.66c1.76-.79.23-3.38-1.51-2.59Z"/><path class="cls-1" d="M148.47,4.84c-.65,13.79,4.91,26.86,4.82,40.6a1.5,1.5,0,0,0,3,0c.09-13.75-5.47-26.82-4.82-40.6.09-1.93-2.91-1.92-3,0Z"/><path class="cls-1" d="M167.47,28.86a2.4,2.4,0,0,0-1.74,3.22,1.5,1.5,0,1,0,2.89-.8c0-.05-.15-.39-.05-.2s0,.1,0,0,0-.08,0,.13a1.22,1.22,0,0,1-.4.52c-.21.15-.1,0,.09,0a1.5,1.5,0,1,0-.79-2.89Z"/><path class="cls-1" d="M166.49,45.57a1.5,1.5,0,0,0,0-3,1.5,1.5,0,0,0,0,3Z"/><path class="cls-1" d="M216.8,24.4c-.83-5.19-6.08-2.85-8.62-.47-3.78,3.52-6.76,9.15-4.77,14.33,1.65,4.29,5.62,3.3,8.37.65,3.34-3.22,6.4-8.49,6.41-13.23l-2.94.4c1.35,3.94,2.13,7.8,5.23,10.79,1.39,1.34,3.52-.78,2.12-2.12-2.67-2.58-3.3-6.09-4.46-9.47a1.51,1.51,0,0,0-2.95.4c0,2.41-5.18,14.8-8.54,12.36-2.64-1.93.1-7.5,1.34-9.3.72-1,5.42-6.63,5.91-3.54.31,1.9,3.2,1.09,2.9-.8Z"/><path class="cls-1" d="M227.67,1.8c4.12,10.29,2.21,21.7,4.81,32.34.46,1.88,3.36,1.08,2.9-.79-2.61-10.66-.68-22-4.82-32.35-.71-1.77-3.61-1-2.89.8Z"/><path class="cls-1" d="M241.43,17.63c.78,4.79.47,9.67,1.38,14.45.36,1.89,3.25,1.09,2.89-.8-.91-4.77-.6-9.66-1.38-14.45-.31-1.9-3.2-1.1-2.89.8Z"/><path class="cls-1" d="M242.19,7a1.5,1.5,0,0,0,0-3,1.5,1.5,0,0,0,0,3Z"/><path class="cls-1" d="M263.12,15.09c-6.54,1.08-9,9-7.66,14.71.59,2.54,2.14,5.06,4.75,5.87,3.66,1.13,7.25-1.37,9.88-3.62,1.47-1.25-.66-3.37-2.12-2.12-1.75,1.49-4.72,3.88-7.22,2.75-1.64-.75-2.31-2.83-2.55-4.47-.59-4.13,1.1-9.47,5.72-10.22,1.9-.32,1.09-3.21-.8-2.9Z"/><path class="cls-1" d="M275.29,28.85c2.7-1.78,5.09-6.4,2.06-9.08-3.18-2.81-7.33.89-8.53,3.87-1.39,3.46-2.12,9.23.81,12.17,3.87,3.89,10.51,1.28,14.94.07a1.5,1.5,0,0,0-.8-2.89C281,33.76,278,34.93,275,34.8c-3.7-.15-4.5-2.74-4.31-6,.14-2.26.74-5.82,3.2-6.71,3.16-1.15,1.22,3.25-.14,4.15-1.61,1-.11,3.65,1.51,2.59Z"/><path class="cls-1" d="M294.37,9c.78,7.43-.45,15.27,2.11,22.42.65,1.8,3.55,1,2.9-.8-2.47-6.89-1.26-14.46-2-21.62-.2-1.9-3.21-1.92-3,0Z"/><path class="cls-1" d="M308.32,13.5c.32-1.48.85-2.58,2.3-1.83a4.18,4.18,0,0,1,1.15,1.39,8.67,8.67,0,0,1,.82,6c-.6,4-2.34,7.69-4.11,11.24a1.52,1.52,0,0,0,.9,2.2c5.33,1.87,9.89-1.41,15.1-2.13,1.9-.26,1.09-3.15-.8-2.89-4.52.62-8.9,3.74-13.51,2.13l.9,2.2c2.82-5.65,6.91-13.72,3.48-19.92-2.66-4.79-7.88-4.91-9.12.81-.41,1.88,2.48,2.69,2.89.8Z"/><path class="cls-1" d="M324.84,9.58c1.5-.86,4.8-3.36,5.46-1,.39,1.38-1.32,4.46-1.8,5.54-.34.77-.16,2.06.9,2.21,3.57.48,8.23.43,10.19,4,2.24,4.07-2.11,13.54-6.88,8.19-1.29-1.44-3.4.69-2.12,2.13,5,5.58,11.64.54,12.64-5.68,1.38-8.59-6.42-10.66-13-11.56l.9,2.21c1.14-2.55,3.61-7.19,1.55-9.91-2.27-3-7-.08-9.32,1.25a1.5,1.5,0,0,0,1.52,2.59Z"/><path class="cls-1" d="M71.23,37.12c-4.37-.74-9.42-.15-7.93,5.51a15.65,15.65,0,0,0,3.26,6c.54.67,2.85,3,2.64,4-.55,2.67-4.22-.55-4.88-1.38-1.21-1.5-3.32.63-2.12,2.13,1.55,1.92,4.51,3.74,7.07,3.26a3.72,3.72,0,0,0,2.83-4.81c-.72-2.75-3.16-4.56-4.61-6.87C67,44.2,65.7,41.74,66,40.71c.46-1.67,3.1-.93,4.44-.7,1.89.32,2.7-2.57.8-2.89Z"/></g></g></g></svg>
