<svg xmlns="http://www.w3.org/2000/svg" viewBox="0 0 188.67 20.47"><defs><style>.cls-1{fill:none;}.cls-2{fill:#005afb;}</style></defs><title>passwords</title><g id="Layer_2" data-name="Layer 2"><g id="passwords"><g id="part_1"><path class="cls-1" d="M131.66,14.25,130,14.08l.93,2.54C131.14,15.8,131.4,15,131.66,14.25Z"/><path class="cls-1" d="M140.39,17.71a3.68,3.68,0,0,0,1.12,1.3,2.73,2.73,0,0,0,1.65.48,2.92,2.92,0,0,0,2.58-1.57,6.66,6.66,0,0,0,.75-2.14l-6.84-.71c0,.26.06.51.1.75A6.89,6.89,0,0,0,140.39,17.71Z"/><path class="cls-1" d="M148.46,13.58a11.55,11.55,0,0,0-.2-2.05,6.53,6.53,0,0,0-.58-1.84,3.56,3.56,0,0,0-1.1-1.29,2.78,2.78,0,0,0-1.65-.49,3,3,0,0,0-1.71.5,3.54,3.54,0,0,0-1.14,1.35,5.77,5.77,0,0,0-.59,1.8,12.17,12.17,0,0,0-.17,2,12.62,12.62,0,0,0,.1,1.55l6.84.71A12.13,12.13,0,0,0,148.46,13.58Z"/><path class="cls-1" d="M85.06,14.42a3.48,3.48,0,0,0-1,1,2.71,2.71,0,0,0-.38,1.44,2,2,0,0,0,.57,1.59,2.08,2.08,0,0,0,1.43.5,3,3,0,0,0,1.62-.45,4.46,4.46,0,0,0,1.18-1.06L88.54,13c-.73.22-1.38.43-1.93.64A7,7,0,0,0,85.06,14.42Z"/><path class="cls-1" d="M89.18,8.23a2.21,2.21,0,0,0-1.35-.35,3,3,0,0,0-1.11.2A1.94,1.94,0,0,0,86,8.5a3.72,3.72,0,0,0,.13.76c0,.05,0,.09,0,.14l4,.41a2.69,2.69,0,0,0-.25-.74A2.64,2.64,0,0,0,89.18,8.23Z"/><polygon class="cls-1" points="127.01 13.59 129.18 13.82 128.06 10.74 127.01 13.59"/><path class="cls-1" d="M71.64,10.87a5.1,5.1,0,0,0,2.27-.43,3.23,3.23,0,0,0,1.32-1.09,3.44,3.44,0,0,0,.44-.85L70.31,8v2.92Z"/><path class="cls-1" d="M124.19,13.49,122,13.26,123,16.75Z"/><path class="cls-1" d="M77.59,8.06a6.07,6.07,0,0,0,.14-1.2,6.54,6.54,0,0,0-.18-1.5A3.49,3.49,0,0,0,77,4a3,3,0,0,0-1.19-.94,4.4,4.4,0,0,0-1.85-.34H72.08V8l5.36.55C77.49,8.36,77.55,8.21,77.59,8.06Z"/><path class="cls-1" d="M173.18,17.61V10.12a3.53,3.53,0,0,0-.33-.73,3.28,3.28,0,0,0-.59-.71,3.1,3.1,0,0,0-.88-.54,3,3,0,0,0-1.18-.21,2.69,2.69,0,0,0-1.43.4,3.82,3.82,0,0,0-1.15,1.15,5.85,5.85,0,0,0-.76,1.85,10.15,10.15,0,0,0-.28,2.49,8.56,8.56,0,0,0,.21,2,5,5,0,0,0,.7,1.66,2.69,2.69,0,0,0,.26.33l4.73.49A5.55,5.55,0,0,0,173.18,17.61Z"/><path class="cls-1" d="M166.87,18.62a3.14,3.14,0,0,0,1.68.44,3,3,0,0,0,1.72-.46,5,5,0,0,0,.44-.33L166,17.78A3.59,3.59,0,0,0,166.87,18.62Z"/><path class="cls-1" d="M26.87,9.69a3.65,3.65,0,0,0-1.1-1.29,2.78,2.78,0,0,0-1.65-.49,3,3,0,0,0-1.71.5,3.65,3.65,0,0,0-1.15,1.35,6,6,0,0,0-.58,1.8,12.17,12.17,0,0,0-.17,2,12.63,12.63,0,0,0,.2,2.3,6.58,6.58,0,0,0,.65,1.89A3.56,3.56,0,0,0,22.47,19a2.73,2.73,0,0,0,1.65.48,2.92,2.92,0,0,0,2.58-1.57,8.42,8.42,0,0,0,.95-4.34,11.55,11.55,0,0,0-.2-2.05A6.53,6.53,0,0,0,26.87,9.69Z"/><path class="cls-2" d="M11.22,2.59l.81.08a4,4,0,0,1,.82.13,1.71,1.71,0,0,1,.59.29.61.61,0,0,1,.22.48,8.3,8.3,0,0,1-1.07,2.19C11.87,7,10.84,8.69,9.48,10.88l-1.65-3C7.4,7.12,7,6.36,6.58,5.59c-.14-.27-.28-.55-.44-.84L5.74,4c-.09-.2-.17-.36-.22-.49a1,1,0,0,1-.08-.27c0-.19.18-.34.55-.44a7.91,7.91,0,0,1,1.87-.19V1.67H0v.92a7.17,7.17,0,0,1,.79.13,2.61,2.61,0,0,1,.74.3,3.72,3.72,0,0,1,.76.66A8.45,8.45,0,0,1,3.05,4.8c.47.83,1,1.83,1.65,3s1.2,2.25,1.72,3.25q.36.67.6,1.23a2.35,2.35,0,0,1,.26.76v4.47a1.73,1.73,0,0,1-.18.83,1.17,1.17,0,0,1-.64.54,4.2,4.2,0,0,1-1,.18l-1.09.1v.92H13v-.92A6.84,6.84,0,0,1,11.84,19a7.84,7.84,0,0,1-1-.25,1.28,1.28,0,0,1-.64-.56,1.57,1.57,0,0,1-.19-.81V13.87a5.06,5.06,0,0,1,.16-1.47,6.51,6.51,0,0,1,.63-1.33C11.69,9.56,12.4,8.32,13,7.34s1.2-1.94,1.87-2.89a7.69,7.69,0,0,1,.7-.88,5.17,5.17,0,0,1,.69-.48,2.5,2.5,0,0,1,.69-.32,3.08,3.08,0,0,1,.7-.18V1.67h-6.4Z"/><path class="cls-2" d="M24.15,6.93a5.9,5.9,0,0,0-4.58,1.91,7,7,0,0,0-1.75,4.9,7.6,7.6,0,0,0,.5,2.81,6.64,6.64,0,0,0,1.35,2.12,5.67,5.67,0,0,0,2,1.34,5.93,5.93,0,0,0,2.32.46A6.77,6.77,0,0,0,26.6,20a5.76,5.76,0,0,0,2.08-1.55,6.14,6.14,0,0,0,1.22-2.21,8.31,8.31,0,0,0,.43-2.65,6.61,6.61,0,0,0-1.75-4.82A5.87,5.87,0,0,0,24.15,6.93Zm2.55,11a2.92,2.92,0,0,1-2.58,1.57A2.73,2.73,0,0,1,22.47,19a3.56,3.56,0,0,1-1.11-1.3,6.58,6.58,0,0,1-.65-1.89,12.63,12.63,0,0,1-.2-2.3,12.17,12.17,0,0,1,.17-2,6,6,0,0,1,.58-1.8,3.65,3.65,0,0,1,1.15-1.35,3,3,0,0,1,1.71-.5,2.78,2.78,0,0,1,1.65.49,3.65,3.65,0,0,1,1.1,1.29,6.53,6.53,0,0,1,.58,1.84,11.55,11.55,0,0,1,.2,2.05A8.42,8.42,0,0,1,26.7,17.92Z"/><path class="cls-2" d="M44.61,18.75a1.79,1.79,0,0,1-.5-.53,1.5,1.5,0,0,1-.18-.76V7.32l-.2-.18-4.66.31V8.3l1,.06a1.49,1.49,0,0,1,.69.19,1.81,1.81,0,0,1,.51.56,1.58,1.58,0,0,1,.18.76v7.24a3.08,3.08,0,0,1-.41.57,4.28,4.28,0,0,1-.62.57,3.42,3.42,0,0,1-.93.52,3.38,3.38,0,0,1-1.27.22,1.91,1.91,0,0,1-1.49-.7,3,3,0,0,1-.63-2.09V7.32L36,7.14l-4.27.31V8.3a5.51,5.51,0,0,1,.74.1,1.52,1.52,0,0,1,.59.23,1.6,1.6,0,0,1,.52.55,1.67,1.67,0,0,1,.17.78v6.12a5.06,5.06,0,0,0,.89,3.22,3.1,3.1,0,0,0,2.58,1.11,5.21,5.21,0,0,0,1.55-.18,6,6,0,0,0,1.12-.54,5.23,5.23,0,0,0,.9-.66c.26-.25.49-.48.7-.7h.07V20l.2.18,4.18-.28V19l-.72,0A1.85,1.85,0,0,1,44.61,18.75Z"/><path class="cls-2" d="M55.41,7a3.83,3.83,0,0,0-1.81.54,6.07,6.07,0,0,0-1.79,1.6h-.06V7.32l-.18-.18-4.26.28v.86a5.39,5.39,0,0,1,.73.09,1.9,1.9,0,0,1,.58.23,1.6,1.6,0,0,1,.53.62,1.91,1.91,0,0,1,.19.79V17.9a1.4,1.4,0,0,1-.18.76.94.94,0,0,1-.54.41,2.08,2.08,0,0,1-.55.1l-.62.06v.85H54.2v-.85l-.89-.09a3.48,3.48,0,0,1-.83-.2,1,1,0,0,1-.56-.43,1.45,1.45,0,0,1-.17-.74V10.33a4,4,0,0,1,1.39-1.4,2.86,2.86,0,0,1,1.42-.5c0,.16-.05.31-.08.47a2.78,2.78,0,0,0,0,.52,1.14,1.14,0,0,0,.39.83,1.51,1.51,0,0,0,1.11.38,1.11,1.11,0,0,0,1-.52,2.18,2.18,0,0,0,.32-1.17,2,2,0,0,0-.51-1.43A1.79,1.79,0,0,0,55.41,7Z"/><path class="cls-2" d="M75.23,9.35a3.23,3.23,0,0,1-1.32,1.09,5.1,5.1,0,0,1-2.27.43H70.31V8l-2.76-.28v9.91a1.83,1.83,0,0,1-.17.83,1.11,1.11,0,0,1-.57.49,3,3,0,0,1-.82.17l-.9.09v.92H73v-.92c-.33,0-.69,0-1.09-.09a3.83,3.83,0,0,1-.82-.17,1,1,0,0,1-.62-.52,2,2,0,0,1-.15-.8V12h2.07a8.88,8.88,0,0,0,2.5-.34,6.74,6.74,0,0,0,2.17-1.06,5.11,5.11,0,0,0,1.53-1.8l-2.91-.3A3.44,3.44,0,0,1,75.23,9.35Z"/><path class="cls-2" d="M83.45,9.91a1.83,1.83,0,0,0,.3,1,1.07,1.07,0,0,0,1,.46A1.6,1.6,0,0,0,85.84,11a1.13,1.13,0,0,0,.41-.83,3.89,3.89,0,0,0-.1-.8l-2.49-.26A1.81,1.81,0,0,0,83.45,9.91Z"/><path class="cls-2" d="M88.44,10a4.76,4.76,0,0,1,.07.65v1.28a17,17,0,0,1-2.4.93c-1.19.4-2,.67-2.37.82a8.28,8.28,0,0,0-1,.49,3,3,0,0,0-.85.69,3.13,3.13,0,0,0-.63,1.05,3.91,3.91,0,0,0-.21,1.33A3,3,0,0,0,82,19.53a3.34,3.34,0,0,0,2.37.88,5.07,5.07,0,0,0,2.33-.5,6.23,6.23,0,0,0,1.81-1.42h.08a2.2,2.2,0,0,0,.77,1.38,2.57,2.57,0,0,0,1.61.47,3.42,3.42,0,0,0,1-.14c.3-.09.66-.2,1.07-.35V19H92.2a1.42,1.42,0,0,1-.61-.13,1.48,1.48,0,0,1-.54-.51,1.56,1.56,0,0,1-.17-.8c0-1.14,0-2.18,0-3.14s0-2,0-3.29a7.2,7.2,0,0,0-.08-1.08l-2.48-.25C88.4,9.87,88.43,9.92,88.44,10Zm0,7.5a4.46,4.46,0,0,1-1.18,1.06,3,3,0,0,1-1.62.45,2.08,2.08,0,0,1-1.43-.5,2,2,0,0,1-.57-1.59A2.71,2.71,0,0,1,84,15.46a3.48,3.48,0,0,1,1-1,7,7,0,0,1,1.55-.78c.55-.21,1.2-.42,1.93-.64Z"/><path class="cls-2" d="M94.69,10.68a3.2,3.2,0,0,0,.36,1.55A3.54,3.54,0,0,0,96,13.35a5.53,5.53,0,0,0,1.27.75c.5.21.95.37,1.36.5s1,.31,1.39.47a5.14,5.14,0,0,1,1,.54,2,2,0,0,1,.63.69,2,2,0,0,1,.21.94,2,2,0,0,1-.67,1.63,3,3,0,0,1-1.92.56A3.23,3.23,0,0,1,97.72,19a4.43,4.43,0,0,1-1.21-1,5.43,5.43,0,0,1-.82-1.22,4.92,4.92,0,0,1-.44-1.19h-.9l.13,4.45h1l.26-.84a6,6,0,0,0,1.35.74,5.1,5.1,0,0,0,2,.4,5.17,5.17,0,0,0,3.45-1.13,3.65,3.65,0,0,0,1.33-2.9,3.55,3.55,0,0,0-.29-1.5,3.23,3.23,0,0,0-.82-1.07,4.82,4.82,0,0,0-1.25-.81,12.25,12.25,0,0,0-1.61-.63c-.58-.19-1.07-.36-1.46-.52a5,5,0,0,1-1-.48,1.82,1.82,0,0,1-.61-.66s0,0,0,0l-2.15-.22C94.71,10.53,94.69,10.6,94.69,10.68Z"/><path class="cls-2" d="M106.53,12.23a3.67,3.67,0,0,0,.94,1.12,5.4,5.4,0,0,0,1.28.75c.49.21.94.37,1.35.5s1,.31,1.39.47a5.14,5.14,0,0,1,1.05.54,2,2,0,0,1,.63.69,2,2,0,0,1,.21.94,2,2,0,0,1-.67,1.63,3,3,0,0,1-1.92.56A3.23,3.23,0,0,1,109.2,19a4.43,4.43,0,0,1-1.21-1,5.43,5.43,0,0,1-.82-1.22,4.92,4.92,0,0,1-.44-1.19h-.9l.13,4.45h1l.26-.84a5.64,5.64,0,0,0,1.34.74,5.1,5.1,0,0,0,2,.4A5.17,5.17,0,0,0,114,19.29a3.65,3.65,0,0,0,1.33-2.9,3.55,3.55,0,0,0-.29-1.5,3.33,3.33,0,0,0-.81-1.07A5.07,5.07,0,0,0,113,13a12.25,12.25,0,0,0-1.61-.63l-.86-.3-4.23-.43A3.32,3.32,0,0,0,106.53,12.23Z"/><path class="cls-2" d="M130.88,16.62,130,14.08l-2.54-.26,2.33,6.35h1.1c.13-.47.28-1,.44-1.49s.32-1,.47-1.45l1-2.87-1.06-.11C131.4,15,131.14,15.8,130.88,16.62Z"/><path class="cls-2" d="M123,16.75,122,13.26,119.38,13l.48,1.47c.62,1.89,1.26,3.79,1.9,5.71h1.07l2.41-6.58-1-.1Z"/><path class="cls-2" d="M145.74,17.92a2.92,2.92,0,0,1-2.58,1.57,2.73,2.73,0,0,1-1.65-.48,3.68,3.68,0,0,1-1.12-1.3,6.89,6.89,0,0,1-.64-1.89c0-.24-.07-.49-.1-.75L137,14.8a7.46,7.46,0,0,0,.41,1.75,6.64,6.64,0,0,0,1.35,2.12,5.67,5.67,0,0,0,2,1.34,5.89,5.89,0,0,0,2.32.46,6.77,6.77,0,0,0,2.65-.5,5.76,5.76,0,0,0,2.08-1.55,6.14,6.14,0,0,0,1.22-2.21c0-.06,0-.12.05-.18l-2.5-.25A6.66,6.66,0,0,1,145.74,17.92Z"/><path class="cls-2" d="M153.09,17.9a1.4,1.4,0,0,1-.17.76.94.94,0,0,1-.54.41,2.16,2.16,0,0,1-.55.1l-.62.06v.85H158v-.85l-.89-.09a3.71,3.71,0,0,1-.84-.2,1.05,1.05,0,0,1-.55-.43,1.35,1.35,0,0,1-.17-.74V16.7l-2.42-.24Z"/><path class="cls-2" d="M170.27,18.6a3,3,0,0,1-1.72.46,3.14,3.14,0,0,1-1.68-.44,3.59,3.59,0,0,1-.9-.84l-3-.31a6.39,6.39,0,0,0,.74,1.12A5.56,5.56,0,0,0,165.52,20a4.9,4.9,0,0,0,2.11.49,4.63,4.63,0,0,0,2-.48,5.35,5.35,0,0,0,1.66-1.24l.11,0V20l.19.18,4.48-.28V19c-.26,0-.55,0-.86,0a1.68,1.68,0,0,1-.71-.19l-.1-.1-3.73-.38A5,5,0,0,1,170.27,18.6Z"/><path class="cls-2" d="M177.46,19l0,1.16h1l.26-.84a5.86,5.86,0,0,0,1.34.74,5.15,5.15,0,0,0,2.06.4,5.52,5.52,0,0,0,2.81-.69Z"/></g><g id="part_2"><path class="cls-2" d="M81,6.21a4,4,0,0,0-1.61-3.3,6.67,6.67,0,0,0-4.17-1.24h-8.4v.92c.23,0,.51.05.83.1a5.83,5.83,0,0,1,1,.24.92.92,0,0,1,.61.55,2.3,2.3,0,0,1,.13.81V7.67L72.08,8V2.74h1.83a4.4,4.4,0,0,1,1.85.34A3,3,0,0,1,77,4a3.49,3.49,0,0,1,.6,1.34,6.54,6.54,0,0,1,.18,1.5,6.07,6.07,0,0,1-.14,1.2c0,.15-.1.3-.15.44l2.92.3s0,0,0,0A5.5,5.5,0,0,0,81,6.21Z"/><path class="cls-2" d="M91.38,7.72a3.56,3.56,0,0,0-1.48-.64A10.53,10.53,0,0,0,88,6.93a5.46,5.46,0,0,0-1.62.25A6.16,6.16,0,0,0,85,7.8a4.18,4.18,0,0,0-1.1,1,2.32,2.32,0,0,0-.21.37l2.49.26c0-.05,0-.09,0-.14A3.72,3.72,0,0,1,86,8.5a1.94,1.94,0,0,1,.72-.42,3,3,0,0,1,1.11-.2,2.21,2.21,0,0,1,1.35.35,2.64,2.64,0,0,1,.73.84,2.69,2.69,0,0,1,.25.74l2.49.25a4.77,4.77,0,0,0-.27-1A3,3,0,0,0,91.38,7.72Z"/><path class="cls-2" d="M99.06,8.45a2.41,2.41,0,0,1,1.67-.54,3.06,3.06,0,0,1,2.2.87A4.14,4.14,0,0,1,104.1,11h.9l-.2-4.11h-.93l-.3.67a5.49,5.49,0,0,0-1.28-.47,6.3,6.3,0,0,0-1.54-.19A4.38,4.38,0,0,0,97.63,8a3.48,3.48,0,0,0-1.15,2.44l2.15.22a2.19,2.19,0,0,1-.18-.94A1.66,1.66,0,0,1,99.06,8.45Z"/><path class="cls-2" d="M110.73,11.38a1.71,1.71,0,0,1-.6-.66,2.06,2.06,0,0,1-.2-1,1.66,1.66,0,0,1,.61-1.29,2.41,2.41,0,0,1,1.67-.54,3.06,3.06,0,0,1,2.2.87A4.14,4.14,0,0,1,115.58,11h.9l-.2-4.11h-.93l-.3.67a5.32,5.32,0,0,0-1.28-.47,6.28,6.28,0,0,0-1.53-.19A4.39,4.39,0,0,0,109.11,8a3.48,3.48,0,0,0-1.17,2.66,3.72,3.72,0,0,0,.14,1l4.23.43c-.22-.07-.42-.15-.6-.22A5.27,5.27,0,0,1,110.73,11.38Z"/><path class="cls-2" d="M136,9.78a2.26,2.26,0,0,1,.92-1.2,2.71,2.71,0,0,1,1.17-.46V7.29h-4.86v.83a3.63,3.63,0,0,1,.44.05,3.16,3.16,0,0,1,.57.16,1.62,1.62,0,0,1,.5.3A.54.54,0,0,1,135,9a2.09,2.09,0,0,1-.08.55c-.06.19-.12.4-.18.62-.28.95-.6,2-1,3-.1.32-.21.67-.32,1l1.05.11c.11-.32.22-.66.32-1C135.2,12.26,135.61,11.05,136,9.78Z"/><polygon class="cls-2" points="129.32 7.55 128.06 7.55 125.96 13.49 127.01 13.59 128.06 10.74 129.18 13.82 131.72 14.08 129.32 7.55"/><path class="cls-2" d="M123.45,12.39c-.35-1.12-.67-2.13-.94-3A3.55,3.55,0,0,1,122.4,9a1.36,1.36,0,0,1-.05-.22c0-.2.17-.34.5-.43a4.66,4.66,0,0,1,.93-.14V7.29h-5.71v.86a2.83,2.83,0,0,1,1.13.41,1.76,1.76,0,0,1,.79,1c.35,1,.74,2.2,1.16,3.47l2.57.27Q123.57,12.79,123.45,12.39Z"/><path class="cls-2" d="M149.39,8.74a6.39,6.39,0,0,0-9,.1,7,7,0,0,0-1.74,4.9,7.33,7.33,0,0,0,.09,1.06l2.69.27a12.62,12.62,0,0,1-.1-1.55,12.17,12.17,0,0,1,.17-2,5.77,5.77,0,0,1,.59-1.8,3.54,3.54,0,0,1,1.14-1.35,3,3,0,0,1,1.71-.5,2.78,2.78,0,0,1,1.65.49,3.56,3.56,0,0,1,1.1,1.29,6.53,6.53,0,0,1,.58,1.84,11.55,11.55,0,0,1,.2,2.05,12.13,12.13,0,0,1-.2,2.2l2.5.25a8.66,8.66,0,0,0,.38-2.47A6.61,6.61,0,0,0,149.39,8.74Z"/><path class="cls-2" d="M158.67,8.93a2.86,2.86,0,0,1,1.42-.5c0,.16-.05.31-.08.47a2.78,2.78,0,0,0,0,.52,1.14,1.14,0,0,0,.39.83,1.51,1.51,0,0,0,1.11.38,1.1,1.1,0,0,0,1-.52,2.11,2.11,0,0,0,.33-1.17,2,2,0,0,0-.51-1.43A1.8,1.8,0,0,0,160.94,7a3.83,3.83,0,0,0-1.81.54,6.07,6.07,0,0,0-1.79,1.6h-.06V7.32l-.18-.18-4.26.28v.86a5.39,5.39,0,0,1,.73.09,1.9,1.9,0,0,1,.58.23,1.6,1.6,0,0,1,.53.62,1.89,1.89,0,0,1,.18.79v6.45l2.42.24V10.33A4,4,0,0,1,158.67,8.93Z"/><path class="cls-2" d="M175.62,17.44V.2l-.19-.2-5.24.29v.8a13.09,13.09,0,0,1,1.33.16,2.66,2.66,0,0,1,1,.36,1.5,1.5,0,0,1,.51.68,2.66,2.66,0,0,1,.18,1V7.75a5.93,5.93,0,0,0-1.48-.58,6.91,6.91,0,0,0-1.76-.23,5.52,5.52,0,0,0-2.33.52,5.87,5.87,0,0,0-1.94,1.39A7,7,0,0,0,164.35,11a7.26,7.26,0,0,0-.48,2.63,8.23,8.23,0,0,0,.45,2.78,7.46,7.46,0,0,0,.46,1l3,.31a2.69,2.69,0,0,1-.26-.33,5,5,0,0,1-.7-1.66,8.56,8.56,0,0,1-.21-2,10.15,10.15,0,0,1,.28-2.49,5.85,5.85,0,0,1,.76-1.85,3.82,3.82,0,0,1,1.15-1.15,2.69,2.69,0,0,1,1.43-.4,3,3,0,0,1,1.18.21,3.1,3.1,0,0,1,.88.54,3.28,3.28,0,0,1,.59.71,3.53,3.53,0,0,1,.33.73v7.49a5.55,5.55,0,0,1-.7.66l3.74.38a1.46,1.46,0,0,1-.42-.44A1.54,1.54,0,0,1,175.62,17.44Z"/><path class="cls-2" d="M187.34,19.29a3.62,3.62,0,0,0,1.33-2.9,3.56,3.56,0,0,0-.28-1.5,3.37,3.37,0,0,0-.82-1.07,5.19,5.19,0,0,0-1.25-.81,13,13,0,0,0-1.62-.63c-.58-.19-1.06-.36-1.46-.52a5.27,5.27,0,0,1-1-.48,1.8,1.8,0,0,1-.6-.66,2.19,2.19,0,0,1-.2-1,1.66,1.66,0,0,1,.61-1.29,2.43,2.43,0,0,1,1.67-.54,3,3,0,0,1,2.2.87A4.22,4.22,0,0,1,187.12,11H188l-.19-4.11h-.94l-.3.67a5.4,5.4,0,0,0-1.27-.47,6.42,6.42,0,0,0-1.54-.19A4.39,4.39,0,0,0,180.64,8a3.48,3.48,0,0,0-1.17,2.66,3.2,3.2,0,0,0,.37,1.55,3.51,3.51,0,0,0,.93,1.12,5.61,5.61,0,0,0,1.28.75c.5.21.95.37,1.36.5s1,.31,1.38.47a4.66,4.66,0,0,1,1.05.54,2,2,0,0,1,.63.69,1.89,1.89,0,0,1,.22.94,2,2,0,0,1-.68,1.63,3,3,0,0,1-1.92.56A3.23,3.23,0,0,1,182.5,19a4.58,4.58,0,0,1-1.21-1,5.79,5.79,0,0,1-.82-1.22,5.38,5.38,0,0,1-.44-1.19h-.89l.09,3.29,7.48.77A4,4,0,0,0,187.34,19.29Z"/></g></g></g></svg>
