<svg xmlns="http://www.w3.org/2000/svg" viewBox="0 0 626.56 435.04"><defs><style>.cls-1{fill:#2c2c2c;}</style></defs><title>passwords</title><g id="Layer_2" data-name="Layer 2"><g id="password"><g id="alice_123"><path class="cls-1" d="M317.57,24.4c-.83-5.19-6.07-2.85-8.62-.47-3.77,3.52-6.75,9.15-4.77,14.33,1.65,4.29,5.63,3.3,8.38.65,3.33-3.22,6.39-8.49,6.4-13.23l-2.94.4c1.35,3.94,2.14,7.8,5.23,10.79,1.39,1.34,3.52-.78,2.13-2.12-2.68-2.58-3.31-6.09-4.47-9.47a1.51,1.51,0,0,0-3,.4c0,2.41-5.18,14.8-8.54,12.36-2.64-1.93.1-7.5,1.34-9.3.72-1,5.42-6.63,5.92-3.54.3,1.9,3.19,1.09,2.89-.8Z"/><path class="cls-1" d="M328.44,1.8c4.12,10.29,2.21,21.7,4.82,32.34.45,1.88,3.35,1.08,2.89-.79-2.61-10.66-.68-22-4.82-32.35-.71-1.77-3.61-1-2.89.8Z"/><path class="cls-1" d="M342.2,17.63c.78,4.79.47,9.67,1.38,14.45.36,1.89,3.25,1.09,2.89-.8-.91-4.77-.6-9.66-1.37-14.45-.31-1.9-3.21-1.1-2.9.8Z"/><path class="cls-1" d="M343,7a1.5,1.5,0,0,0,0-3,1.5,1.5,0,0,0,0,3Z"/><path class="cls-1" d="M363.9,15.09c-6.54,1.08-9,9-7.66,14.71.59,2.54,2.13,5.06,4.75,5.87,3.65,1.13,7.24-1.37,9.87-3.62,1.47-1.25-.66-3.37-2.12-2.12-1.75,1.49-4.72,3.88-7.22,2.75-1.64-.75-2.31-2.83-2.54-4.47-.59-4.13,1.09-9.47,5.71-10.22,1.9-.32,1.1-3.21-.79-2.9Z"/><path class="cls-1" d="M376.06,28.85c2.71-1.78,5.09-6.4,2.06-9.08-3.18-2.81-7.33.89-8.53,3.87-1.39,3.46-2.12,9.23.81,12.17,3.87,3.89,10.51,1.28,14.94.07a1.5,1.5,0,0,0-.8-2.89c-2.81.77-5.78,1.94-8.74,1.81-3.7-.15-4.5-2.74-4.31-6,.14-2.26.75-5.82,3.2-6.71,3.17-1.15,1.23,3.25-.14,4.15-1.61,1-.11,3.65,1.51,2.59Z"/><path class="cls-1" d="M395.14,9c.78,7.43-.45,15.27,2.12,22.42.64,1.8,3.54,1,2.89-.8-2.47-6.89-1.26-14.46-2-21.62-.2-1.9-3.2-1.92-3,0Z"/><path class="cls-1" d="M409.1,13.5c.32-1.48.85-2.58,2.29-1.83a4.07,4.07,0,0,1,1.15,1.39,8.61,8.61,0,0,1,.82,6c-.6,4-2.34,7.69-4.11,11.24a1.53,1.53,0,0,0,.9,2.2c5.33,1.87,9.9-1.41,15.1-2.13,1.91-.26,1.1-3.15-.79-2.89-4.53.62-8.91,3.74-13.51,2.13l.89,2.2c2.82-5.65,6.92-13.72,3.48-19.92-2.66-4.79-7.88-4.91-9.12.81-.4,1.88,2.49,2.69,2.9.8Z"/><path class="cls-1" d="M425.61,9.58c1.5-.86,4.81-3.36,5.46-1,.39,1.38-1.31,4.46-1.8,5.54-.34.77-.16,2.06.9,2.21,3.57.48,8.23.43,10.2,4,2.23,4.07-2.12,13.54-6.89,8.19-1.28-1.44-3.4.69-2.12,2.13,5,5.58,11.64.54,12.64-5.68,1.38-8.59-6.42-10.66-13-11.56l.89,2.21c1.15-2.55,3.61-7.19,1.55-9.91-2.27-3-7-.08-9.31,1.25a1.5,1.5,0,0,0,1.51,2.59Z"/></g><g id="password-2" data-name="password"><path class="cls-1" d="M589.78,211.32c-1.88,6.13-4.36,12.05-3.81,18.59a1.53,1.53,0,0,0,1.5,1.5c6.7,0,12.63-3.13,19.09-4.43,1.89-.38,1.09-3.27-.8-2.89-6.17,1.23-11.9,4.35-18.29,4.32l1.5,1.5c-.53-6.25,1.91-11.94,3.7-17.79.57-1.85-2.32-2.64-2.89-.8Z"/></g><g id="abcd1234"><path class="cls-1" d="M41.31,318.2a199,199,0,0,1-.48-50.91c1-8.24,2.46-18.07,7.79-24.78C54.56,235,66,238,71,245.27c4.06,5.85,1.29,13-3.51,17.41a22,22,0,0,1-21.35,4.65c-1.86-.55-2.65,2.34-.8,2.89,11.85,3.5,27.3-2.28,30.29-15.34,2.5-10.95-9.07-20.65-19.55-19.87-8.5.64-12.83,9.2-15.11,16.38-3.59,11.35-4.22,23.71-4.34,35.53A216.14,216.14,0,0,0,38.41,319c.27,1.91,3.16,1.1,2.9-.79Z"/><path class="cls-1" d="M103,244.19c-11.27-15.54-26.41,5.31-21.25,18.3,2.21,5.58,7.19,8.42,11.72,3.44s7.32-13.92,6.75-20.74l-2.79.76a60.4,60.4,0,0,1,11.35,24.29c.4,1.88,3.29,1.08,2.89-.8a62.25,62.25,0,0,0-11.65-25c-.8-1-2.94-.91-2.8.75.39,4.62-1,9.47-2.86,13.64-2,4.4-6.19,10.37-9.52,3.23-4.34-9.34,6.31-29.13,15.57-16.36,1.12,1.55,3.73.05,2.59-1.51Z"/><path class="cls-1" d="M131.56,236.82c-7.14-3.54-13.88,2.27-16.59,8.72a1.51,1.51,0,0,0,1,1.85c7,1.61,13.26,9.65,13.59,16.85.44,9.46-10.89,12.68-13.48,2.6-.48-1.87-3.37-1.07-2.89.8,1.13,4.41,3.93,8.64,8.94,8.81,4.31.14,8-3,9.54-6.85,4-9.84-5.24-22.89-14.9-25.1l1,1.84c1.88-4.47,6.94-9.53,12.18-6.93,1.73.85,3.25-1.73,1.52-2.59Z"/><path class="cls-1" d="M155.57,236.72c-6.17-.88-10.65,3.73-13.81,8.51a1.5,1.5,0,0,0,.24,1.82c4.37,3.52,10.67,4.81,14.27,9.28,6.6,8.18-7.31,18-9.79,6.63-.42-1.89-3.31-1.09-2.9.8,2,9.23,13.66,10.13,16.85,1,4.06-11.6-9.67-14.49-16.31-19.83l.23,1.82c2.23-3.38,5.83-7.79,10.42-7.14,1.89.28,2.71-2.62.8-2.89Z"/><path class="cls-1" d="M171.77,247.47A21.61,21.61,0,0,0,174,261.23a1.52,1.52,0,0,0,2.59,0c1.95-3.6,4.27-7.09,8.67-5.14,2,.89,3.75,2.32,5.8,3.17A9.27,9.27,0,0,0,202.44,256c6.6-9-4.17-19.11-13.38-17.2-1.89.39-1.09,3.29.79,2.9,5.47-1.14,11.66,2.71,11.44,8.77-.12,3.08-2.72,6.43-6,6.69-1.94.16-3.69-.92-5.31-1.83-2.44-1.36-5-3.25-7.92-3-4,.35-6.35,4.2-8.08,7.37h2.59a18.17,18.17,0,0,1-1.92-11.44c.27-1.89-2.62-2.7-2.89-.8Z"/><path class="cls-1" d="M223.74,240.85c-6.62-.68-13.74,4.86-16.56,10.53-2.54,5.12-.77,12.2,5.51,13.33,11,2,21.06-16.22,8.42-21.12-1.81-.7-2.59,2.2-.8,2.89,9.13,3.54-.12,17-7.39,15.22-6-1.52-3.93-8.55-1.1-11.88s7.36-6.44,11.92-6c1.92.2,1.9-2.8,0-3Z"/><path class="cls-1" d="M234.51,256.75c1.11,2.39,2.39,4.68,3.59,7a1.51,1.51,0,0,0,2.79-.76,28.1,28.1,0,0,1,2.1-14c2.72-5.79,7.54-6.37,12.85-3.33a1.5,1.5,0,0,0,1.51-2.59C252,240,246,239.45,242,244.78c-3.76,5-4.59,12.19-4.12,18.24l2.8-.76c-1.2-2.34-2.48-4.63-3.58-7-.81-1.75-3.4-.22-2.6,1.52Z"/><path class="cls-1" d="M282.8,248.91c-12.56-6.21-18.07,12-15,21.27a1.53,1.53,0,0,0,1.84,1c11.18-2,15.49-14.73,17.59-24.43,2.55-11.79,3-24,2.75-36a1.51,1.51,0,0,0-2.95-.4c-6.69,18.1-4.32,40.32,2.56,58,.69,1.78,3.6,1,2.89-.8-6.71-17.26-9.09-38.76-2.56-56.42l-2.94-.4c.2,10.67-.12,21.46-2,32-1.69,9.44-5,23.58-16.13,25.61l1.84,1.05c-2.09-6.45.75-22.77,10.64-17.88,1.72.86,3.24-1.73,1.51-2.59Z"/><path class="cls-1" d="M310.22,236.06l.08-1.42a1.5,1.5,0,0,0-1.5-1.5,1.53,1.53,0,0,0-1.5,1.5l-.08,1.42a1.5,1.5,0,0,0,1.5,1.5,1.53,1.53,0,0,0,1.5-1.5Z"/><path class="cls-1" d="M308.94,254.81l-.09,1.43a1.5,1.5,0,0,0,3,0l.09-1.43a1.5,1.5,0,0,0-1.5-1.5,1.54,1.54,0,0,0-1.5,1.5Z"/><path class="cls-1" d="M367.24,237.37c-6.3-12.64-30.18,8.61-22.61,20.72,8.8,14.08,26.08-13.85,27.26-21.69.24-1.57-1.83-2.75-2.74-1.15-4.36,7.62-1.7,16.63,7,19.3,1.85.57,2.64-2.32.8-2.89-6.82-2.11-8.53-9-5.16-14.9L369,235.6c-.76,5-3.79,9.84-6.75,13.85-2.34,3.17-8,10.81-12.84,9.11-6.93-2.44-2.18-12,.85-15.42,2.63-2.94,11.36-10.34,14.39-4.26.86,1.73,3.45.21,2.59-1.51Z"/><path class="cls-1" d="M388.78,215.23c.18,11-1.82,22.27,1.26,33a1.52,1.52,0,0,0,2.74.36c2.94-4.21,8.65-11.61,14.71-9.91,5.16,1.44,8.35,10.45,5.7,15-4.11,7.11-16.19,4.6-16.36-3.78,0-1.93-3-1.93-3,0,.24,11.88,17.66,15,22.44,4.29,2.68-6-1-15.55-7.08-18.1-7.79-3.27-15.14,5.42-19,11l2.74.36c-3-10.46-1-21.52-1.15-32.22,0-1.93-3-1.93-3,0Z"/><path class="cls-1" d="M473.12,241c-5.47-12.09-30,6.12-26.28,16.13,2.23,5.94,11.27,4.78,15.25,1.72,6.68-5.13,9.32-14.94,11.12-22.73a115.66,115.66,0,0,0,3.22-27c0-1.37-2.17-2.2-2.79-.76-7.58,17.66-.6,40.2,11.71,54,1.28,1.45,3.4-.68,2.12-2.12-11.3-12.69-18.24-34.07-11.24-50.38l-2.8-.76a110.63,110.63,0,0,1-2.2,21.85c-1.53,8.12-3.59,18.33-9.68,24.4-2.54,2.53-6.45,4.1-9.95,2.42-3.89-1.87-1.25-6,.7-8.51,2.73-3.47,14.82-14.26,18.23-6.73.79,1.76,3.38.23,2.59-1.51Z"/><path class="cls-1" d="M508.3,226.3c3-3.17,6.06-6.2,8.89-9.48l-2.56-1.06c0,13.49-3.95,27.46.76,40.57.65,1.8,3.55,1,2.9-.8-4.61-12.81-.64-26.58-.66-39.77a1.51,1.51,0,0,0-2.56-1.06c-2.83,3.28-5.93,6.31-8.89,9.47-1.32,1.41.8,3.54,2.12,2.13Z"/><path class="cls-1" d="M532.67,226.35a85.8,85.8,0,0,1,15.18-11.64l-2.2-.9c3.18,12.42-5.75,25.76-11.29,36.27a1.51,1.51,0,0,0,2.35,1.82c6.75-5.42,15.54-5.79,23.77-4.71,1.91.25,1.89-2.75,0-3-9.14-1.2-18.49-.36-25.89,5.58l2.36,1.82c5.93-11.24,15-25.25,11.59-38.57a1.51,1.51,0,0,0-2.2-.9,89.33,89.33,0,0,0-15.79,12.11,1.5,1.5,0,0,0,2.12,2.12Z"/><path class="cls-1" d="M567.18,220.1q6.11-4,12.35-7.73l-2.2-.89c1.65,8.5-7.72,15.19-9.68,23.07a1.53,1.53,0,0,0,1.45,1.9c4.46.51,10,2.54,11.47,7.34,1.65,5.61-4.27,9.07-8.63,10.7l1.69.69c-.62-1-.42-1.93-.57-3.08-.25-1.89-3.25-1.91-3,0s0,3,1,4.6a1.54,1.54,0,0,0,1.7.69c5.69-2.14,12.36-6.54,10.92-13.6-1.38-6.69-8.49-9.64-14.56-10.34l1.45,1.9c2.18-8.83,11.58-14.84,9.67-24.67a1.51,1.51,0,0,0-2.2-.9q-6.25,3.75-12.36,7.73c-1.61,1.06-.11,3.65,1.52,2.59Z"/><path class="cls-1" d="M608.47,210c-.36,13.85-4.4,27.42-5.38,41.25-.14,1.92,2.86,1.92,3,0,1-13.83,5-27.39,5.38-41.25,0-1.94-3-1.93-3,0Z"/><path class="cls-1" d="M441.58,243.68c-1.68-5.79-7.48-5.72-12.17-3.55-5.85,2.71-11,8.09-11.48,14.74-.35,5.37,1.4,11.29,7.62,11.62,5.89.31,11.77-3.53,16.2-7,1.53-1.18-.61-3.29-2.12-2.12-5.14,4-18.18,11.28-18.74-.29-.26-5.41,2.55-9.56,6.9-12.58,2.94-2,9.4-5.23,10.9,0a1.5,1.5,0,0,0,2.89-.8Z"/><path class="cls-1" d="M496.6,97.88c1-3.88.51-9.24-4.76-6.71-4.51,2.16-9.42,8.19-10.41,13.1-.82,4,2.33,9.5,6.84,7.12,4.76-2.52,8-10.46,9.27-15.38l-3-.4c1.55,13.38,5.72,27,5.11,40.56-.09,1.93,2.91,1.93,3,0,.61-13.53-3.57-27.19-5.11-40.56-.18-1.58-2.48-2.16-2.95-.4a35.1,35.1,0,0,1-3.93,8.8c-.83,1.38-1.83,3.25-3.18,4.2-2.33,1.64-3.44-.9-3.21-3.14.3-2.92,3.14-6.15,5.07-8.14.94-1,2.35-2.74,3.7-3,2-.44,1.1,1.3.61,3.19a1.51,1.51,0,0,0,2.9.8Z"/><path class="cls-1" d="M491.07,125.38c4-2.2,8.57-3.38,12.94-4.69,1.85-.55,1.06-3.45-.79-2.89-4.63,1.38-9.4,2.66-13.66,5-1.7.92-.19,3.51,1.51,2.59Z"/><path class="cls-1" d="M507,92.64c.05,4.32,0,8.63.45,12.94a1.52,1.52,0,0,0,2.56,1.06c2.05-2.16,4.12-4.06,7.2-3.16,1.56.46,3,1.42,4.48,2a11.12,11.12,0,0,0,9.29-.64c7-3.82,4.28-11.83.35-16.85-1.19-1.52-3.3.62-2.12,2.12,2.44,3.13,5.07,8.26,1.31,11.42-3.3,2.77-6.92,1.53-10.33,0-5-2.25-8.53-1-12.3,3l2.56,1.06c-.46-4.31-.4-8.62-.45-12.94a1.5,1.5,0,0,0-3,0Z"/><path class="cls-1" d="M548,93.61a14.41,14.41,0,0,1-2.86-.06v3c6,0,9.65-3.82,9.53-9.8a1.51,1.51,0,0,0-1.1-1.44c-11.1-2.15-16.7,7.26-14.54,17.33.79,3.69,2.75,8,6.49,9.49,4.71,1.88,8.77-2,11.43-5.43,1.18-1.53-1.43-3-2.59-1.52-1.86,2.41-5.05,5.77-8.34,3.87-2.54-1.48-3.71-5-4.2-7.69-1.37-7.61,2.39-14.82,11-13.16l-1.1-1.45c.09,4.3-2.17,6.82-6.53,6.8a1.5,1.5,0,0,0,0,3,16.58,16.58,0,0,0,3.66,0c1.9-.29,1.09-3.18-.8-2.89Z"/><path class="cls-1" d="M560.16,97.48c0,3.1,0,6.2,0,9.31l3-.4c-.55-4-.87-8.44.92-12.15,2.06-4.25,6.55-5.68,10.93-6.15,1.9-.2,1.92-3.2,0-3-5.18.55-10.37,2.19-13.15,6.94-2.65,4.55-2.29,10.15-1.6,15.15.24,1.71,2.95,1.25,2.95-.39,0-3.11,0-6.21,0-9.31a1.5,1.5,0,0,0-3,0Z"/><path class="cls-1" d="M602.69,89.77c1.46,3.45-.47,15.36,6.9,13.92,2.69-.53,5-4.09,6.6-6,2.48-3.07,4.61-6.54,7.38-9.36l-2.51-.66c2,11.74,3.3,24.16,2,36-.61,5.78-1.89,11.42-7.28,14.52-5.92,3.4-14,3-15.23-4.87-.3-1.91-3.19-1.1-2.89.79,2.34,14.55,22.22,9.65,26.44-1.13,2.82-7.22,2.55-15.83,2.23-23.43A186.22,186.22,0,0,0,624,86.87a1.51,1.51,0,0,0-2.5-.66c-3.88,4-6.28,9.78-10.71,13.14-5.41,4.1-4.2-8.11-5.46-11.1-.75-1.77-3.34-.24-2.59,1.52Z"/><path class="cls-1" d="M584.72,72.53c-.64-1.37-1.2-1.91-1-3.76h-3c-.05,8.84-.75,17.66-1,26.5-.17,5.39-.4,11,.95,16.26.65,2.58,1.86,6.27,4.88,6.91,4,.84,7.08-4.18,8.86-6.9,1.06-1.62-1.54-3.13-2.59-1.52s-3.36,5.87-5.7,5.22c-1.44-.41-1.9-2.27-2.31-3.57a34.1,34.1,0,0,1-1.19-9.85c-.1-11,1-22,1.11-33,0-2-2.81-1.88-3,0-.24,2.22.5,3.32,1.41,5.28.81,1.75,3.4.23,2.59-1.52Z"/><path class="cls-1" d="M580.86,96.12A41.81,41.81,0,0,1,595.92,88c1.84-.57,1.05-3.46-.8-2.89A45.47,45.47,0,0,0,578.74,94c-1.47,1.26.66,3.37,2.12,2.12Z"/></g><g id="letmein"><path class="cls-1" d="M.33,344c-.06,10.46-1,21,.54,31.37.49,3.35,1.17,8.48,4.36,10.49,3.45,2.18,7-1.08,9.13-3.53,1.28-1.44-.83-3.56-2.12-2.12-2.38,2.67-5.07,5-6.95.82-1.74-3.89-1.87-8.71-2.1-12.89-.44-8.06.1-16.09.14-24.14a1.5,1.5,0,0,0-3,0Z"/><path class="cls-1" d="M25.49,373.48c4.52-.14,7.13-4.53,8-8.53.61-2.77.8-8.28-3.3-8.3-4.38,0-6.74,5.46-7.16,9-.52,4.4.56,9.73,3.65,13.06,4,4.31,9,1.89,12-2.11,1.17-1.51-.94-3.65-2.12-2.12-2.45,3.17-5.74,5.24-8.47,1.22a14.64,14.64,0,0,1-1.83-11.34c.58-2.19,4.54-7.46,4.56-2.42,0,3-1.69,8.39-5.38,8.51-1.93.06-1.94,3.06,0,3Z"/><path class="cls-1" d="M48.49,350.48c0-1.8,0-3.59,0-5.39l-2.94.4c2.35,11.18-.49,23.08,2.9,34.06.57,1.84,3.47,1.05,2.89-.8-3.37-10.93-.55-22.89-2.9-34.06-.35-1.68-2.95-1.27-2.95.4s0,3.59,0,5.39,3,1.93,3,0Z"/><path class="cls-1" d="M43.81,361.24c4-1,8.19-1.6,12.18-2.86,1.84-.58,1-3.48-.8-2.9-4,1.27-8.13,1.84-12.18,2.87-1.87.48-1.08,3.37.8,2.89Z"/><path class="cls-1" d="M57.4,367.31c1.63,1.35,1.8,4.41,2.29,6.34a1.51,1.51,0,0,0,2.89,0c1.38-4.11,1.89-8.41,4.35-12.08H64.34c2.36,3.29,3.37,7,4.83,10.76a1.51,1.51,0,0,0,2.2.9c3.68-2.69,4.54-7.09,7.5-10.38l-2.35-.3c1.94,4,2.64,8.49,5,12.34,1,1.64,3.6.14,2.59-1.51-2.36-3.83-3.08-8.32-5-12.35a1.52,1.52,0,0,0-2.36-.3c-2.67,3-3.63,7.52-6.89,9.91l2.2.9c-1.55-4-2.62-8-5.13-11.48a1.52,1.52,0,0,0-2.59,0c-2.61,3.89-3.19,8.43-4.65,12.79h2.89c-.66-2.6-.86-5.85-3.06-7.66-1.48-1.22-3.61.89-2.12,2.12Z"/><path class="cls-1" d="M86.42,367a8.93,8.93,0,0,0,8.69-9c-.27-5.87-6.49-3.27-8.84-.36C79.49,366,90.14,383.76,99,373c1.21-1.48-.9-3.61-2.12-2.12-5.82,7.07-11.4-3.71-9.36-9.38.43-1.2,4.53-6.3,4.65-3.19S89.29,364,86.42,364c-1.93,0-1.94,3,0,3Z"/><path class="cls-1" d="M104.71,360.86c2.24,2.65,1.91,6.85,2.48,10.09.34,1.9,3.23,1.09,2.9-.8-.71-4-.52-8.18-3.26-11.41-1.25-1.48-3.36.65-2.12,2.12Z"/><path class="cls-1" d="M103.62,350.54a1.5,1.5,0,0,0,0-3,1.5,1.5,0,0,0,0,3Z"/><path class="cls-1" d="M113.79,359.12c1.25,2.75,1.55,5.71,2.31,8.6a1.52,1.52,0,0,0,2.74.36c2.26-3.78,2.7-9.12,6.49-11.77l-1.82-.23c4.32,5.57,5.1,12.94,8.92,18.81,1,1.61,3.65.11,2.59-1.51-4-6.12-4.87-13.59-9.39-19.42a1.49,1.49,0,0,0-1.82-.24c-4.48,3.13-4.92,8.43-7.56,12.85l2.74.35c-.83-3.16-1.24-6.31-2.6-9.31-.8-1.76-3.39-.24-2.6,1.51Z"/></g><g id="_12345" data-name="12345"><path class="cls-1" d="M28.48,118.27c4.12-3.74,6.62-8.4,8.48-13.59H34.07c2,8.8,2.52,17.88,6,26.27.73,1.75,3.64,1,2.89-.8-3.51-8.39-4.08-17.47-6-26.27-.34-1.55-2.42-1.29-2.89,0a29,29,0,0,1-7.71,12.26c-1.44,1.3.69,3.42,2.12,2.13Z"/><path class="cls-1" d="M50.53,106a13.54,13.54,0,0,1,6.54-6.88l-2-.54c5.36,8.25,5,18.16,1.87,27.18a1.5,1.5,0,0,0,1.45,1.89c6-.77,11.91-1.82,17.85-2.85,1.9-.33,1.1-3.23-.79-2.9-5.68,1-11.35,2-17.06,2.75l1.44,1.9c3.41-9.72,3.59-20.61-2.17-29.49a1.53,1.53,0,0,0-2-.53,16.78,16.78,0,0,0-7.93,8.67c-.74,1.78,2.16,2.56,2.9.8Z"/><path class="cls-1" d="M72.56,93.78c2.62-1.64,6.49-3,9.15-.56,3.49,3.13.32,8.16-1.84,10.89-.85,1.06-.12,3,1.46,2.51,4.9-1.59,11.1-1.61,13.24,4,1.36,3.57,0,8.26-4.55,7.56-1.89-.29-2.71,2.6-.8,2.89,6.14,1,9.94-4.07,8.61-10-1.84-8.2-10.32-9.66-17.3-7.41L82,106.23c3.13-3.94,6.35-9.89,2.47-14.47C81,87.65,75.1,88.66,71,91.18c-1.63,1-.13,3.62,1.52,2.6Z"/><path class="cls-1" d="M105.44,82.9c1.56,6.19,1.33,12.55,2,18.86.09.85.91,1.85,1.9,1.45,6-2.46,10.48-7.57,16.76-9.35a1.51,1.51,0,0,0-.8-2.9c-6.35,1.8-10.75,6.89-16.76,9.35l1.9,1.45c-.68-6.58-.45-13.2-2.09-19.66-.47-1.87-3.36-1.08-2.89.8Z"/><path class="cls-1" d="M122.87,77.27c1.81,9.18.74,18.89,3.7,27.85.72,2.18,1.58,6.27,4.37,6.36,1.88.06,1.6-1,2.49-2.07,1.21-1.49-.9-3.62-2.13-2.12a12,12,0,0,1-.77,1.14c-.16.75-.13.72.09-.11a2.74,2.74,0,0,0-.91-3.24,43.92,43.92,0,0,1-2.11-10.53c-.6-6-.65-12.09-1.83-18.08-.38-1.89-3.27-1.09-2.9.8Z"/><path class="cls-1" d="M155.84,69.93C147.23,71.78,136,77.13,141,87.62a1.51,1.51,0,0,0,2.05.54c5.37-3.51,11.3-2.51,12.81,4.32,1.42,6.48-2.73,11.67-9.25,12.07l1.45,1.11c-.7-1.71-1.65-3.3-2.34-5s-3.62-1-2.89.8,1.63,3.3,2.34,5a1.54,1.54,0,0,0,1.44,1.1c8.44-.52,14.1-7.41,12.14-15.87-2-8.66-10.19-10.7-17.21-6.11l2,.54c-4-8.36,6.8-11.94,13.06-13.29,1.89-.4,1.09-3.29-.79-2.89Z"/><path class="cls-1" d="M177.59,65.71c-3.52,4-5.25,10.25-6.54,15.25-1.63,6.38-2.54,13,1.33,18.69,2.9,4.29,7.6,6.18,12.19,3.18C190,99.3,192.34,92.18,193,86.11a1.51,1.51,0,0,0-1.1-1.45c-9.4-1.7-16.05,4.68-16,14a1.5,1.5,0,0,0,3,0c-.06-7.23,4.64-12.5,12.17-11.14L190,86.11c-.57,5-2.55,11.2-7,14.13-5.63,3.73-10.12-3.56-10.43-8.57-.29-4.52,1-9.2,2.35-13.46,1.1-3.42,2.3-7.63,4.74-10.38,1.28-1.44-.84-3.57-2.12-2.12Z"/><path class="cls-1" d="M234.59,100c-2.66,10.61-8.39,22.62-6.61,33.75,1.36,8.47,7.3,14.93,15.22,8.48,1.49-1.22-.64-3.33-2.13-2.12-9.37,7.64-10.85-9.26-9.86-15,1.42-8.25,4.24-16.19,6.28-24.29.47-1.87-2.42-2.67-2.9-.8Z"/><path class="cls-1" d="M260.49,127.12c-6.16-9.83-17.29,4.95-14.89,12.41,2.59,8.05,13.33,3.35,15.75-2.31,2.1-4.89-1.5-8.86-5.69-11-1.72-.87-3.24,1.72-1.51,2.59,3,1.52,6.17,4.15,4.17,7.76-1.29,2.33-4.38,4.45-7.12,4.23-8.2-.67,2-19.7,6.7-12.22,1,1.64,3.62.13,2.59-1.51Z"/><path class="cls-1" d="M294.55,124.49a38.18,38.18,0,0,0,9.11-7.27l-2.56-1.06c.71,10-3.76,19.53-6.2,29.08-.48,1.87,2.41,2.67,2.89.8,2.51-9.82,7-19.55,6.31-29.88-.09-1.2-1.64-2.11-2.56-1.07a35.82,35.82,0,0,1-8.5,6.81c-1.65,1-.14,3.59,1.51,2.59Z"/><path class="cls-1" d="M311.83,123.29c2.41-2.26,5.42-3.38,8.25-5l-2.05-.53c5.07,7.55-5.23,20.77-9.73,26.63a1.51,1.51,0,0,0,1.3,2.26c5.21-.17,10.22-.42,15.32.93a1.5,1.5,0,0,0,.8-2.89c-5.34-1.42-10.64-1.22-16.12-1l1.29,2.25c5.21-6.79,15.68-20.8,9.73-29.66a1.53,1.53,0,0,0-2.05-.54c-3.08,1.75-6.25,3-8.87,5.46-1.41,1.32.71,3.44,2.13,2.13Z"/><path class="cls-1" d="M337,120.64c2.42-.17,4.83-.3,7.26-.38l-1.45-1.1c.55,3-4,5.59-4.52,8.66-.5,2.88.31,3.74,2.28,5.35,3.94,3.23,4.69,8.07,1.32,12.05-1.09,1.3-6.81,5.77-6.47,1.54.15-1.92-2.85-1.91-3,0-.25,3.15,1.65,5.19,4.86,4.73,3.86-.56,7.37-4.07,8.88-7.5a10.87,10.87,0,0,0-2.66-12.47c-.88-.75-2-1-2.36-2.24-.63-2.21,2.12-3.92,3.28-5.37a6.07,6.07,0,0,0,1.28-5.55,1.5,1.5,0,0,0-1.44-1.1c-2.43.08-4.84.21-7.26.38-1.92.14-1.93,3.14,0,3Z"/><path class="cls-1" d="M413.58,316.31c.31,8.06-1.72,15.95-3.46,23.76-.41,1.88,2.48,2.68,2.9.8,1.79-8.06,3.88-16.24,3.56-24.56-.07-1.92-3.07-1.93-3,0Z"/><path class="cls-1" d="M414.75,303.46a8.6,8.6,0,0,1,.9.81,5.47,5.47,0,0,1,.74.91,1.54,1.54,0,0,0,2.05.53,1.51,1.51,0,0,0,.54-2,11.4,11.4,0,0,0-2.71-2.79,1.51,1.51,0,0,0-2.06.53,1.55,1.55,0,0,0,.54,2.06Z"/><path class="cls-1" d="M421.68,324.7c.76,5.53,1.19,11.11,1.76,16.67.15,1.35,2.05,2.2,2.8.75,1.51-2.89,1.53-6.3,1.88-9.48.27-2.41,2.4-13,6.6-8,2.09,2.5,1,8.65,1,11.65s-.13,6.24,1.24,9c.86,1.73,3.45.22,2.59-1.51-2.74-5.52,3-20.9-5.36-23-10.52-2.69-8,15-10.56,19.87l2.79.76c-.6-5.82-1.07-11.67-1.87-17.46-.27-1.91-3.16-1.1-2.89.79Z"/><path class="cls-1" d="M461.83,326.15c-7.48-6.51-13.25,7.6-14.25,13-.61,3.33-1,8.08,1.83,10.58,3.72,3.28,9.24-.18,12.45-2.44,1.57-1.1.07-3.7-1.51-2.59-2,1.38-6.61,4.95-9,2.7-1.87-1.74-1.17-5.79-.74-7.93.54-2.66,4.57-15.15,9.13-11.18,1.45,1.26,3.59-.85,2.13-2.12Z"/><path class="cls-1" d="M469.53,330.08c-3.72,3.77-7.58,10-7.39,15.48.17,4.76,4.92,7.14,9.05,5.1,7.12-3.52,11.37-19-.31-18.29-1.92.12-1.93,3.12,0,3,8-.48,3.48,10.14-.73,12.45-1.32.72-3.11,1-4.28-.23-1.38-1.47-.62-4-.09-5.67a25.73,25.73,0,0,1,5.87-9.72c1.35-1.38-.77-3.5-2.12-2.12Z"/><path class="cls-1" d="M484.48,338.07a38.58,38.58,0,0,0-.33,10.51c.25,1.82,2.76,1.11,3-.4,1.23-10.18,11.1-14.83,20.47-13.67,1.91.23,1.89-2.77,0-3-11.22-1.38-22.06,5-23.47,16.67l2.94-.4a35.93,35.93,0,0,1,.44-9.71c.26-1.91-2.74-1.89-3,0Z"/><path class="cls-1" d="M501.73,343.7a17,17,0,0,1,3.36,7c.38,1.63,3.05,1.31,2.94-.39-.59-9.81,7.27-13.45,15.94-11.3,1.87.47,2.67-2.42.8-2.89-10.51-2.62-20.45,2.4-19.74,14.19l3-.4a20,20,0,0,0-4.13-8.34c-1.23-1.49-3.34.64-2.12,2.12Z"/><path class="cls-1" d="M523.07,351.29c5.91.91,12-2.77,15-7.85.88-1.49,1.75-3.7.44-5.22-1.48-1.71-4.17-.79-5.89-.09-6.41,2.61-9.79,9-6.8,15.6,2.61,5.71,8.83,8.62,14.5,5.38a1.5,1.5,0,0,0-1.51-2.59c-3.88,2.21-7.94.35-10-3.43a8.17,8.17,0,0,1,3-11.27,13.64,13.64,0,0,1,3.18-1.39c.6-.17,1.34.05,1.15-.38.38.85-1.29,2.8-1.75,3.36-2.47,3-6.49,5.61-10.53,5-1.89-.29-2.7,2.6-.79,2.89Z"/><path class="cls-1" d="M554.07,340.94a11.79,11.79,0,0,0-7,15.94,7.39,7.39,0,0,0,6.87,4.39c5-.11,9.36-4,12.64-7.38,1.35-1.38-.77-3.51-2.12-2.12-3,3-11.77,10.74-14.8,3.59-1.89-4.45.57-10.1,5.19-11.52,1.84-.57,1.06-3.47-.8-2.9Z"/><path class="cls-1" d="M571.88,325.17c-.68,5.66-6.94,45.93,7.93,36.36,1.62-1,.11-3.64-1.52-2.59-6.87,4.43-5.62-11.63-5.44-15.07.32-6.28,1.28-12.47,2-18.7.23-1.92-2.77-1.9-3,0Z"/><path class="cls-1" d="M565.41,342.73c5.92-.15,11.82.12,17.74.32,1.93.06,1.92-2.94,0-3-5.92-.2-11.82-.47-17.74-.32-1.93,0-1.93,3,0,3Z"/><path class="cls-1" d="M272.8,109.37c-1.92,9.45-4.17,20.43-1.94,30,2.63,11.32,12.39,6.62,18.78,1.14,1.46-1.26-.67-3.37-2.12-2.12-2.39,2.05-7.87,7.15-11.47,4.77-2.65-1.76-2.76-6.79-2.87-9.56-.33-7.84,1-15.77,2.51-23.43.39-1.89-2.51-2.69-2.89-.8Z"/></g><g id="_123123" data-name="123123"><path class="cls-1" d="M220.32,411.12a123.71,123.71,0,0,0,10.26-10.85l-2.51-.66c3.58,10.89.06,22.83-.11,34,0,1.93,3,1.93,3,0,.17-11.46,3.69-23.57,0-34.78-.31-1-1.76-1.61-2.51-.66A122.12,122.12,0,0,1,218.2,409a1.5,1.5,0,0,0,2.12,2.12Z"/><path class="cls-1" d="M245.42,400.14a14.93,14.93,0,0,1,6.41-4.33l-1.69-.69c5.42,9.55-.6,20.78-4.56,29.73a1.52,1.52,0,0,0,1.29,2.26c5.44-.32,10.87-.6,16.32-.65a1.5,1.5,0,0,0,0-3c-5.45.05-10.88.33-16.32.65l1.3,2.25c4.46-10.08,10.63-22.06,4.56-32.76a1.53,1.53,0,0,0-1.69-.69A18.37,18.37,0,0,0,243.3,398c-1.31,1.41.8,3.54,2.12,2.12Z"/><path class="cls-1" d="M276.25,399.05c.76-1.55,4.41-5,6.43-4.24,2.9,1,.19,5.06-.59,6.51-1.35,2.47-3.11,5.18-1.93,8.05s4.17,4.14,6.36,6c6.36,5.41-4.13,13-8.94,8.53-1.41-1.31-3.54.8-2.12,2.12,4.28,4,12,1.86,15.05-2.76,4.13-6.2-1.72-9.34-5.76-12.91-5.87-5.19,5.91-11,1.57-16.78-3.31-4.42-10.84.24-12.66,4-.85,1.73,1.74,3.25,2.59,1.51Z"/><path class="cls-1" d="M310,396.7a56.11,56.11,0,0,1,4.45-6.2l-2.56-1.06c.66,9.74,4,20.06.86,29.64-.61,1.83,2.29,2.62,2.89.79,3.28-9.88-.07-20.4-.75-30.43-.08-1.15-1.67-2.15-2.56-1.06a59.78,59.78,0,0,0-4.92,6.81c-1,1.65,1.59,3.16,2.59,1.51Z"/><path class="cls-1" d="M333.5,395.13c3.27-5.51,5.57.4,5.75,2.07a8.59,8.59,0,0,1-.52,3.58,25.57,25.57,0,0,1-3.39,6.3c-2.39,3.5-5.25,6.63-7.89,9.94a1.53,1.53,0,0,0,.3,2.35c4.4,3.2,9.5,2.46,14.65,2.39,1.93,0,1.94-3,0-3-4.55.06-9.21.88-13.14-2l.31,2.36c4.73-5.92,12.57-13,12.74-21.15.15-6.91-7.47-11-11.4-4.37a1.5,1.5,0,0,0,2.59,1.51Z"/><path class="cls-1" d="M358.06,387.83c1.05-.6,5.26-3.48,6.31-2.58.6.51-.61,3.19-.83,3.81-1.09,3-2.51,5.89-3.54,8.92a1.52,1.52,0,0,0,1.05,1.84c4.9,1.71,11.53,7.29,9.17,13.13-2.16,5.36-9.86,5.1-10.68-.93-.26-1.91-3.16-1.1-2.9.79,1,7.51,10.34,9.27,15,3.7,6.42-7.69-2.56-17.06-9.79-19.58l1.05,1.85c1.34-3.95,5.57-9.91,4.55-14.23-1.24-5.25-8.44-.73-10.89.69a1.5,1.5,0,0,0,1.51,2.59Z"/></g></g></g></svg>