<svg xmlns="http://www.w3.org/2000/svg" viewBox="0 0 132.55 25.84"><defs><style>.cls-1{fill:none;}.cls-2{fill:#005afb;}</style></defs><title>shop</title><g id="Layer_2" data-name="Layer 2"><g id="shop"><g id="part_1"><path class="cls-1" d="M38.13,19.49a2.85,2.85,0,0,0,2.38-1.31L36,18.61a3.24,3.24,0,0,0,.43.4A2.78,2.78,0,0,0,38.13,19.49Z"/><path class="cls-1" d="M82.33,15.46A2.68,2.68,0,0,0,82,16.9a2,2,0,0,0,.56,1.59A2.11,2.11,0,0,0,84,19a3,3,0,0,0,1.63-.45,4.62,4.62,0,0,0,1.18-1.06l.06-3.82-2.43.23a9.08,9.08,0,0,0-1,.53A3.52,3.52,0,0,0,82.33,15.46Z"/><path class="cls-1" d="M107.88,10.64a5,5,0,0,0-.4-1.38,2.58,2.58,0,0,0-.82-1,2.21,2.21,0,0,0-1.33-.38A2.8,2.8,0,0,0,103.06,9a5.2,5.2,0,0,0-1,3l5.84-.57C107.92,11.16,107.92,10.92,107.88,10.64Z"/><path class="cls-1" d="M38.93,17.91a8.38,8.38,0,0,0,1-4.33,11.55,11.55,0,0,0-.2-2.05,6.43,6.43,0,0,0-.58-1.84A3.55,3.55,0,0,0,38,8.4a2.78,2.78,0,0,0-1.65-.49,2.9,2.9,0,0,0-1.71.5A3.56,3.56,0,0,0,33.5,9.76a6,6,0,0,0-.59,1.8,12.17,12.17,0,0,0-.17,2,11.77,11.77,0,0,0,.21,2.3,6.38,6.38,0,0,0,.64,1.89,4.14,4.14,0,0,0,.67.9l4.47-.43A2.69,2.69,0,0,0,38.93,17.91Z"/><path class="cls-2" d="M86.83,13c-.73.22-1.37.43-1.93.64-.18.06-.33.17-.51.25l2.43-.23Z"/><path class="cls-1" d="M54.77,16.12a10.5,10.5,0,0,0,0-4.34,6,6,0,0,0-.66-1.73A3.66,3.66,0,0,0,53,8.84a3.06,3.06,0,0,0-1.71-.46,3,3,0,0,0-1.63.44,4.72,4.72,0,0,0-1.16,1l0,7.42,6.12-.64C54.67,16.44,54.73,16.29,54.77,16.12Z"/><path class="cls-1" d="M50.62,18.1a3.68,3.68,0,0,0,.59.65,3.86,3.86,0,0,0,.87.52,2.77,2.77,0,0,0,1.14.2,2.73,2.73,0,0,0,1.4-.38A3.33,3.33,0,0,0,55.75,18a5.56,5.56,0,0,0,.61-1.38l-6.12.6v.14A2.85,2.85,0,0,0,50.62,18.1Z"/><path class="cls-1" d="M109.77,12.19c0-.24,0-.51-.06-.77l-5.84.57c0,.07,0,.13,0,.2Z"/><path class="cls-1" d="M22.91,19.17a2.34,2.34,0,0,0,.6-.1.94.94,0,0,0,.54-.41,1.53,1.53,0,0,0,.17-.76V11.32a3.12,3.12,0,0,0-.64-2.1A2,2,0,0,0,22,8.48a3.71,3.71,0,0,0-1.26.22,5,5,0,0,0-1,.52,3.21,3.21,0,0,0-.67.65c-.16.22-.28.4-.37.55v7.35a1.34,1.34,0,0,0,.18.73,1.07,1.07,0,0,0,.53.44,2.54,2.54,0,0,0,.59.19,4.49,4.49,0,0,0,.67.1v.71l1.6-.16v-.55Z"/><path class="cls-1" d="M128.16,16.91,129.37,14c.43-1,.89-2.16,1.41-3.51l.26-.68a1.92,1.92,0,0,0,.12-.52l-5.85.57c.32.81.74,1.85,1.29,3.14Q127.6,15.46,128.16,16.91Z"/><path class="cls-2" d="M9.28,18.43a2.76,2.76,0,0,1-1.09.67,4.84,4.84,0,0,1-1.56.23,4.51,4.51,0,0,1-2.1-.46A5.13,5.13,0,0,1,3,17.66,7.3,7.3,0,0,1,1.81,15.9a14.37,14.37,0,0,1-.76-2.11H0l.18,6.3h1l.56-.94a9.72,9.72,0,0,0,2.12.93,8.52,8.52,0,0,0,2.47.38,6.55,6.55,0,0,0,4.48-1.59,5.1,5.1,0,0,0,1.8-4,5.14,5.14,0,0,0-.28-1.79,4.26,4.26,0,0,0-.86-1.42,5.85,5.85,0,0,0-1.25-1,14.14,14.14,0,0,0-1.5-.77C8.19,9.62,7.6,9.39,7,9.17s-1.23-.49-1.87-.79A4.18,4.18,0,0,1,3.5,7.09a3.33,3.33,0,0,1-.56-2,2.51,2.51,0,0,1,.87-1.93,3,3,0,0,1,2.11-.79,4,4,0,0,1,2,.45A4.18,4.18,0,0,1,9.25,4a7.24,7.24,0,0,1,.93,1.74c.23.64.45,1.31.64,2h1l-.1-6.11h-1l-.53.88a11.65,11.65,0,0,0-1.84-.9,6.26,6.26,0,0,0-2.28-.39,6.23,6.23,0,0,0-2.14.38A5.6,5.6,0,0,0,2.17,2.7,4.88,4.88,0,0,0,1,4.32a4.46,4.46,0,0,0-.43,2,4.79,4.79,0,0,0,.86,3A6.13,6.13,0,0,0,3.8,11.08c.53.24,1.16.49,1.88.77s1.37.51,1.94.74A3.83,3.83,0,0,1,9.47,14a3.69,3.69,0,0,1,.62,2.07,3.91,3.91,0,0,1-.2,1.33A2.7,2.7,0,0,1,9.28,18.43Z"/><path class="cls-2" d="M27.37,19a1.08,1.08,0,0,1-.55-.44,1.41,1.41,0,0,1-.16-.73V11.14A4.74,4.74,0,0,0,25.74,8,3.29,3.29,0,0,0,23.1,6.94a4.94,4.94,0,0,0-1.5.21,4.86,4.86,0,0,0-1.17.52,6.45,6.45,0,0,0-.92.69l-.78.76h-.05V.19L18.5,0,13.76.29v.83c.25,0,.56,0,1,.09a1.9,1.9,0,0,1,.82.24,1.59,1.59,0,0,1,.53.67,2.13,2.13,0,0,1,.2.88V17.9a1.43,1.43,0,0,1-.18.76.94.94,0,0,1-.54.41,3.27,3.27,0,0,1-.54.1l-.62.06v.85h4.8l1.46-.14v-.71a4.49,4.49,0,0,1-.67-.1,2.54,2.54,0,0,1-.59-.19,1.07,1.07,0,0,1-.53-.44,1.34,1.34,0,0,1-.18-.73V10.42c.09-.15.21-.33.37-.55a3.21,3.21,0,0,1,.67-.65,5,5,0,0,1,1-.52A3.71,3.71,0,0,1,22,8.48a2,2,0,0,1,1.57.74,3.12,3.12,0,0,1,.64,2.1V17.9a1.53,1.53,0,0,1-.17.76.94.94,0,0,1-.54.41,2.34,2.34,0,0,1-.6.1l-.66.06v.55l6.05-.59a2.06,2.06,0,0,1-.39-.05A5.44,5.44,0,0,1,27.37,19Z"/><path class="cls-2" d="M42.56,13.56a6.65,6.65,0,0,0-1.74-4.82,5.89,5.89,0,0,0-4.44-1.81,5.9,5.9,0,0,0-4.57,1.9,7,7,0,0,0-1.75,4.91,7.6,7.6,0,0,0,.5,2.81,6.45,6.45,0,0,0,1.34,2.12c.06.06.13.1.19.15l2.17-.21a4.14,4.14,0,0,1-.67-.9A6.38,6.38,0,0,1,33,15.82a11.77,11.77,0,0,1-.21-2.3,12.17,12.17,0,0,1,.17-2,6,6,0,0,1,.59-1.8,3.56,3.56,0,0,1,1.15-1.35,2.9,2.9,0,0,1,1.71-.5A2.78,2.78,0,0,1,38,8.4,3.55,3.55,0,0,1,39.1,9.69a6.43,6.43,0,0,1,.58,1.84,11.55,11.55,0,0,1,.2,2.05,8.38,8.38,0,0,1-1,4.33,2.69,2.69,0,0,1-.2.27l2.53-.25a6.79,6.79,0,0,0,.88-1.72A8.58,8.58,0,0,0,42.56,13.56Z"/><path class="cls-2" d="M57.28,10.92a6.42,6.42,0,0,0-1.19-2.11,5.22,5.22,0,0,0-1.7-1.36,4.71,4.71,0,0,0-2.19-.51,4.22,4.22,0,0,0-2,.52,5.48,5.48,0,0,0-1.68,1.3l-.1,0V7.29l-.18-.15-4.36.28v.86a4.52,4.52,0,0,1,.8.11,1.58,1.58,0,0,1,.65.24,1.6,1.6,0,0,1,.51.58,1.55,1.55,0,0,1,.19.75v7.5l2.42-.23V9.81a4.9,4.9,0,0,1,1.16-1,3.38,3.38,0,0,1,3.35,0,3.66,3.66,0,0,1,1.16,1.22,5.43,5.43,0,0,1,.64,1.74A9.38,9.38,0,0,1,55,13.76a10.83,10.83,0,0,1-.24,2.38c0,.17-.11.32-.16.49l2.62-.26a7.18,7.18,0,0,0,.49-2.71A8.26,8.26,0,0,0,57.28,10.92Z"/><path class="cls-2" d="M73.19,13a13,13,0,0,0-1.62-.63c-.58-.19-1.06-.37-1.46-.52a5.27,5.27,0,0,1-1-.48,1.79,1.79,0,0,1-.6-.66,2.19,2.19,0,0,1-.2-1,1.66,1.66,0,0,1,.61-1.29,2.41,2.41,0,0,1,1.67-.54,3,3,0,0,1,2.2.87A4.14,4.14,0,0,1,74,11h.9l-.19-4.12h-.94l-.3.68a5.4,5.4,0,0,0-1.27-.47,6.42,6.42,0,0,0-1.54-.19A4.39,4.39,0,0,0,67.51,8a3.48,3.48,0,0,0-1.17,2.66,3.09,3.09,0,0,0,.37,1.55,3.62,3.62,0,0,0,.93,1.12,6,6,0,0,0,1.28.75,13.57,13.57,0,0,0,1.35.49c.43.13.8.26,1.15.4l3.68-.36a3.21,3.21,0,0,0-.66-.81A5.19,5.19,0,0,0,73.19,13Z"/><path class="cls-2" d="M87.13,9a3,3,0,0,0-1-1.3,3.5,3.5,0,0,0-1.48-.64,10.53,10.53,0,0,0-1.9-.15,5.56,5.56,0,0,0-1.62.25,5.75,5.75,0,0,0-1.41.62,4.18,4.18,0,0,0-1.1,1,1.83,1.83,0,0,0-.42,1.14,1.76,1.76,0,0,0,.31,1,1,1,0,0,0,.95.46A1.6,1.6,0,0,0,80.59,11,1.09,1.09,0,0,0,81,10.2a4.1,4.1,0,0,0-.12-.94,3.56,3.56,0,0,1-.12-.76,1.79,1.79,0,0,1,.72-.42,2.89,2.89,0,0,1,1.11-.21,2.18,2.18,0,0,1,1.34.36A2.7,2.7,0,0,1,85,10c0,.32.07.53.07.64v1.29a17.82,17.82,0,0,1-2.41.93c-1.19.4-2,.67-2.37.82a7,7,0,0,0-1,.49l-.12.08,3.48-.34a4.81,4.81,0,0,1,.51-.25c.55-.21,1.2-.42,1.93-.64v.66l2.41-.24c0-.7,0-1.45,0-2.28A5.55,5.55,0,0,0,87.13,9Z"/><path class="cls-2" d="M98.48,8.59V7.34h-3.3V6a10.63,10.63,0,0,1,.48-3.74c.31-.78.76-1.18,1.34-1.21.1.15.23.34.37.58a4.76,4.76,0,0,0,.48.65,2.68,2.68,0,0,0,.57.46,1.46,1.46,0,0,0,.71.16,1.1,1.1,0,0,0,.94-.4,1.53,1.53,0,0,0,.31-1A1.36,1.36,0,0,0,99.8.45,2.83,2.83,0,0,0,98.06,0a4.72,4.72,0,0,0-3.78,1.81,7.08,7.08,0,0,0-1.51,4.72v.81H90.24V8.59h2.53V12.9l2.41-.23V8.59Z"/><path class="cls-2" d="M109.37,8.57a4.15,4.15,0,0,0-1.62-1.2,5.78,5.78,0,0,0-2.4-.44,5.43,5.43,0,0,0-2.46.56A5.56,5.56,0,0,0,101.06,9a6.83,6.83,0,0,0-1.16,2.16,7.23,7.23,0,0,0-.27,1.09L102.1,12a5.2,5.2,0,0,1,1-3,2.8,2.8,0,0,1,2.27-1.13,2.21,2.21,0,0,1,1.33.38,2.58,2.58,0,0,1,.82,1,5,5,0,0,1,.4,1.38c0,.28,0,.52.06.78l2.51-.24a5,5,0,0,0-.19-.89A4.77,4.77,0,0,0,109.37,8.57Z"/><path class="cls-2" d="M116.25,0l-4.81.29v.83a6.22,6.22,0,0,1,1,.15,2.53,2.53,0,0,1,.85.29,1.69,1.69,0,0,1,.53.64,2,2,0,0,1,.2.88v7.75l2.41-.24V.19Z"/><path class="cls-2" d="M123.32,9.34c0-.13-.09-.26-.13-.38a.9.9,0,0,1-.06-.26c0-.13.18-.24.54-.34a4.29,4.29,0,0,1,.94-.16V7.29h-5.84v.86a3.32,3.32,0,0,1,1.16.42,1.9,1.9,0,0,1,.84.93c.09.22.17.42.27.65l2.5-.25Z"/><path class="cls-2" d="M131.45,8.54a3.25,3.25,0,0,1,1-.44V7.29h-4.75v.83a3.31,3.31,0,0,1,1.12.36c.39.19.59.4.59.63a2.25,2.25,0,0,1-.05.22l1.39-.13A2.34,2.34,0,0,1,131.45,8.54Z"/></g><g id="part_2"><polygon class="cls-2" points="22.42 20.08 22.42 19.94 20.96 20.08 22.42 20.08"/><path class="cls-2" d="M24,20.08h6.29v-.85l-.24,0L24,19.78Z"/><path class="cls-2" d="M38.13,19.49A2.78,2.78,0,0,1,36.47,19a3.24,3.24,0,0,1-.43-.4l-2.18.21A5.81,5.81,0,0,0,35.63,20a5.94,5.94,0,0,0,2.33.46A6.63,6.63,0,0,0,40.61,20a5.62,5.62,0,0,0,2.08-1.54c.13-.15.22-.33.34-.49l-2.52.25A2.85,2.85,0,0,1,38.13,19.49Z"/><path class="cls-2" d="M55.75,18a3.33,3.33,0,0,1-1.13,1.08,2.73,2.73,0,0,1-1.4.38,2.77,2.77,0,0,1-1.14-.2,3.86,3.86,0,0,1-.87-.52,3.68,3.68,0,0,1-.59-.65,2.85,2.85,0,0,1-.38-.73v-.14l-2.41.23v6.11a1.82,1.82,0,0,1-.16.77.9.9,0,0,1-.55.45,3.79,3.79,0,0,1-.67.13l-.78.07v.85h7.15V25a5.87,5.87,0,0,1-1-.13,5.06,5.06,0,0,1-.89-.23,1,1,0,0,1-.56-.45,1.55,1.55,0,0,1-.18-.78V19.55h.1a4.55,4.55,0,0,0,1.21.61,5.85,5.85,0,0,0,1.89.26,5.43,5.43,0,0,0,2.26-.48,6.24,6.24,0,0,0,1.93-1.38A6.66,6.66,0,0,0,59,16.43s0,0,0-.06l-2.63.26A5.56,5.56,0,0,1,55.75,18Z"/><path class="cls-2" d="M73.43,15.07a4.66,4.66,0,0,1,1,.54,2,2,0,0,1,.63.69,1.87,1.87,0,0,1,.22.94,2,2,0,0,1-.68,1.63,3,3,0,0,1-1.92.56A3.26,3.26,0,0,1,71.14,19a4.58,4.58,0,0,1-1.21-1,6.06,6.06,0,0,1-.82-1.22,5.38,5.38,0,0,1-.44-1.19h-.89l.13,4.45h1l.26-.84a5.86,5.86,0,0,0,1.34.74,5.33,5.33,0,0,0,2.06.4A5.13,5.13,0,0,0,76,19.29a3.62,3.62,0,0,0,1.33-2.91A3.54,3.54,0,0,0,77,14.89l-.16-.26L73.19,15Z"/><path class="cls-2" d="M86.76,17.48a4.62,4.62,0,0,1-1.18,1.06A3,3,0,0,1,84,19a2.11,2.11,0,0,1-1.43-.5A2,2,0,0,1,82,16.9a2.68,2.68,0,0,1,.37-1.44,3.52,3.52,0,0,1,1-1,9.08,9.08,0,0,1,1-.53l-3.48.34a3.47,3.47,0,0,0-.73.61,3.1,3.1,0,0,0-.62,1.05,3.89,3.89,0,0,0-.21,1.32,3,3,0,0,0,.93,2.31,3.26,3.26,0,0,0,2.36.89,5,5,0,0,0,2.33-.5,6.26,6.26,0,0,0,1.81-1.42h.08a2.2,2.2,0,0,0,.77,1.38,2.58,2.58,0,0,0,1.62.47,3.36,3.36,0,0,0,1-.14c.31-.09.67-.2,1.07-.35V19l-.86,0a1.22,1.22,0,0,1-.62-.13,1.29,1.29,0,0,1-.53-.5,1.55,1.55,0,0,1-.18-.8c0-1.14,0-2.18,0-3.14,0-.31,0-.66,0-1l-2.41.24Z"/><path class="cls-2" d="M94.54,17.9a1.53,1.53,0,0,1-.17.76.94.94,0,0,1-.54.41,2.16,2.16,0,0,1-.55.1l-.62.06v.85h6.75v-.85c-.26,0-.55-.05-.9-.1a4,4,0,0,1-.83-.19,1.05,1.05,0,0,1-.55-.43,1.35,1.35,0,0,1-.18-.74v-5.1l-2.41.23Z"/><path class="cls-2" d="M109.77,12.19h-5.91c0-.07,0-.13,0-.2l-2.47.24a7.71,7.71,0,0,0-.13,1.35,9.46,9.46,0,0,0,.37,2.64,6.28,6.28,0,0,0,1.13,2.18,5.21,5.21,0,0,0,1.91,1.47,6.17,6.17,0,0,0,2.7.55,5.38,5.38,0,0,0,3.1-.91,6.56,6.56,0,0,0,2.16-2.44l-.91-.56a5.33,5.33,0,0,1-1.62,1.95,3.57,3.57,0,0,1-2,.54,4.06,4.06,0,0,1-1.94-.43,3.64,3.64,0,0,1-1.33-1.19,5.58,5.58,0,0,1-.76-1.81,10.09,10.09,0,0,1-.23-2.29h8.47v-.85a7.18,7.18,0,0,0-.11-1.25l-2.51.24C109.73,11.68,109.77,12,109.77,12.19Z"/><path class="cls-2" d="M115.79,17.9a1.43,1.43,0,0,1-.18.76.93.93,0,0,1-.55.41,3,3,0,0,1-.55.1l-.64.06v.85h6.24v-.85a3.78,3.78,0,0,1-.63-.1,2.47,2.47,0,0,1-.56-.19,1,1,0,0,1-.55-.45,1.47,1.47,0,0,1-.17-.74V10.59l-2.41.24Z"/><path class="cls-2" d="M131.16,9.33a1.92,1.92,0,0,1-.12.52l-.26.68c-.52,1.35-1,2.52-1.41,3.51l-1.21,2.87q-.55-1.46-1.56-3.87c-.55-1.29-1-2.33-1.29-3.14l-2.5.25,1.81,4.36c.67,1.62,1.41,3.45,2.24,5.5a15,15,0,0,1-1.31,2.59A5.23,5.23,0,0,1,124,24.43l-.35-.56a3.63,3.63,0,0,0-.41-.52,1.9,1.9,0,0,0-.54-.4,1.41,1.41,0,0,0-.71-.16,1.15,1.15,0,0,0-.89.41,1.54,1.54,0,0,0-.35,1.06,1.42,1.42,0,0,0,.57,1.1,2.43,2.43,0,0,0,1.59.48,2.7,2.7,0,0,0,1-.19,3.66,3.66,0,0,0,1.08-.73,8,8,0,0,0,1.25-1.6,23.2,23.2,0,0,0,1.46-2.84c.42-.92,1-2.37,1.83-4.33s1.71-4.14,2.74-6.52a1.85,1.85,0,0,1,.27-.43Z"/></g></g></g></svg>
