<svg xmlns="http://www.w3.org/2000/svg" viewBox="0 0 530.36 422.26"><defs><style>.cls-1{fill:#2c2c2c;}</style></defs><title>shopping_collection</title><g id="Layer_2" data-name="Layer 2"><g id="shopping_final"><path class="cls-1" d="M209.12,237.08c3.7-1.85,8.34-1.07,12.34-1.08,5.7,0,11.39-.24,17.1-.15,11,.16,21.86.06,32.81-.49,11.59-.58,23.15-1.18,34.76-1.28,11.06-.1,22.2-1,33.22.41,3.88.48,8.82.91,12.35,2.8,4.55,2.43,3.54,8.3,3.33,12.65s-.56,8.92-.38,13.4c.24,5.88,1.53,11.67,2.23,17.52,2.66,22.32,1.9,44.9.19,67.26q-1,12.83-1.9,25.64c-.48,6.83-1.13,14.23-4.72,20.24-4.57,7.66-12.64,9.3-20.81,10.66-11.05,1.84-22.16,3.39-33.35,4.12a168,168,0,0,1-30.5-.52c-10.53-1.23-20.66-4.5-31.19-5.73a136,136,0,0,0-13.84-.72c-4.35-.07-8.95-.22-12.48-3.08-7-5.65-9.26-18.69-10.65-27.1-3.57-21.45-.36-43.42,1.7-64.85,1.23-12.82,3.15-25.53,5.26-38.23,1.77-10.66,3.51-21.29,2.72-32.13-.14-1.91-3.14-1.93-3,0,.87,11.83-1.32,23.41-3.23,35-1.84,11.22-3.51,22.47-4.61,33.79-2,21.06-5.05,42.45-2.27,63.58,1.24,9.44,3.52,19.87,8.6,28.08,3.77,6.1,9.87,7.71,16.67,7.89,12.26.34,23.51,2.23,35.49,4.74a142.75,142.75,0,0,0,32.29,2.65,275.22,275.22,0,0,0,34.5-3.25c8.49-1.26,18.47-1.69,25.6-7.05,11.39-8.54,10.54-25.1,11.4-37.79,1.65-24.28,3.92-48.35,2.13-72.71-.89-12.2-3.68-24.16-3.11-36.42.29-6.19,2.55-15.74-3.76-19.81-3.47-2.24-8.27-2.76-12.25-3.36a119.28,119.28,0,0,0-18.89-1c-13.94.11-27.9.37-41.83,1.1-14.18.74-28.27,1.21-42.48,1-6.13-.09-12.25.2-18.37.13-4.25,0-8.68-.45-12.58,1.51-1.73.86-.21,3.45,1.51,2.59Z"/><path class="cls-1" d="M241.84,265.2c-.53-7.46-1.33-14.95-.93-22.43a80.65,80.65,0,0,1,3.84-19.25c3.48-11.4,8.07-22.9,15.16-32.58,8-11,20.49-17.74,33.79-11.24s18.71,19.69,21.47,33.51c3.53,17.66,3.13,35.84,2.25,53.75-.09,1.93,2.91,1.92,3,0,.87-17.61,1.2-35.4-2-52.8-2.65-14.32-7.64-27.88-20.74-35.72-26.74-16-45,14.36-52.92,35.72a111.38,111.38,0,0,0-6.17,22.11c-1.42,9.63-.41,19.28.27,28.93.13,1.91,3.13,1.92,3,0Z"/><path class="cls-1" d="M195.65,39.12c2.48-1.07,5.57-.56,8.2-.58,3,0,6-.12,9-.08,6.9.09,13.75,0,20.64-.32,12.17-.62,24.67-1.59,36.85-.82A41.26,41.26,0,0,1,279,38.6c3.53,1,3.76,3.13,3.71,6.38a138,138,0,0,0,1,19.28c1.6,12.76,1.3,25.68.41,38.49-.35,5-.86,10-1.15,15-.27,4.58-.31,9.54-2.27,13.78-2.23,4.82-6.61,6.36-11.51,7.23-6.68,1.17-13.43,2.11-20.19,2.61a107.32,107.32,0,0,1-17.29,0c-6.61-.6-12.9-2.58-19.45-3.48-4.76-.65-12.18.81-16.35-1.84-5-3.15-6.31-12.38-7.08-17.77-1.8-12.56,0-25.33,1.23-37.86,1.36-13.93,5.7-28.19,4.8-42.24-.13-1.92-3.13-1.93-3,0,.47,7.42-.9,14.62-2.08,21.91-1.23,7.53-2.19,15.05-2.94,22.64-1.24,12.52-2.81,25.23-.71,37.75.86,5.09,2.28,11.22,5.42,15.46,2.88,3.9,7.11,4.22,11.62,4.32,7.26.16,14,1.76,21.06,3.1a92.26,92.26,0,0,0,22,1.19,191.27,191.27,0,0,0,20.25-2.31c5.15-.83,10.54-1.45,14.29-5.45,5.75-6.12,4.88-16.11,5.5-23.84,1.21-15,2.29-30,.84-45-.7-7.21-1.78-14-1.46-21.29.18-4,.53-8.23-3.61-10.24-4.92-2.4-11.7-2.26-17-2.27-8.59,0-17.22.2-25.79.64-8.82.45-17.58.74-26.41.63-5.68-.08-13.37-1.24-18.7,1.07-1.77.77-.24,3.35,1.51,2.59Z"/><path class="cls-1" d="M215.67,55.55c-.75-10.35-.36-19.45,3.17-29.29,2.88-8,7.5-19,16.12-22.31,12-4.58,20.74,7.7,23.15,17.77C260.84,33.13,260.59,45,260,56.61c-.1,1.93,2.9,1.93,3,0,.66-13.68,1.33-29-3.93-42-3.45-8.5-12.56-16-22.19-14.35-9.82,1.74-15.54,12.11-19.1,20.44a88.08,88.08,0,0,0-4.52,13.44c-1.73,7.11-1.14,14.21-.62,21.43.13,1.92,3.13,1.93,3,0Z"/><path class="cls-1" d="M393.37,241.92c2.81-1.09,6.79-.55,9.74-.54,4,0,7.91.11,11.87,0,8.36-.34,16.76-1,25.13-.74a32.28,32.28,0,0,1,6.27.69c2.21.5,2.68,1.35,2.88,3.62.34,3.8-.15,7.57.38,11.41a126.71,126.71,0,0,1,.61,25.31c-.37,6,0,13.36-1.81,19.18-2.36,7.57-14.95,7.18-21.39,7.58-8.11.51-15.33-1.37-23.27-2.41-2.65-.35-6.26.32-8.75-.63-4.46-1.7-5.38-10-5.73-14.13-.71-8.25.41-16.71,1.3-24.92.91-8.47,3.32-17,2.87-25.56-.1-1.92-3.1-1.94-3,0,.5,9.59-2.27,19.38-3.2,28.93-.84,8.63-1.93,17.42-.38,26,1.21,6.72,3.3,12.6,10.77,12.9,9.38.38,18.17,3.3,27.65,2.89a114,114,0,0,0,12.49-1.33c3.45-.53,7.33-.79,10.14-3.1,4.4-3.62,4.19-10,4.53-15.17.68-10.05,1.62-20.05.79-30.14-.39-4.81-1.3-9.46-1.11-14.3.1-2.6.68-5.71-1.49-7.62-2.51-2.21-7.47-2.14-10.55-2.23-5.79-.17-11.66.06-17.44.34s-11.27.56-16.93.49c-4,0-9.36-.87-13.17.6-1.78.69-1,3.59.8,2.9Z"/><path class="cls-1" d="M406.93,252.17c-.45-6.31-.36-12,1.64-18.06,1.7-5.14,4.34-12.1,9.32-15,8.31-4.77,14.21,5.07,15.65,11.77,1.55,7.2,1.36,14.63,1,21.94-.09,1.93,2.91,1.93,3,0,.42-9.14.94-19.68-2.74-28.31-2.38-5.56-8.33-10.49-14.69-9.4s-10.29,7.88-12.64,13.36c-3.38,7.9-4.17,15.12-3.56,23.65.14,1.91,3.14,1.93,3,0Z"/><path class="cls-1" d="M34.2,134.08c3-1.21,7.43-.62,10.6-.62,4.47,0,8.93.15,13.41,0,9.63-.35,19.26-1,28.91-.9,5.1.06,11.44-.49,11.91,5.8.29,3.75-.2,7.4.32,11.18a148.17,148.17,0,0,1,.82,30.07c-.43,6.71,0,14.91-2.07,21.38-2.72,8.53-15.93,8-23.21,8.6a79.07,79.07,0,0,1-13.59,0c-4.87-.47-9.51-1.89-14.33-2.57-3.42-.48-8.09.34-11.25-1-4.55-1.93-5.67-10-6.21-14.4-1.14-9.51.23-19.21,1.2-28.68,1-9.94,4-20,3.44-30.05-.11-1.92-3.11-1.93-3,0,.62,10.79-2.62,21.8-3.68,32.54-1,9.94-2.32,20.11-.4,30,.69,3.58,1.76,8.15,4.17,11,2.29,2.73,5.4,2.93,8.74,3,5.69.18,10.93,1.5,16.5,2.46a73.1,73.1,0,0,0,16.59.7c5-.31,9.87-1,14.75-1.77,3.61-.58,7.23-1.07,10-3.68,4.69-4.46,4.14-12,4.59-17.9.87-11.27,1.76-22.52.71-33.82-.52-5.53-1.37-10.79-1.12-16.37.12-2.73.39-5.63-2-7.42-3.41-2.51-9.83-2.2-13.76-2.21-6.19,0-12.42.14-18.6.44-6.75.33-13.44.6-20.2.51-4.21-.06-10-.94-14,.7-1.76.72-1,3.62.8,2.89Z"/><path class="cls-1" d="M49.69,145.87c-.53-7.32-.35-13.93,2.06-20.93,2-5.84,5.11-13.45,10.79-16.65,9.31-5.23,16.44,5.2,18.22,12.91,1.92,8.34,1.71,17,1.31,25.47-.09,1.93,2.91,1.92,3,0,.49-10.32,1.05-22.08-3.09-31.82-2.69-6.36-9.46-11.8-16.65-10.68-7.51,1.18-11.92,8.93-14.65,15.27-3.8,8.83-4.68,16.89-4,26.43.14,1.92,3.14,1.93,3,0Z"/><path class="cls-1" d="M150.89,168c4.68-1.3,10.73-.25,15.6-.48,2.6-.13,5.2-.18,7.8-.22,4,0,6.72-.38,7.23,4a102.68,102.68,0,0,1,.79,15.48c-.15,4,.57,12.47-2.94,14.79-4.4,2.9-13.09,2.34-18.08,1.43-2-.37-4-.78-6.07-1-1.36-.18-3.49-.09-4.52-1.18s-1.29-3.86-1.48-5.27c-1.31-9.72,2.58-19.2,2.21-28.84-.07-1.92-3.07-1.93-3,0,.27,7-1.81,14.23-2.3,21.23-.31,4.39-.84,12.44,3,15.74,1.77,1.52,4,1.14,6.11,1.32,3.9.32,7.53,1.52,11.48,1.57,4.43.05,12.69.29,15.92-3.3,3-3.38,2.38-10.51,2.6-14.64a75.27,75.27,0,0,0-.28-12.65c-.29-2.54.23-5.94-.44-8.39-1.29-4.66-9.3-3.3-12.89-3.22-4,.09-8,.4-11.94.42-3.12,0-6.55-.5-9.57.34a1.5,1.5,0,0,0,.79,2.89Z"/><path class="cls-1" d="M159,173.05c-.4-5.41.33-13.25,5-17.06s8,1.84,8.79,5.7a46.16,46.16,0,0,1,.5,11.74c-.09,1.93,2.91,1.93,3,0,.31-6.69.58-22.82-10.22-21.56-8.72,1-10.56,14.55-10.07,21.18.14,1.91,3.14,1.93,3,0Z"/><path class="cls-1" d="M339.89,34c4.68-1.3,10.73-.25,15.6-.48,2.6-.13,5.2-.18,7.8-.22,4,0,6.72-.38,7.23,4a102.68,102.68,0,0,1,.79,15.48c-.15,4,.57,12.47-2.94,14.79C364,70.51,355.28,70,350.29,69c-2-.37-4-.78-6.07-1-1.36-.18-3.49-.09-4.52-1.18s-1.29-3.86-1.48-5.27c-1.31-9.72,2.58-19.2,2.21-28.84-.07-1.92-3.07-1.93-3,0,.27,7-1.81,14.23-2.3,21.23-.31,4.39-.84,12.44,3,15.74,1.77,1.52,4,1.14,6.11,1.32,3.9.32,7.53,1.52,11.48,1.57,4.43.05,12.69.29,15.92-3.3,3-3.38,2.38-10.51,2.6-14.64A75.27,75.27,0,0,0,373.94,42c-.29-2.54.23-5.94-.44-8.39-1.29-4.66-9.3-3.3-12.89-3.22-4,.09-8,.4-11.94.42-3.12,0-6.55-.5-9.57.34a1.5,1.5,0,0,0,.79,2.89Z"/><path class="cls-1" d="M348,39.05c-.4-5.41.33-13.25,5-17.06s8,1.84,8.79,5.7a46.16,46.16,0,0,1,.5,11.74c-.09,1.93,2.91,1.93,3,0,.31-6.69.58-22.82-10.22-21.56-8.72,1-10.56,14.55-10.07,21.18.14,1.91,3.14,1.93,3,0Z"/><path class="cls-1" d="M411.89,371c4.68-1.3,10.73-.25,15.6-.48,2.6-.13,5.2-.18,7.8-.22,4-.05,6.72-.38,7.23,4a102.68,102.68,0,0,1,.79,15.48c-.15,4,.57,12.47-2.94,14.79-4.4,2.9-13.09,2.34-18.08,1.43-2-.37-4-.78-6.07-1-1.36-.18-3.49-.09-4.52-1.18s-1.29-3.86-1.48-5.27c-1.31-9.72,2.58-19.2,2.21-28.84-.07-1.92-3.07-1.93-3,0,.27,7-1.81,14.23-2.3,21.23-.31,4.39-.84,12.44,3,15.74,1.77,1.52,4,1.14,6.11,1.32,3.9.32,7.53,1.52,11.48,1.57,4.43.05,12.69.29,15.92-3.3,3-3.38,2.38-10.51,2.6-14.64a75.27,75.27,0,0,0-.28-12.65c-.29-2.54.23-5.94-.44-8.39-1.29-4.66-9.3-3.3-12.89-3.22-4,.09-8,.4-11.94.42-3.12,0-6.55-.5-9.57.34a1.5,1.5,0,0,0,.79,2.89Z"/><path class="cls-1" d="M420,376.05c-.4-5.41.33-13.25,5-17.06s8,1.84,8.79,5.7a46.16,46.16,0,0,1,.5,11.74c-.09,1.93,2.91,1.93,3,0,.31-6.69.58-22.82-10.22-21.56-8.72,1-10.56,14.55-10.07,21.18.14,1.91,3.14,1.93,3,0Z"/><path class="cls-1" d="M108.89,54c4.68-1.3,10.73-.25,15.6-.48,2.6-.13,5.2-.18,7.8-.22,4,0,6.72-.38,7.23,4a102.68,102.68,0,0,1,.79,15.48c-.15,4,.57,12.47-2.94,14.79C133,90.51,124.28,90,119.29,89c-2-.37-4-.78-6.07-1-1.36-.18-3.49-.09-4.52-1.18s-1.29-3.86-1.48-5.27c-1.31-9.72,2.58-19.2,2.21-28.84-.07-1.92-3.07-1.93-3,0,.27,7-1.81,14.23-2.3,21.23-.31,4.39-.84,12.44,3,15.74,1.77,1.52,4,1.14,6.11,1.32,3.9.32,7.53,1.52,11.48,1.57,4.43.05,12.69.29,15.92-3.3,3-3.38,2.38-10.51,2.6-14.64A75.27,75.27,0,0,0,142.94,62c-.29-2.54.23-5.94-.44-8.39-1.29-4.66-9.3-3.3-12.89-3.22-4,.09-8,.4-11.94.42-3.12,0-6.55-.5-9.57.34a1.5,1.5,0,0,0,.79,2.89Z"/><path class="cls-1" d="M117,59.05c-.4-5.41.33-13.25,5-17.06,4.52-3.69,8,1.84,8.79,5.7a46.16,46.16,0,0,1,.5,11.74c-.09,1.93,2.91,1.93,3,0,.31-6.69.58-22.82-10.22-21.56-8.72,1-10.56,14.55-10.07,21.18.14,1.91,3.14,1.93,3,0Z"/><path class="cls-1" d="M495.89,323c4.68-1.3,10.73-.25,15.6-.48,2.6-.13,5.2-.18,7.8-.22,4-.05,6.72-.38,7.23,4a102.68,102.68,0,0,1,.79,15.48c-.15,4,.57,12.47-2.94,14.79-4.4,2.9-13.09,2.34-18.08,1.43-2-.37-4-.78-6.07-1-1.36-.18-3.49-.09-4.52-1.18s-1.29-3.86-1.48-5.27c-1.31-9.72,2.58-19.2,2.21-28.84-.07-1.92-3.07-1.93-3,0,.27,7-1.81,14.23-2.3,21.23-.31,4.39-.84,12.44,3,15.74,1.77,1.52,4,1.14,6.11,1.32,3.9.32,7.53,1.52,11.48,1.57,4.43.05,12.69.29,15.92-3.3,3-3.38,2.38-10.51,2.6-14.64a75.27,75.27,0,0,0-.28-12.65c-.29-2.54.23-5.94-.44-8.39-1.29-4.66-9.3-3.3-12.89-3.22-4,.09-8,.4-11.94.42-3.12,0-6.55-.5-9.57.34a1.5,1.5,0,0,0,.79,2.89Z"/><path class="cls-1" d="M504,328.05c-.4-5.41.33-13.25,5-17.06s8,1.84,8.79,5.7a46.16,46.16,0,0,1,.5,11.74c-.09,1.93,2.91,1.93,3,0,.31-6.69.58-22.82-10.22-21.56-8.72,1-10.56,14.55-10.07,21.18.14,1.91,3.14,1.93,3,0Z"/><path class="cls-1" d="M89.37,277.54c3.71-1.52,9.35-.75,13.35-.71,5.73,0,11.42.11,17.15-.15,10.32-.48,20.69-1.13,31-.91a43.27,43.27,0,0,1,8.87.9c3,.69,4.07,1.2,4.36,4.89.39,4.95-.25,9.69.46,14.67a163,163,0,0,1,.85,33.2c-.29,4.71-.77,9.4-1.08,14.11-.24,3.84-.21,7.92-1.5,11.59-1.45,4.15-4.56,6.22-8.75,7.1a140.16,140.16,0,0,1-17.43,2.39,92.5,92.5,0,0,1-16.39.07c-5.72-.54-11.18-2.27-16.86-3-3.83-.5-8.34.31-12-.88-5.27-1.7-6.61-10.24-7.36-15-1.75-11.15-.07-22.63,1-33.76,1.17-11.74,4.78-23.72,4.05-35.57-.12-1.92-3.12-1.93-3,0,.77,12.54-3.05,25.42-4.27,37.89-1.1,11.2-2.6,22.66-.44,33.83.79,4.07,2,9.17,4.65,12.49s6.13,3.45,10,3.56c6.37.18,12.27,1.63,18.5,2.74a81.39,81.39,0,0,0,18.45.94A163.44,163.44,0,0,0,149.69,366c4.33-.68,9.06-1.09,12.44-4.2,5.66-5.19,4.89-14.29,5.45-21.25,1-13,2-26.11.65-39.17-.59-5.84-1.46-11.42-1.2-17.32.14-3.3.6-7-2.59-9-4-2.55-10.78-2.27-15.31-2.27-7.26,0-14.54.16-21.79.53s-14.65.67-22,.57c-5-.07-12.07-1.14-16.76.78-1.76.72-1,3.63.8,2.9Z"/><path class="cls-1" d="M107,291.29c-.62-8.63-.38-16.25,2.5-24.49,2.38-6.79,6.07-15.76,12.93-19.19,10.74-5.35,18.69,6.56,20.71,15.39,2.19,9.56,2,19.47,1.48,29.2-.09,1.93,2.91,1.93,3,0,.57-11.81,1.14-25.07-3.44-36.26-3-7.23-10.7-13.57-18.87-12.35-8.9,1.32-14,10.82-17.12,18.3-4.09,9.84-5,18.82-4.19,29.4.14,1.92,3.14,1.93,3,0Z"/><path class="cls-1" d="M323.2,141.72c3.2-1.08,7.57-.39,10.92-.36,4,0,8-.18,12-.38s8-.29,12-.3c2,0,4.88-.3,6.81.44,2.86,1.11,2.49,2.43,2.42,5.13-.18,7.86,1.42,15.61,1.06,23.54-.16,3.52-.51,7-.75,10.53-.21,3,.12,7.24-2.19,9.62-2.66,2.74-9.26,2.63-12.62,3a58,58,0,0,1-11.41.15c-3.79-.39-7.41-1.6-11.2-1.95-1.41-.13-3.05.16-4.4-.17-3.42-.82-4-3-4.81-5.84-4.21-14.66,3.15-29.94,2.45-44.63-.09-1.92-3.09-1.93-3,0,.36,7.61-1.83,15.37-2.58,22.94-.69,6.93-1.6,14.08-.13,21,1,4.82,2.73,9.15,8.07,9.56,7.27.57,14.39,2.48,21.72,2.31,5.42-.14,14.57,0,19.08-3.38,3.71-2.78,3.69-7.75,4-12,.58-8.41,1.37-16.78.54-25.22a92.26,92.26,0,0,1-.72-11c0-2,.17-3.92-1.5-5.3s-5-1.5-7.17-1.64a136.78,136.78,0,0,0-14.74.2c-4.59.2-9.17.47-13.77.41-3.37,0-7.63-.61-10.88.48-1.82.61-1,3.51.8,2.89Z"/><path class="cls-1" d="M334.26,149.44c-.59-8.06.58-19.05,7.39-24.7,6.39-5.31,12.05,2.44,13.3,8.15s1.05,11.4.79,17.1c-.09,1.93,2.91,1.92,3,0,.42-9.05,1-31.78-13.93-29.91-11.87,1.49-14.21,20.4-13.55,29.36.14,1.91,3.14,1.93,3,0Z"/><path class="cls-1" d="M6.2,367.72c3.2-1.08,7.57-.39,10.92-.36,4,0,8-.18,12-.38s8-.29,12-.3c2,0,4.88-.3,6.81.44,2.86,1.11,2.49,2.43,2.42,5.13-.18,7.86,1.42,15.61,1.06,23.54-.16,3.52-.51,7-.75,10.53-.21,3,.12,7.24-2.19,9.62-2.66,2.74-9.26,2.63-12.62,3a58,58,0,0,1-11.41.15c-3.79-.39-7.41-1.6-11.2-1.95-1.41-.13-3,.16-4.4-.17-3.42-.82-4-3-4.81-5.84C-.16,396.44,7.2,381.16,6.5,366.47c-.09-1.92-3.09-1.93-3,0,.36,7.61-1.83,15.37-2.58,22.94-.69,6.93-1.6,14.08-.13,21,1,4.82,2.73,9.15,8.07,9.56,7.27.57,14.39,2.48,21.72,2.31,5.42-.14,14.57,0,19.08-3.38,3.71-2.78,3.69-7.75,4-11.95.58-8.41,1.37-16.78.54-25.22a92.26,92.26,0,0,1-.72-11c0-2,.17-3.92-1.5-5.3s-5-1.5-7.17-1.64a136.78,136.78,0,0,0-14.74.2c-4.59.2-9.17.47-13.77.41-3.37-.05-7.63-.61-10.88.48-1.82.61-1,3.51.8,2.89Z"/><path class="cls-1" d="M17.26,375.44c-.59-8.06.58-19.05,7.39-24.7,6.39-5.31,12.05,2.44,13.3,8.15s1,11.4.79,17.1c-.09,1.93,2.91,1.92,3,0,.42-9.05,1-31.78-13.93-29.91-11.87,1.49-14.21,20.4-13.55,29.36.14,1.91,3.14,1.93,3,0Z"/><path class="cls-1" d="M420.57,97.74c3-1.13,7.14-.57,10.31-.56,4.64,0,9.25.1,13.88-.11,8.37-.38,16.78-.95,25.16-.71,4.77.14,9.38-.16,9.72,5.41.22,3.71-.07,7.28.47,11a130.51,130.51,0,0,1,.51,27.45c-.39,5.85.17,13.79-2.11,19.28-1.54,3.7-4.54,4.69-8.23,5.33a125.35,125.35,0,0,1-14.18,1.75c-8.56.53-16.16-1.42-24.53-2.5-2.91-.37-6.86.34-9.59-.82-4.23-1.79-5.3-9.8-5.71-13.89-.81-8.15.31-16.4,1.13-24.51.94-9.36,3.73-18.85,3.22-28.3-.1-1.92-3.1-1.94-3,0,.54,10.13-2.45,20.55-3.45,30.64-.9,9.06-2.05,18.37-.11,27.38,1.36,6.32,3.52,11.74,10.55,12.11,10.05.54,19.6,3.41,29.74,3a124.83,124.83,0,0,0,13.38-1.4c3.48-.53,7.33-.8,10.22-3,4.63-3.55,4.57-10,4.91-15.28.68-10.4,1.71-20.71.9-31.14-.39-5.16-1.4-10.14-1.21-15.33.09-2.67.72-5.87-1.53-7.84-2.61-2.29-7.92-2.21-11.1-2.3-5.88-.17-11.85,0-17.73.33-6.19.28-12.34.61-18.54.53-4.24,0-9.84-.9-13.88.63-1.78.67-1,3.57.8,2.89Z"/><path class="cls-1" d="M434.82,108.39c-.5-6.92-.26-13.08,2.08-19.65,1.85-5.23,4.74-12.23,10.05-14.84,8.9-4.38,14.8,6,16.25,13.07,1.51,7.27,1.3,14.78.95,22.15-.09,1.93,2.91,1.92,3,0,.45-9.41,1-20.32-2.85-29.19-2.55-5.83-8.76-10.87-15.43-9.76-6.49,1.07-10.46,7.53-13,13-3.79,8.36-4.75,16.09-4.09,25.19.14,1.92,3.15,1.93,3,0Z"/></g></g></svg>
