<svg xmlns="http://www.w3.org/2000/svg" viewBox="0 0 729.35 517.77"><defs><style>.cls-1{fill:#2c2c2c;}</style></defs><title>SoMe_collection</title><g id="Layer_2" data-name="Layer 2"><g id="SoMe_final"><g id="likes"><path class="cls-1" d="M224.82,9.58c15.17.23,30.29-1.34,45.39-2.66s29.86-1.21,44.87-1.83c10.46-.42,21.05-2.42,31.52-1.87S362.54,10,365,20c1.88,7.68,2,15.64,2.89,23.45.87,7.6,2.34,15.05,2.44,22.72.08,6.36-.75,12.66-.9,19-.14,5.89,0,12.12-1.74,17.8-3.22,10.49-18.62,11-27.71,12.49-5.41.87-10.61,2.11-15.93,3.43-5.89,1.45-11.94,2-17.86,3.34-2.6.61-7.12.86-9.11,2.78-1.61,1.56-2.7,4.73-3.81,6.66l-10.89,19.07H285c-4.91-7.55-9.36-15.77-14.87-22.88-1.93-2.48-5-1.88-8.06-2.09a192,192,0,0,0-21.85-.4c-7.25.32-15.12,1-22.09-1.48-8.37-2.91-12.28-10.47-14.88-18.43-6.55-20.09-8.55-42.06-6.83-63.07.45-5.48,1.41-10.88,2.16-16.32.61-4.33.91-9.17,4.28-12.38,6-5.76,14.47-4.61,22-4.11,1.93.12,1.92-2.88,0-3-6.27-.41-12.3-1.24-18.15,1.37-7.21,3.22-9.72,8-10.8,15.61-3.14,22.09-4.1,43.58.12,65.66,2.86,15,6.9,34.47,24.16,38.37,7.85,1.77,16.12.93,24.06.59,7.42-.31,14.87,1.22,22.23.91,2-.08,1.16.72.57-.45a18.47,18.47,0,0,0,1.15,1.77l5.13,7.9,9.07,13.94a1.52,1.52,0,0,0,2.59,0l10-17.5c1.49-2.6,2.83-5.43,4.52-7.91.55-.81-1,.55-.48.3a12.29,12.29,0,0,1,1.87-.5c2.42-.63,4.84-1.24,7.28-1.79,6.39-1.43,12.85-2.08,19.2-3.71,5.45-1.4,10.86-2.35,16.41-3.26,8.35-1.38,21.49-2.45,25.71-11.18,2.23-4.61,2.54-10.15,2.77-15.18.28-6.13.57-12.24.91-18.36a111.75,111.75,0,0,0-1.31-23.11c-1.23-8-1.58-16.17-2.73-24.22-1.27-9-4-19.58-13-23.63C348-1.4,338,.33,329.57,1.08c-16.23,1.42-32.46.78-48.7,2-18.67,1.37-37.3,3.82-56.05,3.53-1.93,0-1.93,3,0,3Z"/><path class="cls-1" d="M285.68,59.45c1-7.61-6.68-15.29-12-19.58-4.58-3.67-12.92-9.14-18.84-5.1-8.83,6-3.58,22.07.15,29.35,3.25,6.31,7.76,11.47,12.12,17,5.7,7.22,10.08,15.33,14.52,23.35a1.53,1.53,0,0,0,2.6,0c4.12-6.19,5-13.75,10.21-19.32,4.57-4.89,10.14-8.41,14.29-13.76,6.15-7.91,12.44-20.66,8.32-30.85-2.89-7.11-11-8.13-17.57-5.86C290.58,37.77,283.07,47.74,282,57c-.22,1.92,2.78,1.9,3,0,1-8.7,9-18.29,17.76-20.08,3.19-.66,7-.51,9.52,1.8,3.68,3.37,3.1,9.53,2.25,13.94-2.06,10.68-9.1,19.16-17.24,25.93-3.65,3-7.06,6.19-9.3,10.43-2.39,4.56-3.49,9.66-6.37,14h2.6a230.68,230.68,0,0,0-20-30,58.29,58.29,0,0,1-9.11-15.84c-1.87-5.28-3.44-13.21-.09-18.28,4-6.13,13.48.64,17.26,3.8,4.5,3.76,11.22,10.32,10.35,16.81-.26,1.91,2.75,1.89,3,0Z"/></g><g id="likes-2" data-name="likes"><path class="cls-1" d="M536.26,450.37c8.15.08,16.23-.95,24.35-1.53,7.21-.51,14.41-.3,21.61-.91,5.45-.46,11.17-1.29,13.35,4.94,1.35,3.84,1.22,8.13,1.71,12.14a71.31,71.31,0,0,1,.76,13.53c-.19,2.93-.1,5.91-.5,8.81-.6,4.44-3.18,5.37-7.18,6.25-6,1.33-12.13,2.28-18.16,3.51-3.67.75-4.92.83-6.66,3.89l-5.17,9H563l-3.86-5.93c-.86-1.32-1.93-4-3.35-4.86-1.81-1.07-5.61-.58-7.59-.65-4-.15-8.19.59-12.21,0C525.19,497,524.74,479,524.61,470.63A61.3,61.3,0,0,1,526,455.11c1.34-5.44,5.78-5,10.28-4.74,1.92.13,1.92-2.87,0-3-3.56-.22-6.94-.54-10,1.61-3.55,2.49-3.49,7.28-4,11.18-1.5,10.87-1.19,25.43,4.25,35.33,4.51,8.21,13.93,5.82,21.69,6.11,2.13.08,4.3.18,6.43.41.11,0-1-1.4-.45,0a12.65,12.65,0,0,0,1.13,1.74l5.1,7.84a1.52,1.52,0,0,0,2.59,0l4.56-8a14.1,14.1,0,0,1,1.74-3.05c-1.07,1,0,.27.87.16,1.34-.17,2.68-.66,4-.91,5.46-1,10.94-2,16.39-3.14,3.6-.73,7.56-1.64,9.15-5.31,1.84-4.22,1.23-10,1.46-14.48.35-6.75-.8-13.91-1.79-20.57-.55-3.76-1.65-8.08-5.12-10.22-3.16-1.94-7.3-1.5-10.82-1.22-7,.56-14,.46-21.06.89-8.71.54-17.36,1.74-26.1,1.65a1.5,1.5,0,0,0,0,3Z"/><path class="cls-1" d="M563.39,471.06c.38-5.39-8.82-14.75-14.4-11.53-3.91,2.26-2.67,8.7-1.33,12.05a30.64,30.64,0,0,0,4.36,7.15,99.39,99.39,0,0,1,8,12.19,1.51,1.51,0,0,0,2.59,0c1.91-3.17,2.65-6.58,5.41-9.24,2.23-2.16,4.5-3.86,6.23-6.49,2.33-3.53,4.65-9.49,2.14-13.49-5.06-8.05-15.27,2-16.27,7.88-.33,1.89,2.56,2.7,2.89.8.59-3.4,3.24-7.42,6.85-8.19,6.83-1.47,4.1,7.74,2.19,10.87-2,3.33-5.13,5.12-7.62,8-2.15,2.47-2.75,5.62-4.41,8.38h2.59a78.58,78.58,0,0,0-6.49-10.36c-2.65-3.41-5.69-6.76-6.53-11.17-.49-2.6-.34-6.67,3.16-5.57a11.32,11.32,0,0,1,3.32,2c1.91,1.55,4.48,4.06,4.29,6.72-.14,1.92,2.86,1.92,3,0Z"/></g><g id="likes-3" data-name="likes"><path class="cls-1" d="M250.2,424.34c9.92.13,19.78-.88,29.65-1.74,9.6-.83,19.11-.81,28.72-1.16,6.67-.25,13.36-1.44,20-1.27,7.28.19,10.87,4,12.49,11,1.18,5.06,1.23,10.3,1.87,15.44.58,4.68,1.43,9.28,1.5,14,0,4-.46,7.93-.57,11.91-.11,3.72.06,7.68-.93,11.3-2,7.38-12.21,7.58-18.56,8.61-7.49,1.21-15.09,2.79-22.47,4.57-4.82,1.16-5.14,1.8-7.53,6l-7.17,12.55h2.59l-6.11-9.39c-1.25-1.94-2.71-5.66-4.85-6.78-1.12-.59-3.44-.29-4.64-.38-2.94-.2-5.89-.41-8.83-.42-6.07,0-12.59,1.26-18.53-.49-7.83-2.3-10.06-10.37-11.85-17.48a110.09,110.09,0,0,1-3.18-26.81c0-7.51.21-16.34,2.5-23.57,2.24-7.07,10.06-6.24,15.86-5.87,1.93.13,1.92-2.87,0-3-8.52-.55-17.44.12-19.2,10.29a123.8,123.8,0,0,0-.53,41.76c1.65,9.92,4,24,15.12,27.44,4.91,1.54,10.33,1.1,15.39.87a127.71,127.71,0,0,1,15.15.42c.74.05,1.49.1,2.23.17-1.34-.12-1-1.16-.63.13.53,1.73,2.41,3.71,3.4,5.23l6.11,9.39a1.52,1.52,0,0,0,2.59,0l6.95-12.16c.78-1.37,1.51-3.4,2.6-4.55-1.14,1.2.24.33,1.24.07,2.08-.53,4.17-1.06,6.28-1.45,8.14-1.48,16.25-3.11,24.38-4.67,5.51-1.06,11.87-2.29,14.09-8.09,2.51-6.59,1.82-15.44,2.06-22.4a74.11,74.11,0,0,0-.87-13.23c-.85-5.87-1.07-11.82-2.06-17.66-.92-5.46-2.82-11.49-8.12-14.16-5.1-2.56-11.56-1.54-17-1.07-10.81.94-21.62.58-32.43,1.36-12.25.88-24.45,2.47-36.75,2.31a1.5,1.5,0,0,0,0,3Z"/><path class="cls-1" d="M290.37,456.31c.82-7.58-13.17-21.58-20.84-16.56-5.57,3.65-3.07,13.45-.92,18.22,2,4.35,4.84,8,7.83,11.68,4.09,5,7.19,10.62,10.32,16.26a1.52,1.52,0,0,0,2.59,0c2.8-4.41,3.54-9.59,7.45-13.33,3-2.9,6.26-5.24,8.82-8.62,4-5.28,8.13-14.1,4.9-20.71-2.13-4.35-7.25-5-11.5-3.69-6.06,1.91-11.16,8.56-12,14.73-.27,1.89,2.62,2.71,2.89.8.77-5.43,5.21-11.52,10.76-12.87,7.83-1.9,8.73,5.76,7,11.66-2,6.7-6.79,11.15-11.86,15.6-4.91,4.31-5.63,9.61-9,14.91h2.59A119.08,119.08,0,0,0,278,466.84c-4.64-5.71-10.54-13.83-8.37-21.68,2.58-9.31,18.45,4.69,17.75,11.15-.2,1.92,2.8,1.91,3,0Z"/></g><g id="follower"><path class="cls-1" d="M591.35,120c10.57.8,21.13.25,31.72.11,9.56-.13,19.06.89,28.62.76,5.8-.08,13.41-1.44,18.8,1.3,7.31,3.7,6.26,15.25,6.5,22,.16,4.41.76,8.81.74,13.22,0,5-.89,9.88-1.47,14.8-.42,3.51-.73,7-.91,10.54-.1,1.89.21,4.29-.36,6.11-1.51,4.82-11,4.25-14.87,4.32-8,.13-15.87-1.93-23.82-.67-1.9.3-4.9.3-6.52,1.46-1,.74-1.82,2.72-2.49,3.73l-8,12.09h2.59l-5.08-9c-1.12-2-2.44-6-4.53-7.14-.93-.52-2.81-.39-3.84-.53-2.64-.35-5.27-.71-7.92-.93-6.09-.52-12.4.28-18.4-1.11-9.14-2.12-8.75-10-9.6-17.93s-2.17-16-2-24.14c.11-4.82,1.11-9.4,2-14.11.57-3.12.72-6.63,2.22-9.49,2.87-5.48,11.32-6,16.57-5.41,1.91.22,1.9-2.79,0-3-8.2-.9-17.83,1.21-20.35,10.11-3.82,13.45-3.7,26.91-2.07,40.67,1.12,9.54-.34,22.28,10.9,25.78,4.68,1.46,9.79,1.34,14.63,1.4,5.2.07,10.24,1.12,15.39,1.35.35,0,2.11.5,1.17-.09s0,.28.24.79a49.91,49.91,0,0,0,2.75,4.88l5.32,9.43a1.51,1.51,0,0,0,2.59,0l7.73-11.73a29.69,29.69,0,0,0,1.77-2.69c.53-1.07,1.19-1,0-.43,2.61-1.15,6.84-1.4,9.62-1.53,4.66-.21,9.5,1.1,14.21,1.22a68.11,68.11,0,0,0,13.69-.68c3.45-.61,7.77-1.67,8.89-5.43,1.47-4.91.71-11.09,1.27-16.16.51-4.74,1.37-9.45,1.6-14.22.24-5.16-.49-10.3-.68-15.46-.25-7,.36-16.29-4.61-22-3.49-4-9-4.48-13.94-4.53-10-.11-20-.37-30-.58-13.38-.29-26.75.9-40.12-.12-1.93-.14-1.92,2.86,0,3Z"/><path class="cls-1" d="M622.69,128.5c-5.22.43-10.06,5.68-10.25,11-.2,5.78,4.48,12.66,10.65,12.61s9.74-5.42,10-11.07c.3-5.93-4.43-11.13-10-12.45-1.88-.44-2.68,2.46-.8,2.9,3.64.85,7,3.8,7.75,7.61s-1.39,8.83-5.36,9.81c-4.79,1.18-8.25-3.45-9.08-7.67-.8-4.07,2.9-9.35,7.09-9.7,1.91-.16,1.92-3.16,0-3Z"/><path class="cls-1" d="M605.35,182.77a16.47,16.47,0,0,1,11.79-20.2c6-1.65,18.58-3,22.83,2.74,2.25,3,3.29,8.77,2.87,12.4-.37,3.21-1.28,3.45-4.1,3.72q-3.33.31-6.68.52c-9.29.59-18.6.67-27.91.68a1.5,1.5,0,0,0,0,3c7.7,0,15.41-.06,23.11-.42,3.83-.17,7.66-.44,11.48-.78,1.48-.13,3.4-.07,4.76-.77,3.33-1.71,2.43-6.67,2.11-9.67-.46-4.17-1.3-8.92-4.47-12-6.17-5.9-20.24-4.26-27.46-1.5-9.1,3.5-13.48,13.7-11.22,23,.45,1.87,3.35,1.08,2.89-.8Z"/></g><g id="follower-2" data-name="follower"><path class="cls-1" d="M60.31,31.9c17.35,1.26,34.9-.27,52.27.53,9.07.42,9.46,7.45,9.75,15.22.16,4.25.73,8.53.54,12.78s-1.05,8.62-1.42,12.95c-.33,3.68,1.06,8.74-3.07,10.17-7.67,2.64-15.72-.63-23.43.17-3.65.37-6.19.38-8.19,3.37-2.15,3.22-4.26,6.47-6.39,9.7H83L79.31,90.3c-.76-1.34-1.67-4.12-2.94-5.1-1.66-1.27-5.43-1-7.42-1.27-4.11-.45-8.23-.18-12.34-.57-2.26-.21-4.71-.55-6.53-2-2.77-2.25-2.56-6-2.88-9.24-.57-5.84-1.56-11.65-1.63-17.53A61.83,61.83,0,0,1,47.81,38c1.56-5.69,7.38-6.59,12.5-6.07,1.92.19,1.91-2.81,0-3-4-.41-8.42,0-11.88,2.42-3.8,2.67-3.86,8-4.68,12.12a64.16,64.16,0,0,0-.52,20.09c.58,5.24.07,12.28,2.49,17.08,4,8,16,5.52,23.23,6.32,1.69.19,4.34,0,5.81.76-1.2-.63-.62-.6-.22.26s.85,1.51,1.27,2.25l4.56,8.1a1.51,1.51,0,0,0,2.59,0l5.52-8.38c.46-.69.93-1.38,1.37-2.08.65-1,.6-.53-.14-.2,2.13-.93,5.65-1.14,7.89-1.08,6.65.15,13,1.66,19.72.31,2.56-.52,5.47-1.34,6.4-4,1.12-3.2.53-7.53.86-10.86.38-3.85,1.12-7.68,1.29-11.54s-.35-7.44-.49-11.16c-.36-9.59-.86-19.18-12.31-19.82-17.53-1-35.24.72-52.76-.55-1.92-.14-1.91,2.86,0,3Z"/><path class="cls-1" d="M83.17,37.3a9.17,9.17,0,0,0-7.87,8.4c-.11,4.46,3.41,9.62,8.16,9.6s7.52-4.16,7.73-8.48c.21-4.49-3.36-8.47-7.62-9.47-1.88-.44-2.68,2.45-.8,2.9a7.05,7.05,0,0,1,5.36,5.21c.5,2.56-.93,6-3.61,6.71-6.82,1.67-8.46-11.28-1.35-11.87,1.91-.16,1.93-3.16,0-3Z"/><path class="cls-1" d="M70.92,77.18a11.73,11.73,0,0,1,8.86-14.37c4.72-1.18,13.72-2,16.29,3.13,1,1.89,2.25,6.41,1.41,8.35-1.11,2.56-6.19,1.92-8.38,2-6.48.38-13,.43-19.45.44a1.5,1.5,0,0,0,0,3c6.16,0,12.32,0,18.47-.39,2.85-.15,8.41.51,10.93-1.39,4-3,.77-13.63-2.43-16.41-4.8-4.16-15.14-3-20.51-.75C69.41,63.62,66.48,71.07,68,78c.42,1.88,3.31,1.08,2.89-.8Z"/></g><g id="comment"><path class="cls-1" d="M441,42.15c13.8,1.07,27.61.3,41.42.13,12.57-.16,25.07,1.19,37.64.91,7.62-.17,18.4-2.17,25.46,1.55,3.44,1.81,4.14,5.07,4,8.69A93,93,0,0,0,550,68.35c1.36,12.32,2.49,23.68.85,36.06-1.08,8.11-1.48,16.17-2.08,24.31-.42,5.63-4.49,6.46-9.9,7.31a94.67,94.67,0,0,1-18.05.59c-5.53-.2-10.94-1.71-16.47-1.5-7,.27-15.88-.67-19.45,6.43-2.68,5.35-5.11,10.83-7.66,16.24h2.59c-3.5-6.21-6.72-12.7-10.54-18.71-1.4-2.2-2.77-2-5.42-2.33A138.42,138.42,0,0,0,448,135.18c-10.84-.21-30.55,1.91-30.63-13.62-.05-8.87.25-17.64-.18-26.53s-.72-18,.94-26.86a66.77,66.77,0,0,0,1.48-10.52c.11-3.51-.47-8.46,2.14-11.26,1.53-1.64,5-2.8,7.12-3.56,3.94-1.43,8.08-1.14,12.17-.68,1.92.22,1.9-2.78,0-3a30,30,0,0,0-17,2.54c-5.13,2.28-6.9,5.48-7.31,11.07-.25,3.52,0,7-.64,10.52a117.83,117.83,0,0,0-2.09,14c-.59,9.41.35,18.82.63,28.22.15,4.94-.06,9.82-.23,14.76a18.17,18.17,0,0,0,1.32,8.66c2.14,4.51,6.6,6.8,11.27,7.89,6.4,1.5,13.13,1.3,19.66,1.4,6.29.08,12.67,1.91,18.89,1.82,1.37,0,1.2.34.61-.31a9.21,9.21,0,0,1,.91,1.62l3.85,6.83,6.3,11.17a1.51,1.51,0,0,0,2.59,0l7.41-15.71a14.13,14.13,0,0,1,.83-1.76c2.07-3.15,5.38-2.85,8.72-3.14a73.52,73.52,0,0,1,17.28.41c9.75,1.36,22.31,2,31.66-1.71,3.48-1.38,5.38-3.15,5.89-6.87,1.22-9,1.18-18.15,2.37-27.17,1.58-12,.32-23.1-1-35a93,93,0,0,1-.47-14.92c.14-3-.23-6.06-2.09-8.5-4-5.26-12.34-5-18.21-5-6,0-12.08.37-18.12.35-7.42,0-14.8-.83-22.22-1-17-.32-33.91,1.18-50.85-.14-1.93-.14-1.92,2.86,0,3Z"/><path class="cls-1" d="M491.39,110.45c-6,3.87-11.62,6.69-19,6.84a24.85,24.85,0,0,1-19.76-9.78C443,95,452.74,71.76,464.74,63.83c11.74-7.76,32.24-1.4,40,9.64,3.35,4.74,5.5,10.7,3.71,16.44a45.46,45.46,0,0,1-4.23,8.88c-.54.93-1.82,2.28-2,3.39-.36,2.28,1.56,5.69,2.23,7.81l3.12,9.81,2.2-1.7c-5.67-2.49-11.31-5-16.9-7.65-1.73-.83-3.25,1.75-1.51,2.59,5.58,2.68,11.22,5.16,16.9,7.65,1.1.49,2.63-.32,2.2-1.69l-3.69-11.61c-.48-1.52-1.43-3.36-1.57-5,0,.43-.59,1,.38-.09A23,23,0,0,0,508,98.12c2.95-5.51,5.07-10.91,3.51-17.18a28.72,28.72,0,0,0-10.71-15.75c-6-4.38-14.4-6.83-21.66-7.59a24.44,24.44,0,0,0-19.65,6.55C449,73.83,440.66,94.94,449.25,108a28.1,28.1,0,0,0,20,12.17c9,.88,16.34-2.44,23.67-7.14,1.62-1,.12-3.64-1.51-2.59Z"/></g><g id="comment-2" data-name="comment"><path class="cls-1" d="M18.56,291c9.14.68,18.29.21,27.44.09,8.06-.11,16.07.75,24.12.63,5.35-.08,12.47-1.45,17.56.65,2.95,1.21,3.16,3.61,3,6.45a61.47,61.47,0,0,0,.4,9.49c.82,7.32,1.75,14.3.84,21.67-.74,6-1.24,12-1.66,18.05-.31,4.35-3.65,4.66-7.8,5.11-7.61.82-15-1.08-22.48-.75-4.93.21-10-.19-12.54,4.59-1.85,3.51-3.4,7.2-5.09,10.79H45l-4.46-7.93c-1-1.68-2-5-3.73-6-2.32-1.33-7.38-1.08-9.94-1.31-5.3-.47-10.73.14-16-.84-8-1.5-7.56-6.62-7.44-13.49.12-7.07-.71-14.11-.58-21.17.12-6.37,1.28-12.89,1.93-19.24.7-6.74,8.28-7.42,13.79-6.83,1.91.21,1.9-2.79,0-3-4.65-.49-9.65,0-13.64,2.7-4.44,3-2.83,9.71-3.63,14.22A105.44,105.44,0,0,0,.2,328.69c.21,4.42.28,8.81.08,13.23-.11,2.47-.17,4.9,1,7.17,4.52,8.91,19.87,5.83,27.84,6.74,1.86.22,4.91.06,6.58.87-1.31-.64-.54-.58-.17.39A20.78,20.78,0,0,0,37,359.73l5.39,9.57a1.51,1.51,0,0,0,2.59,0c1.61-3.41,2.91-7.38,5-10.53,3.71-5.66,14.39-2.91,20-2.51,6.44.47,22.24,2.32,23.27-7.07.67-6.12.86-12.26,1.63-18.39,1-8.19-.09-15.85-.9-24-.45-4.45,1.24-11.12-1.8-14.88-2.75-3.38-8-3.38-12-3.39-8.89,0-17.69-.17-26.58-.4-11.68-.29-23.35.76-35-.11-1.93-.14-1.92,2.86,0,3Z"/><path class="cls-1" d="M52.06,335.88c-5,3.17-10.25,5.6-16.32,4.1-8.63-2.13-12.89-10.11-10.84-18.54,1.41-5.79,4.54-12.36,9.6-15.82,6-4.1,13.76-2.06,19.85.79,4.8,2.25,8.95,7.09,9.32,12.57.21,3-1.17,5.63-2.57,8.19-.5.92-1.6,2.08-1.83,3.1-.81,3.5,2.35,9,3.43,12.43L64.9,341c-3.8-1.67-7.58-3.33-11.32-5.13-1.74-.83-3.26,1.75-1.52,2.59,3.75,1.8,7.53,3.46,11.33,5.13,1.1.48,2.64-.33,2.2-1.7-1.07-3.36-3.19-7.39-3.46-10.88,0,.12-.6.89.49-.47a17.47,17.47,0,0,0,1.67-3c1.21-2.39,2.4-4.94,2.46-7.67.25-12.8-15.29-20.7-26.45-19.54-12.87,1.33-22.24,20-18.12,31.62,2,5.61,7.67,9.8,13.37,11.07,6.61,1.48,12.6-1.1,18-4.57,1.62-1,.12-3.63-1.52-2.59Z"/></g><g id="twitter"><path class="cls-1" d="M149.78,375.25c7.83-2.67,16-4.15,23.83-6.8,7.16-2.42,13.6-6.3,20.22-9.89a1.51,1.51,0,0,0-.76-2.8c-11.16.16-24.55-6.3-27.65-17.78l-1.44,1.9c6.56-.74,14.38-.69,19.34-5.69a1.53,1.53,0,0,0-.66-2.51c-7.15-3-11.27-10-15.74-15.92-4.76-6.32-8.81-13.07-8.23-21.28l-2.26,1.3c5.62,3.22,9.33,8,16.06,8.82a1.51,1.51,0,0,0,1.45-1.9c-5.72-15.45-13.85-32.43-4.73-48.25h-2.59c3.35,6,5.12,12.76,9.39,18.28a44.58,44.58,0,0,0,14.8,12.2,83.59,83.59,0,0,0,41.74,8.69,1.54,1.54,0,0,0,1.5-1.5c.78-9.34.14-19.68,5-28.08,5.64-9.77,18.18-15.49,29.29-13.27,9.37,1.87,15.51,10.61,24.66,12.44,7.56,1.51,15.52-1.92,21-6.94l-2.35-1.82c-3.91,7.84-10.83,14.72-18.24,19.3a1.51,1.51,0,0,0,1.16,2.75c6.61-2,12.25-3.21,17.67-7.72l-2.5-1.45c-3,7.25-6.61,13.05-14,16.45a1.49,1.49,0,0,0-.75,1.29c-.43,17.46-1.37,36.16-9.56,52-7.95,15.34-21.5,27.81-36.83,35.55-15.67,7.92-34.16,11-51.58,11.16-15.57.18-34.38-2-47.46-11.24-1.58-1.11-3.08,1.49-1.51,2.59,11.78,8.31,28.24,11,42.34,11.55a133.45,133.45,0,0,0,50-7.28A89.49,89.49,0,0,0,278.24,353c10.58-12.56,15.95-27.12,18.13-43.29.6-4.46,1-8.95,1.25-13.45.14-2.43.24-4.86.32-7.29.1-3,.5-3,2.89-4.48,6-3.82,9.15-10,11.83-16.41.64-1.53-1.51-2.29-2.51-1.46-5,4.12-10.34,5.15-16.35,6.94l1.16,2.74c7.83-4.85,15.17-12.07,19.31-20.37a1.51,1.51,0,0,0-2.36-1.82,23.39,23.39,0,0,1-15.19,6.4c-6,0-10.54-4-15.31-7.1-8.2-5.3-16.84-7.54-26.43-4.88A30.59,30.59,0,0,0,235.2,265c-3.83,8.44-3.4,18.09-4.15,27.13l1.5-1.5a81,81,0,0,1-40.23-8.28,41.65,41.65,0,0,1-14-11.61c-4.1-5.35-5.82-12-9.06-17.79a1.51,1.51,0,0,0-2.59,0C157,269.57,165,287.15,171,303.5l1.45-1.9c-5.88-.75-9.64-5.6-14.54-8.41a1.52,1.52,0,0,0-2.26,1.29c-.66,9.32,4.17,16.91,9.6,24,4.81,6.32,9,12.85,16.57,16l-.66-2.5c-4.31,4.34-11.53,4.16-17.22,4.81a1.52,1.52,0,0,0-1.45,1.9c3.44,12.76,18.05,20.16,30.54,20l-.75-2.79c-7,3.77-13.66,7.77-21.26,10.15-7.31,2.29-14.83,3.76-22.08,6.24-1.81.62-1,3.52.8,2.89Z"/></g><g id="twitter-2" data-name="twitter"><path class="cls-1" d="M728.05,315.16c-3.92-1.29-8-2.07-11.9-3.38a65.08,65.08,0,0,1-10.39-5l-.76,2.79c7,0,14.42-3.9,16.53-10.89a1.52,1.52,0,0,0-1.45-1.89c-2.81-.31-6.15-.29-8.41-2.29l-.31,2.36c3.91-1.81,6.16-5.14,8.67-8.5,3-4,5.22-7.74,5.07-12.82a1.52,1.52,0,0,0-2.26-1.3c-2.54,1.56-4.53,3.78-7.57,4.32l1.85,1.84c3.31-8.88,7.1-17.74,2.22-26.76a1.51,1.51,0,0,0-2.59,0c-3.2,6-5.09,11.51-11.58,14.91a42,42,0,0,1-20.63,4.26l1.5,1.5c-.71-9.07-1.11-18.49-10.81-22.52a16.42,16.42,0,0,0-12.3-.34c-2.61,1-4.68,2.86-7.1,4.21-4.2,2.35-8.27,1.59-11.9-1.54a1.51,1.51,0,0,0-2.36,1.82,29.52,29.52,0,0,0,10.27,10.82L653,264c-3-.87-5.62-1.38-8.15-3.41a1.51,1.51,0,0,0-2.36,1.82,23.7,23.7,0,0,0,3.23,5.85c1,1.17,3,2,3.77,3.13,1.4,2,.66,6.31.9,8.78.22,2.3.51,4.61.94,6.88a42.52,42.52,0,0,0,16.39,26.28c8.76,6.71,19.49,9.64,30.37,10.5,10,.8,22-.13,30.59-5.91,1.59-1.07.09-3.67-1.51-2.59-13.64,9.19-36.61,7.12-50.69,0a43.19,43.19,0,0,1-18.35-17.39c-4.5-8.28-5-18.08-5.25-27.3a1.5,1.5,0,0,0-.74-1.3c-3.76-1.81-5.48-4.74-7.06-8.45l-2.35,1.82c3,2.38,5.86,3.13,9.47,4.18a1.51,1.51,0,0,0,1.16-2.74,26.59,26.59,0,0,1-9.19-9.74l-2.36,1.81a14.84,14.84,0,0,0,9.7,4c4.22-.06,7.07-3.18,10.6-5A13.9,13.9,0,0,1,680,259.21c3,4.34,2.64,10,3,15.06a1.54,1.54,0,0,0,1.5,1.5,44.59,44.59,0,0,0,22.14-4.67c6.94-3.66,9.17-9.4,12.66-16h-2.59c4.4,8.14.42,16.56-2.53,24.46-.43,1.17.84,2,1.85,1.84,3.41-.61,5.42-2.86,8.29-4.62l-2.26-1.29c.19,6.49-6.31,16-12.25,18.73a1.5,1.5,0,0,0-.3,2.35c3,2.62,6.77,2.76,10.53,3.17l-1.44-1.9c-1.72,5.67-8,8.65-13.64,8.68a1.51,1.51,0,0,0-.75,2.8,77.23,77.23,0,0,0,9.44,4.76c4.4,1.67,9.08,2.49,13.56,4,1.84.61,2.62-2.29.8-2.89Z"/></g><g id="location"><path class="cls-1" d="M387.36,350.86q-8.89-22.26-18.07-44.39c-6.11-14.76-12.1-29.72-15.52-45.37-3.61-16.51-4.68-33.89-1.46-50.55,2.44-12.63,7.05-26.65,15.54-36.61,14.25-16.72,44.56-21.86,62.86-8.89,12.75,9,16.77,25.73,15.88,40.46-1,17-7.32,32.62-13.93,48.06-7.24,16.89-14.93,33.36-22.92,49.9-7.7,15.93-14.76,32.19-24.48,47-1.07,1.62,1.53,3.12,2.59,1.51,9.55-14.59,16.55-30.54,24.09-46.22,7.82-16.25,15.5-32.37,22.57-49,11.45-26.89,25.84-62.76,4-88.48-15.41-18.15-45.93-16.26-64.29-4-9,6-14.53,15.14-18.59,25a111.32,111.32,0,0,0-8,49.22c1.16,19.69,6.75,38.43,13.91,56.7,7.41,18.88,15.4,37.54,22.93,56.37.71,1.77,3.61,1,2.89-.8Z"/><path class="cls-1" d="M395.67,194.94c-17.56,3.42-18.86,26.91-8.94,38.71,5.12,6.09,12.75,7.49,19.82,3.91,9.52-4.83,13.33-15.18,11.28-25.36S407.56,192,396.31,194.94a1.5,1.5,0,0,0,.79,2.9c11.69-3,18.49,10.64,18.3,20.41S405.75,239.78,395,236c-7.62-2.65-11.11-12.1-11.42-19.48-.36-8.83,3.74-16.93,12.93-18.71,1.89-.37,1.09-3.26-.8-2.9Z"/></g><g id="location-2" data-name="location"><path class="cls-1" d="M153,489.14c-5.52-13.78-13.15-27.88-14.4-42.88-1.06-12.77,3-30.74,18.39-32.16,7.57-.7,14.62,2.6,16.94,10.22,2.41,7.93-.71,16.78-3.78,24.08C164.4,462,158.5,476.32,150.5,488.79c-1.05,1.63,1.55,3.13,2.59,1.51,5.22-8.13,9.16-17.19,13.33-25.9,3.79-7.93,7.92-16.45,10-25,3.45-14-1.8-28.73-18.17-28.35-14,.32-20.94,12.69-22.51,25.23-2.37,18.91,7.53,36.67,14.33,53.67.71,1.77,3.61,1,2.89-.8Z"/><path class="cls-1" d="M155.16,426.85c-9.3,1.93-8.65,18.7.88,19.43,12.89,1,11.4-22.32-.63-19.43-1.87.45-1.08,3.34.8,2.89,4-1,6.18,3.91,6.09,7.2s-3.37,7.61-7.1,6.09c-5.28-2.16-5-12.1.76-13.29,1.89-.39,1.09-3.28-.8-2.89Z"/></g><g id="fb_like"><path class="cls-1" d="M488,338.92c4.11-1.25,8.77-1.19,13-1.7s8.48-1,12.72-1.35,10.35-1,13.2,3c2,2.73,2,6.85,2.09,10.06.33,9.57,1,19.21.9,28.78-.12,8.89,1.33,19.42-1.36,28-2.8,8.86-18.19,6.2-25.78,6.28-4.15.05-9.13-.09-12.73-2.53-4.62-3.13-3.83-9.83-4.45-14.81-1.19-9.42-1.94-18.71-1.22-28.21.43-5.61,1.55-11.06,2.52-16.59.52-3,.18-9.53,2-12.05,1.12-1.58-1.48-3.08-2.59-1.52-1.8,2.52-1.25,6-1.65,8.93-.69,5.1-1.93,10.11-2.62,15.22a116.51,116.51,0,0,0,0,29.56c.56,4.65.89,9.39,1.6,14a10.6,10.6,0,0,0,3.25,6.79c5.11,4.63,12.85,4.22,19.22,4.11s16.39,1.58,21.95-2.68c5.27-4.05,4.8-13.77,4.77-19.58,0-10.21.13-20.36-.37-30.56-.34-7.18.78-16-2-22.79-2.65-6.5-9.89-6.87-16-6.41-4.78.36-9.56.92-14.31,1.51-4.27.53-8.8.44-12.94,1.7-1.84.56-1,3.46.8,2.89Z"/><path class="cls-1" d="M532.34,345A80.34,80.34,0,0,0,553,313.8a65.2,65.2,0,0,0,3.65-18,58.5,58.5,0,0,0-.31-10.25,15.9,15.9,0,0,1-.43-3.46c.42-3.63,4.62-5.5,8-4.82,6.08,1.21,10.33,7.11,12.79,12.39,3.47,7.45,3.72,16.07,2,24-.64,3.06-4,8.86,0,11,1.6.86,3.8.34,5.5.18,3.48-.32,7-.38,10.5-.42,6.56-.09,13.77-.89,20.18.78,4.94,1.28,7.48,4.42,9.1,9.1,1.69,4.88,0,7.7-2.65,11.6a1.53,1.53,0,0,0,.23,1.82c2.93,3.42,6.95,6.68,5.5,11.69-1,3.36-3.14,4.73-5.58,6.79-.64.54-1.14.7-1.45,1.56a3.75,3.75,0,0,0,.24,2.33c.73,2.79,1.82,4.64,1.23,7.69-1.15,5.89-5.68,8-10.59,10.13a1.5,1.5,0,0,0-.3,2.35c2.64,2.7,4.78,5.11,2.81,9.19a11.33,11.33,0,0,1-2.6,3.32c-2.39,2.14-5.66,3.1-8.75,3.73-6.58,1.35-13.59,1.64-20.27,2.3-8.69.86-17.74,2-26.48,1.54-8.42-.41-16.68-4.19-24.39-7.36-1.78-.73-2.56,2.17-.8,2.89,10.05,4.13,19.54,7.8,30.53,7.41,11.18-.39,22.25-1.75,33.37-2.76,6.29-.57,13.43-1.06,18.48-5.28,6.23-5.2,5.55-11.66.22-17.1l-.31,2.36c4.5-2,8.59-3.85,10.84-8.48a14.18,14.18,0,0,0,1.51-7.11,15.35,15.35,0,0,0-.74-3.42c-.38-.89-.72-1.79-1-2.7a10.14,10.14,0,0,0,1.4-.8c3.09-3.49,6.4-6.36,6-11.6-.33-4.5-4-7.59-6.73-10.79l.24,1.82c3.89-5.66,5-9.31,2.2-15.93-2.22-5.33-6.07-8.33-11.72-9.47-6.67-1.35-13.86-.7-20.63-.59-3.42.06-7.23.81-10.62.53-2.43-.19-2.78-.95-2.56-3.31s1.28-5,1.64-7.53c1.72-12.05-1.29-27.18-12.18-34.37-4.1-2.71-10-3.87-14.29-.81-5.27,3.77-2,11.39-2.07,16.76-.08,19.24-9.8,37.08-23.48,50.14-1.4,1.33.73,3.45,2.12,2.12Z"/></g><g id="fb_like-2" data-name="fb_like"><path class="cls-1" d="M166.83,203.49a46.89,46.89,0,0,1,8.68-1c1.42,0,4.41-.12,5.33,1.31.51.78.34,2.86.37,3.86.09,3.09.33,6.18.32,9.28,0,2.67.74,7.19-.32,9.66-1.35,3.15-6.12,2.86-9.34,2.74-2.93-.12-4-1.1-5.05-3.93a26,26,0,0,1-.65-5.52,43.76,43.76,0,0,1,.49-10.72c.31-1.84.25-4.83,1.07-6.52s-1.76-3.25-2.59-1.51c-1.52,3.14-1.63,7.83-1.94,11.32a47.08,47.08,0,0,0,.16,9.27c.23,2.16.06,5.09,1,7.11,1.21,2.61,4.13,3.36,6.79,3.5,3.22.18,9.2.86,11.68-1.77s1.61-7.77,1.65-10.94c.05-4.93.44-10.46-.47-15.34-1.43-7.67-12.53-4.9-18-3.65-1.88.43-1.08,3.32.8,2.89Z"/><path class="cls-1" d="M184.05,205.54c4.75-4.68,8.31-10.5,9.24-17.19.11-.8-.26-6,.06-6.25l4.24-.41a10.88,10.88,0,0,1,2.22,3.84c1.36,4.09-1,7.6-.29,11.42a1.5,1.5,0,0,0,1,1.05c3.34,1.06,22.18-2.53,15.71,6.76a1.51,1.51,0,0,0,.23,1.82,4.44,4.44,0,0,1-.46,6.09,1.51,1.51,0,0,0-.39,1.46c.53,1.88-1.27,5.44-3,6.2a1.52,1.52,0,0,0-.31,2.36c1.33,1.5-.89,3.94-2.15,4.44a14.18,14.18,0,0,1-3.57.51c-2.35.26-4.7.51-7.06.7A33.51,33.51,0,0,1,183.11,226c-1.79-.73-2.57,2.17-.8,2.89,4.74,1.91,8.51,3,13.63,2.75,4.26-.22,8.57-.58,12.81-1.17,5.33-.74,10.23-4.77,5.74-9.85l-.31,2.35c2-.89,3.69-1.79,4.59-3.9.67-1.59.06-4.31.3-4.87.78-1.82,2.5-2.6,2.4-4.9-.1-2-1.61-3.4-2.84-4.79l.24,1.82c3.23-4.64.62-10.19-4.93-11.11a32,32,0,0,0-5.54-.15c-.93,0-5.36.64-5.77.18s.75-4.4.77-5.24a15.92,15.92,0,0,0-.92-5.8c-1.36-3.72-7.19-10.28-11.35-5.68-2,2.22-.46,6.91-.86,9.66-.88,6-4.09,11.09-8.34,15.28-1.38,1.35.74,3.47,2.12,2.12Z"/></g><g id="fb_like-3" data-name="fb_like"><path class="cls-1" d="M594.29,60.2a71.59,71.59,0,0,1,11.8-1.39c2.65-.13,5-.72,6.28,2.74a14.31,14.31,0,0,1,.27,4.14c.2,7.35.94,14.91.19,22.24-.58,5.73-6.82,5.22-11.26,5.09-4-.11-5.78.24-7.52-4.87-.57-1.67-.52-4-.7-5.71a55.64,55.64,0,0,1,0-11.54c.33-2.94.53-8.82,1.88-11.62.83-1.73-1.75-3.25-2.59-1.51-1.05,2.18-.93,4.73-1.32,7.11a78.08,78.08,0,0,0-1.18,8.89,64.37,64.37,0,0,0,.48,10.57c.27,2.33.12,5.53,1.14,7.74,1.83,4,7.09,4,10.75,3.92s9.38.88,11.91-2.43c2.68-3.5,1.56-10,1.61-14,.06-5.76.26-11.89-.54-17.6-.51-3.6-2.18-5.71-5.9-6.17-4.94-.62-11.24.42-16,1.52-1.88.43-1.09,3.33.79,2.89Z"/><path class="cls-1" d="M615.55,62.84c6.22-6.06,10.79-13.88,11.58-22.66.13-1.46-.76-5.45-.14-6.43a4,4,0,0,1,5.93-.57,12.86,12.86,0,0,1,2.05,3,17.38,17.38,0,0,1,1,11.46c-.39,1.79-.94,2.88-.6,4.68a1.47,1.47,0,0,0,1,1c3.35,1.07,7.92,0,11.44,0,2.59,0,6.14-.36,8.15,1.59,2.27,2.2,1.74,5.11.17,7.37a1.51,1.51,0,0,0,.23,1.81c1.18,1.34,2.86,2.67,2.39,4.74-.25,1.12-2.11,2.5-3,3.36a1.54,1.54,0,0,0-.39,1.46,6.55,6.55,0,0,1-3.89,8.13,1.5,1.5,0,0,0-.3,2.35c6.36,6.86-13.69,7.46-16.17,7.66-3.3.26-6.82.74-10.12.4-3.59-.37-7.16-2-10.47-3.39-1.79-.73-2.56,2.17-.8,2.89,5.25,2.13,9.85,3.72,15.57,3.47s11.53-.73,17.21-1.51c6.19-.86,12.42-5.69,6.9-11.64l-.31,2.36c2.42-1.07,4.44-2.12,5.54-4.64,1-2.17,0-4.74.51-6.25.79-2.11,2.89-2.74,2.84-5.57,0-2.48-1.9-4.2-3.42-5.94l.23,1.82c4-5.73.61-12.39-6.25-13.33a44.79,44.79,0,0,0-6.45-.12c-1.33,0-6.6.87-7.36,0-.41-.48.72-5.64.75-6.65a19.39,19.39,0,0,0-1.25-7.54c-1.65-4.17-10-12.75-13.88-5.69-.91,1.63-.33,3.21-.19,5a27.42,27.42,0,0,1-.8,8.84,35.19,35.19,0,0,1-10,16.37c-1.38,1.35.74,3.47,2.12,2.12Z"/></g><g id="dm"><path class="cls-1" d="M48.47,153.3c15.49,0,31-.21,46.46-.34,9.19-.09,18.27-1.57,27.44-1.8,4.23-.1,8.47,0,12.7,0l-1.29-2.26c-5.09,9.23-10.39,18.35-15.82,27.39-4.24,7-8.78,13.86-13.28,20.75-5.27,8.08-9.49,16.8-15,24.71l2.74.35c-3.65-12.42-6.21-24.15-6.8-36.59-.1-2.2.34-4.72-1.12-6.4-1.19-1.37-3.21-2.33-4.63-3.45-2.59-2-5-4.29-7.64-6.29-7.86-6-15.42-11.57-22.35-18.67-1.35-1.38-3.47.74-2.12,2.12a151.36,151.36,0,0,0,21.69,18.2c4,2.84,8,8.09,12.59,10,1.2.49.61,1.52.35-.41a6,6,0,0,1,.06,1.4c-.24,1.84.2,4,.28,5.88.58,12,3.41,23.5,6.8,35a1.52,1.52,0,0,0,2.74.36c5.34-7.65,9.42-16.08,14.49-23.91,4.64-7.17,9.39-14.23,13.79-21.55,5.43-9,10.73-18.15,15.82-27.39a1.51,1.51,0,0,0-1.3-2.25c-4.23,0-8.47-.14-12.7,0-9.17.23-18.25,1.71-27.44,1.8-15.49.13-31,.35-46.46.34a1.5,1.5,0,0,0,0,3Z"/><path class="cls-1" d="M84.94,181.61c2.43-3.06,7.21-5.06,10.63-6.78,5.3-2.67,10.55-5.46,15.68-8.44,4.51-2.62,8.61-6,13.18-8.47,4.13-2.19,8.11-4.09,11.7-7.16,1.47-1.26-.66-3.37-2.12-2.12-4,3.44-8.81,5.09-13.19,7.92-4.77,3.09-9.35,6.3-14.33,9.09s-9.94,5.24-14.93,7.83c-3,1.54-6.65,3.37-8.74,6-1.18,1.5.93,3.63,2.12,2.12Z"/></g><g id="dm-2" data-name="dm"><path class="cls-1" d="M461.47,217.65c15.49,0,31-.21,46.46-.35,9.19-.08,18.27-1.56,27.44-1.79,4.23-.11,8.47,0,12.7,0l-1.29-2.25c-5.09,9.23-10.39,18.35-15.82,27.38-4.24,7.06-8.78,13.87-13.28,20.76-5.27,8.08-9.49,16.8-15,24.7l2.74.36c-3.65-12.43-6.21-24.16-6.8-36.59-.1-2.2.34-4.72-1.12-6.4-1.19-1.37-3.21-2.34-4.63-3.46-2.59-2-5-4.28-7.64-6.28-7.86-6-15.42-11.57-22.35-18.67-1.35-1.39-3.47.73-2.12,2.12a152,152,0,0,0,21.69,18.2c4,2.83,7.95,8.09,12.59,10,1.2.49.61,1.52.35-.41a6,6,0,0,1,.06,1.4c-.24,1.84.2,4,.28,5.88.58,12,3.41,23.49,6.8,35a1.52,1.52,0,0,0,2.74.36c5.34-7.65,9.42-16.08,14.49-23.92,4.64-7.16,9.39-14.22,13.79-21.54,5.43-9,10.73-18.16,15.82-27.39a1.52,1.52,0,0,0-1.3-2.26c-4.23,0-8.47-.14-12.7,0-9.17.23-18.25,1.71-27.44,1.79-15.49.14-31,.36-46.46.35a1.5,1.5,0,0,0,0,3Z"/><path class="cls-1" d="M497.94,246c2.43-3.06,7.21-5.06,10.63-6.78,5.3-2.67,10.55-5.46,15.68-8.45,4.51-2.62,8.61-6,13.18-8.46,4.13-2.2,8.11-4.1,11.7-7.17,1.47-1.25-.66-3.37-2.12-2.12-4,3.45-8.81,5.1-13.19,7.93-4.77,3.09-9.35,6.29-14.33,9.09s-9.94,5.24-14.93,7.83c-2.95,1.53-6.65,3.37-8.74,6-1.18,1.49.93,3.63,2.12,2.12Z"/></g><g id="dm-3" data-name="dm"><path class="cls-1" d="M372.8,442.34c15.49,0,31-.21,46.46-.35,9.19-.08,18.27-1.56,27.44-1.79,4.23-.11,8.47,0,12.7,0L458.11,438c-5.09,9.23-10.39,18.35-15.82,27.38-4.24,7.06-8.78,13.87-13.28,20.76-5.27,8.08-9.49,16.8-15,24.7l2.74.36c-3.65-12.43-6.21-24.16-6.8-36.59-.1-2.2.34-4.72-1.12-6.4-1.19-1.37-3.21-2.33-4.63-3.45-2.59-2-5-4.29-7.64-6.29-7.86-6-15.42-11.57-22.35-18.67-1.35-1.39-3.47.74-2.12,2.12a151.36,151.36,0,0,0,21.69,18.2c4,2.84,8,8.09,12.59,10,1.2.49.61,1.52.35-.41a6,6,0,0,1,.06,1.4c-.24,1.84.2,4,.28,5.88.58,12,3.41,23.5,6.8,35a1.52,1.52,0,0,0,2.74.36c5.34-7.65,9.42-16.08,14.49-23.92,4.64-7.16,9.39-14.22,13.79-21.54,5.43-9,10.73-18.16,15.82-27.39a1.52,1.52,0,0,0-1.3-2.26c-4.23,0-8.47-.14-12.7,0-9.17.23-18.25,1.71-27.44,1.79-15.49.14-31,.36-46.46.35a1.5,1.5,0,0,0,0,3Z"/><path class="cls-1" d="M409.27,470.65c2.43-3.06,7.21-5.06,10.63-6.78,5.3-2.67,10.55-5.46,15.68-8.45,4.51-2.61,8.6-6,13.18-8.46,4.13-2.2,8.11-4.09,11.7-7.16,1.47-1.26-.66-3.37-2.12-2.13-4,3.45-8.81,5.1-13.19,7.93-4.77,3.09-9.35,6.29-14.33,9.09s-9.94,5.24-14.93,7.83c-2.95,1.53-6.65,3.37-8.74,6-1.18,1.49.93,3.63,2.12,2.12Z"/></g></g></g></svg>
