<svg xmlns="http://www.w3.org/2000/svg" viewBox="0 0 206.67 20.52"><defs><style>.cls-1{fill:none;}.cls-2{fill:#005afb;}</style></defs><title>whats_out_there</title><g id="Layer_2" data-name="Layer 2"><g id="whats_out_there"><g id="part_1"><path class="cls-1" d="M3.67,4c.2.76.55,2,1.06,3.77L7,15.62,10.89,4,3.58,3.36a1.21,1.21,0,0,0,0,.25C3.63,3.76,3.65,3.87,3.67,4Z"/><path class="cls-1" d="M111.64,18.29a1.91,1.91,0,0,0,1.49.7,3.35,3.35,0,0,0,1.27-.22,3.65,3.65,0,0,0,.94-.52,4.77,4.77,0,0,0,.61-.57,2.67,2.67,0,0,0,.41-.57V12.33L111,11.91V16.2A3,3,0,0,0,111.64,18.29Z"/><path class="cls-1" d="M19.09,10.28c.45-1.61.82-3,1.12-4.13.17-.67.28-1.12.34-1.44l-7-.55,3.89,11.75Q18.42,12.68,19.09,10.28Z"/><path class="cls-1" d="M90.86,14.27a8.34,8.34,0,0,0,1.06,2.67,5.29,5.29,0,0,0,1.76,1.79,5.26,5.26,0,0,0,5,0,5.12,5.12,0,0,0,1.82-1.82,8.56,8.56,0,0,0,1-2.67,14.93,14.93,0,0,0,.32-3l-11.37-.91c0,.21,0,.41,0,.62A15.13,15.13,0,0,0,90.86,14.27Z"/><path class="cls-1" d="M44.92,14.42a3.52,3.52,0,0,0-1,1,2.71,2.71,0,0,0-.37,1.44,2,2,0,0,0,.56,1.59,2.12,2.12,0,0,0,1.44.5,3,3,0,0,0,1.62-.45,4.62,4.62,0,0,0,1.18-1.06L48.4,13c-.74.22-1.38.43-1.94.64A7,7,0,0,0,44.92,14.42Z"/><path class="cls-2" d="M20.21,6.15c-.3,1.15-.67,2.52-1.12,4.13s-1,3.48-1.62,5.63L13.58,4.16,10.89,4,7,15.62,4.73,7.73C4.22,6,3.87,4.72,3.67,4c0-.09,0-.2-.06-.35a1.21,1.21,0,0,1,0-.25L0,3.08a2.47,2.47,0,0,1,.6.55,2.39,2.39,0,0,1,.34.72c.31,1.1.93,3.29,1.84,6.54s1.81,6.4,2.66,9.43H6.59L11.42,6.14l4.65,14.18h1.19q1.41-4.53,2.63-8.53l2.13-7-1.47-.12C20.49,5,20.38,5.48,20.21,6.15Z"/><path class="cls-2" d="M27,17.9a1.43,1.43,0,0,1-.18.76.94.94,0,0,1-.54.41,3.27,3.27,0,0,1-.54.1l-.62.06v.85h6.26v-.85a5.86,5.86,0,0,1-.66-.09,2.93,2.93,0,0,1-.59-.2,1,1,0,0,1-.54-.44,1.34,1.34,0,0,1-.18-.73V10.42c.09-.15.21-.33.37-.55a3.21,3.21,0,0,1,.67-.65,5.05,5.05,0,0,1,1-.52,3.61,3.61,0,0,1,1.25-.22,2,2,0,0,1,1.57.74,3.13,3.13,0,0,1,.64,2.11V17.9a1.53,1.53,0,0,1-.17.76.94.94,0,0,1-.54.41,2.34,2.34,0,0,1-.6.1l-.66.06v.85h6.29v-.85a3.93,3.93,0,0,1-.63-.09c-.16,0-.34-.1-.54-.17a1.08,1.08,0,0,1-.55-.44,1.52,1.52,0,0,1-.16-.73V11.14A4.74,4.74,0,0,0,36.46,8a3.29,3.29,0,0,0-2.64-1.08,5,5,0,0,0-1.5.21,4.78,4.78,0,0,0-1.16.52,6.61,6.61,0,0,0-.93.69l-.78.76H29.4V5.42L27,5.23Z"/><path class="cls-2" d="M51.44,18.88a1.37,1.37,0,0,1-.53-.51,1.55,1.55,0,0,1-.18-.8c0-1.14,0-2.18,0-3.14s0-2,0-3.29A5.55,5.55,0,0,0,50.46,9a3,3,0,0,0-1-1.3A3.46,3.46,0,0,0,48,7.08a10.61,10.61,0,0,0-1.9-.15,5.57,5.57,0,0,0-1.63.25,6.16,6.16,0,0,0-1.41.62,4.18,4.18,0,0,0-1.1,1,1.83,1.83,0,0,0-.42,1.14,1.76,1.76,0,0,0,.31,1,1,1,0,0,0,.95.46A1.63,1.63,0,0,0,43.93,11a1.11,1.11,0,0,0,.4-.83,4.1,4.1,0,0,0-.12-.94,3.56,3.56,0,0,1-.12-.76,1.94,1.94,0,0,1,.72-.42,2.88,2.88,0,0,1,1.11-.2,2.18,2.18,0,0,1,1.34.35,2.52,2.52,0,0,1,.73.84,2.65,2.65,0,0,1,.31.91c0,.32.07.53.07.65v1.28a17.82,17.82,0,0,1-2.41.93c-1.19.4-2,.67-2.36.82a7,7,0,0,0-1,.49,3,3,0,0,0-.86.69,3.1,3.1,0,0,0-.62,1.05,3.91,3.91,0,0,0-.21,1.33,3,3,0,0,0,.93,2.31,3.31,3.31,0,0,0,2.36.88,5,5,0,0,0,2.33-.5,6.1,6.1,0,0,0,1.81-1.42h.08a2.2,2.2,0,0,0,.77,1.38,2.58,2.58,0,0,0,1.62.47,3.36,3.36,0,0,0,1-.14c.31-.09.67-.2,1.07-.35V19h-.86A1.47,1.47,0,0,1,51.44,18.88Zm-3.12-1.4a4.62,4.62,0,0,1-1.18,1.06,3,3,0,0,1-1.62.45,2.12,2.12,0,0,1-1.44-.5,2,2,0,0,1-.56-1.59,2.71,2.71,0,0,1,.37-1.44,3.52,3.52,0,0,1,1-1,7,7,0,0,1,1.54-.78c.56-.21,1.2-.42,1.94-.64Z"/><path class="cls-2" d="M53.43,7.34V8.59h2.31v8.66a3.59,3.59,0,0,0,.65,2.29,2.77,2.77,0,0,0,2.27.82,6.11,6.11,0,0,0,1.84-.25c.5-.15,1-.35,1.59-.58v-1a4.27,4.27,0,0,1-.88.15c-.42,0-.74.05-1,.05a2.64,2.64,0,0,1-1.11-.19,1.35,1.35,0,0,1-.63-.57,2.66,2.66,0,0,1-.28-.94c0-.36,0-.81,0-1.34V8.59h3.64V8L53.6,7.34Z"/><path class="cls-2" d="M69.74,10.68a3.2,3.2,0,0,0,.36,1.55A3.51,3.51,0,0,0,71,13.35a5.61,5.61,0,0,0,1.28.75c.5.21,1,.37,1.36.5s1,.31,1.38.47a5,5,0,0,1,1.06.54,2.12,2.12,0,0,1,.62.69,1.89,1.89,0,0,1,.22.94,2,2,0,0,1-.68,1.63,3,3,0,0,1-1.92.56A3.22,3.22,0,0,1,72.77,19a4.47,4.47,0,0,1-1.22-1,5.79,5.79,0,0,1-.82-1.22,5.38,5.38,0,0,1-.44-1.19H69.4l.13,4.45h1l.26-.84A6.09,6.09,0,0,0,72.1,20a5.18,5.18,0,0,0,2.06.4,5.13,5.13,0,0,0,3.44-1.13,3.62,3.62,0,0,0,1.33-2.9,3.56,3.56,0,0,0-.28-1.5,3.23,3.23,0,0,0-.82-1.07A5.19,5.19,0,0,0,76.58,13,13,13,0,0,0,75,12.38c-.58-.19-1.06-.36-1.46-.52a5.27,5.27,0,0,1-1-.48,1.89,1.89,0,0,1-.6-.66,2.19,2.19,0,0,1-.2-1,1.57,1.57,0,0,1,.33-.93l-1.7-.14A3.43,3.43,0,0,0,69.74,10.68Z"/><path class="cls-2" d="M101.6,14.23a8.56,8.56,0,0,1-1,2.67,5.12,5.12,0,0,1-1.82,1.82,5.26,5.26,0,0,1-5,0,5.29,5.29,0,0,1-1.76-1.79,8.34,8.34,0,0,1-1.06-2.67,15.13,15.13,0,0,1-.34-3.37c0-.21,0-.41,0-.62L87.45,10c0,.3-.07.56-.07.87a10.8,10.8,0,0,0,.67,3.84,9,9,0,0,0,1.83,3.06,8.16,8.16,0,0,0,2.8,2,9,9,0,0,0,6.95.05,8.53,8.53,0,0,0,2.8-1.92,8.8,8.8,0,0,0,1.94-3,10.53,10.53,0,0,0,.66-3.45l-3.11-.24A14.93,14.93,0,0,1,101.6,14.23Z"/><path class="cls-2" d="M116.36,17.11a2.67,2.67,0,0,1-.41.57,4.77,4.77,0,0,1-.61.57,3.65,3.65,0,0,1-.94.52,3.35,3.35,0,0,1-1.27.22,1.91,1.91,0,0,1-1.49-.7A3,3,0,0,1,111,16.2V11.91l-2.44-.2v4.37a5.06,5.06,0,0,0,.88,3.22,3.14,3.14,0,0,0,2.59,1.11,5.13,5.13,0,0,0,1.54-.18,6.06,6.06,0,0,0,1.13-.54,5.55,5.55,0,0,0,.89-.66c.26-.25.49-.48.7-.7h.08V20l.19.18,4.18-.28V19l-.72,0a1.41,1.41,0,0,1-1.06-.72,1.5,1.5,0,0,1-.18-.76V12.53l-2.44-.2Z"/><path class="cls-2" d="M123.87,17.25a3.53,3.53,0,0,0,.66,2.29,2.75,2.75,0,0,0,2.26.82,6.06,6.06,0,0,0,1.84-.25c.5-.15,1-.35,1.6-.58v-1a4.26,4.26,0,0,1-.89.15c-.42,0-.74.05-1,.05a2.69,2.69,0,0,1-1.12-.19,1.33,1.33,0,0,1-.62-.57,2.47,2.47,0,0,1-.28-.94,12.51,12.51,0,0,1-.06-1.34V13.12l-2.44-.19Z"/><path class="cls-2" d="M143.81,17.53a1.62,1.62,0,0,1-.2.85,1.21,1.21,0,0,1-.63.48,4,4,0,0,1-1,.2l-1.11.1v.92h8.69v-.92a6.83,6.83,0,0,1-1.16-.17,7.57,7.57,0,0,1-1-.24,1.21,1.21,0,0,1-.63-.56,1.55,1.55,0,0,1-.19-.78V14.74l-2.76-.22Z"/><path class="cls-2" d="M163.94,17.9a1.43,1.43,0,0,1-.17.76.94.94,0,0,1-.54.41,2.19,2.19,0,0,1-.6.1l-.66.06v.85h6.29v-.85a3.93,3.93,0,0,1-.63-.09c-.16,0-.34-.1-.54-.17a1.1,1.1,0,0,1-.54-.44,1.41,1.41,0,0,1-.17-.73V16.31l-2.44-.19Z"/><path class="cls-2" d="M156,17.9a1.43,1.43,0,0,1-.18.76.94.94,0,0,1-.54.41,3.08,3.08,0,0,1-.54.1l-.62.06v.85h6.27v-.85a6.05,6.05,0,0,1-.67-.09,3.16,3.16,0,0,1-.59-.2,1.14,1.14,0,0,1-.54-.44,1.34,1.34,0,0,1-.17-.73V15.68L156,15.49Z"/><path class="cls-2" d="M178.65,18.46a3.6,3.6,0,0,1-2,.55,4.13,4.13,0,0,1-1.95-.44,3.69,3.69,0,0,1-1.32-1.19c-.11-.16-.19-.35-.29-.53l-2.76-.22a6.43,6.43,0,0,0,1,1.77,5.29,5.29,0,0,0,1.91,1.47,6.25,6.25,0,0,0,2.71.55,5.38,5.38,0,0,0,3.1-.91,6.46,6.46,0,0,0,1.88-2l-1.18-.1A4,4,0,0,1,178.65,18.46Z"/><path class="cls-2" d="M184.53,17.9a1.4,1.4,0,0,1-.17.76.94.94,0,0,1-.54.41,2.16,2.16,0,0,1-.55.1l-.62.06v.85h6.75v-.85l-.89-.09a3.71,3.71,0,0,1-.84-.2,1.05,1.05,0,0,1-.55-.43A1.32,1.32,0,0,1,187,18l-2.46-.2Z"/><path class="cls-2" d="M195.24,18.61a5.28,5.28,0,0,0,1.7,1.26,6.25,6.25,0,0,0,2.71.55,5.41,5.41,0,0,0,3.1-.91c.12-.08.21-.19.32-.28Z"/><path class="cls-2" d="M77.38,11h.89L78.19,9.3l-1.7-.14A4.23,4.23,0,0,1,77.38,11Z"/></g><g id="part_2"><path class="cls-1" d="M75.77,7.91a2.45,2.45,0,0,0-1.67.54,2.33,2.33,0,0,0-.28.36l4.44.35A3.47,3.47,0,0,0,78,8.78,3,3,0,0,0,75.77,7.91Z"/><path class="cls-1" d="M165.07,9.22a2,2,0,0,0-1.56-.74,3.71,3.71,0,0,0-1.26.22,4.73,4.73,0,0,0-1,.52,3.29,3.29,0,0,0-.68.65,5,5,0,0,0-.36.55v5.26l5.54.44V11.33A3.13,3.13,0,0,0,165.07,9.22Z"/><path class="cls-1" d="M103.71,10.9a15.67,15.67,0,0,0-.37-3.48,8.72,8.72,0,0,0-1.09-2.7A5.16,5.16,0,0,0,100.46,3,4.88,4.88,0,0,0,98,2.39a4.79,4.79,0,0,0-2.65.71A5.54,5.54,0,0,0,93.57,5a9.13,9.13,0,0,0-1,2.67,14.57,14.57,0,0,0-.29,2.6l11.37.91C103.69,11.09,103.71,11,103.71,10.9Z"/><path class="cls-1" d="M180,10.64a4.72,4.72,0,0,0-.39-1.38,2.58,2.58,0,0,0-.82-1,2.22,2.22,0,0,0-1.34-.38,2.78,2.78,0,0,0-2.26,1.14,5.24,5.24,0,0,0-1,3.14h5.92A9.62,9.62,0,0,0,180,10.64Z"/><path class="cls-1" d="M174.71,18.57a4.13,4.13,0,0,0,1.95.44,3.6,3.6,0,0,0,2-.55,4,4,0,0,0,1.07-1.09l-6.62-.52c.1.18.18.37.29.53A3.69,3.69,0,0,0,174.71,18.57Z"/><path class="cls-1" d="M203.68,10.64a4.72,4.72,0,0,0-.39-1.38,2.68,2.68,0,0,0-.82-1,2.24,2.24,0,0,0-1.34-.38,2.76,2.76,0,0,0-2.26,1.14,5.24,5.24,0,0,0-1,3.14h5.91A10.83,10.83,0,0,0,203.68,10.64Z"/><path class="cls-2" d="M24.29,3.76A2.75,2.75,0,0,1,25,3.1a4.15,4.15,0,0,1,.8-.36,2.92,2.92,0,0,1,.75-.15V1.67H19.89v.92A5.62,5.62,0,0,1,21.84,3c.41.2.61.44.61.74a4.91,4.91,0,0,1-.08.76,2.09,2.09,0,0,1-.05.21l1.47.12,0,0A3.3,3.3,0,0,1,24.29,3.76Z"/><path class="cls-2" d="M5.34,3.27c0-.23.23-.38.69-.48a11.4,11.4,0,0,1,1.68-.2V1.67H.21v.92A5.41,5.41,0,0,1,1,2.73a2.4,2.4,0,0,1,.76.33l0,0,3.58.28S5.34,3.29,5.34,3.27Z"/><polygon class="cls-2" points="14.61 1.93 13.34 1.93 12.66 3.95 15.35 4.16 14.61 1.93"/><path class="cls-2" d="M31,0,26.26.29v.83c.24,0,.56,0,.95.09a1.9,1.9,0,0,1,.82.24,1.51,1.51,0,0,1,.53.67,2.13,2.13,0,0,1,.2.88V5.23l2.41.19V.2Z"/><polygon class="cls-2" points="59.92 7.34 59.92 3.36 57.56 3.36 57.56 7.34 55.37 7.34 63.59 8 63.59 7.34 59.92 7.34"/><path class="cls-2" d="M67.16,5.2a3.82,3.82,0,0,1-.74.63c-.33.22-.67.44-1,.64l.44.77a9.74,9.74,0,0,0,1-.62,8,8,0,0,0,1.14-1,5.18,5.18,0,0,0,.89-1.23,3.39,3.39,0,0,0,.37-1.56A3.42,3.42,0,0,0,68.76,1,1.76,1.76,0,0,0,67.17.23a1.4,1.4,0,0,0-1.12.48,1.48,1.48,0,0,0-.42,1,1.5,1.5,0,0,0,.45,1.16,1.87,1.87,0,0,0,1.28.41H68a3.12,3.12,0,0,1-.26,1.11A3.8,3.8,0,0,1,67.16,5.2Z"/><path class="cls-2" d="M78.91,6.92l-.29.67a5.49,5.49,0,0,0-1.28-.47,6.42,6.42,0,0,0-1.54-.19A4.39,4.39,0,0,0,72.67,8a3.33,3.33,0,0,0-.55.65l1.7.14a2.33,2.33,0,0,1,.28-.36,2.45,2.45,0,0,1,1.67-.54,3,3,0,0,1,2.2.87,3.47,3.47,0,0,1,.29.38L80,9.3l-.11-2.38Z"/><path class="cls-2" d="M106.16,6.92a9.13,9.13,0,0,0-1.91-3.07,8.3,8.3,0,0,0-2.8-1.93,8.85,8.85,0,0,0-6.83,0,8.5,8.5,0,0,0-2.84,1.94,9.45,9.45,0,0,0-1.93,3A10.61,10.61,0,0,0,89.22,10l3.1.25a14.57,14.57,0,0,1,.29-2.6,9.13,9.13,0,0,1,1-2.67A5.54,5.54,0,0,1,95.35,3.1,4.79,4.79,0,0,1,98,2.39a4.88,4.88,0,0,1,2.46.61,5.16,5.16,0,0,1,1.79,1.72,8.72,8.72,0,0,1,1.09,2.7,15.67,15.67,0,0,1,.37,3.48c0,.1,0,.19,0,.29l3.11.24c0-.18,0-.35,0-.53A11,11,0,0,0,106.16,6.92Z"/><path class="cls-2" d="M112.79,7.32l-.2-.18-4.27.31V8.3a5.67,5.67,0,0,1,.75.1,1.55,1.55,0,0,1,1.1.78,1.55,1.55,0,0,1,.18.78v1.75l2.44.2Z"/><path class="cls-2" d="M120.37,7.14l-4.65.31V8.3l1,.06a1.42,1.42,0,0,1,.69.19,1.69,1.69,0,0,1,.51.56,1.58,1.58,0,0,1,.18.76v2.46l2.44.2V7.32Z"/><polygon class="cls-2" points="131.73 8.59 131.73 7.34 128.06 7.34 128.06 3.36 125.69 3.36 125.69 7.34 123.33 7.34 123.33 8.59 125.64 8.59 125.64 12.93 128.08 13.13 128.08 8.59 131.73 8.59"/><path class="cls-2" d="M149.1,2.69c.35,0,.72,0,1.13,0s.75,0,1,.08a1.67,1.67,0,0,1,.9.51,6.48,6.48,0,0,1,.85,1,9.44,9.44,0,0,1,.68,1.21,6.68,6.68,0,0,1,.42,1.11h.9v-5H138.94v5h.91a7,7,0,0,1,.41-1.08A8.76,8.76,0,0,1,141,4.35a6.83,6.83,0,0,1,.85-1,1.59,1.59,0,0,1,.89-.51c.36,0,.74-.07,1.14-.08s.73,0,1,0h.75V14.52l2.77.22v-12Z"/><path class="cls-2" d="M167.23,8a3.27,3.27,0,0,0-2.64-1.08,5,5,0,0,0-1.5.21,5,5,0,0,0-1.16.52,5.93,5.93,0,0,0-.92.69c-.24.22-.5.48-.78.76h0V.2L160,0l-4.74.29v.83c.24,0,.56,0,1,.09a2,2,0,0,1,.83.24,1.57,1.57,0,0,1,.52.67,2,2,0,0,1,.2.88V15.49l2.42.19V10.42a5,5,0,0,1,.36-.55,3.29,3.29,0,0,1,.68-.65,4.73,4.73,0,0,1,1-.52,3.71,3.71,0,0,1,1.26-.22,2,2,0,0,1,1.56.74,3.13,3.13,0,0,1,.65,2.11v4.79l2.44.19V11.14A4.69,4.69,0,0,0,167.23,8Z"/><path class="cls-2" d="M182,16.52a9,9,0,0,1-.55.85l1.18.1a3.51,3.51,0,0,0,.27-.4Z"/><path class="cls-2" d="M174.4,15.57a10.06,10.06,0,0,1-.24-2.29h8.47v-.85a7.33,7.33,0,0,0-.29-2.14,4.65,4.65,0,0,0-.89-1.71,4.17,4.17,0,0,0-1.62-1.21,5.85,5.85,0,0,0-2.4-.44,5.37,5.37,0,0,0-2.46.56A5.56,5.56,0,0,0,173.14,9,6.83,6.83,0,0,0,172,11.14a7.56,7.56,0,0,0-.4,2.44,9.11,9.11,0,0,0,.37,2.64c0,.14.11.27.16.41l2.77.22A5.74,5.74,0,0,1,174.4,15.57Zm.74-6.52a2.78,2.78,0,0,1,2.26-1.14,2.22,2.22,0,0,1,1.34.38,2.58,2.58,0,0,1,.82,1,4.72,4.72,0,0,1,.39,1.38,9.62,9.62,0,0,1,.13,1.55h-5.92A5.24,5.24,0,0,1,175.14,9.05Z"/><path class="cls-2" d="M188.72,10.33a4,4,0,0,1,1.39-1.4,2.86,2.86,0,0,1,1.42-.5c0,.16-.05.31-.08.47a2.78,2.78,0,0,0,0,.52,1.16,1.16,0,0,0,.38.83,1.54,1.54,0,0,0,1.11.38,1.1,1.1,0,0,0,1-.52,2.11,2.11,0,0,0,.33-1.17,2,2,0,0,0-.52-1.43A1.76,1.76,0,0,0,192.38,7a3.83,3.83,0,0,0-1.81.54,6.07,6.07,0,0,0-1.79,1.6h-.06V7.32l-.18-.18-4.26.28v.86a5.39,5.39,0,0,1,.73.09,1.9,1.9,0,0,1,.58.23,1.6,1.6,0,0,1,.53.62,1.89,1.89,0,0,1,.18.79v7.74l2.46.2a1,1,0,0,1,0-.18Z"/><path class="cls-2" d="M206.67,17.07l-.91-.55a5.36,5.36,0,0,1-1.61,1.94,3.6,3.6,0,0,1-2,.55,4.1,4.1,0,0,1-1.95-.44,3.69,3.69,0,0,1-1.32-1.19,5.37,5.37,0,0,1-.76-1.81,10.06,10.06,0,0,1-.24-2.29h8.47v-.85a7.69,7.69,0,0,0-.29-2.14,4.8,4.8,0,0,0-.89-1.71,4.32,4.32,0,0,0-1.62-1.21,5.85,5.85,0,0,0-2.4-.44,5.37,5.37,0,0,0-2.46.56A5.7,5.7,0,0,0,196.86,9a7,7,0,0,0-1.16,2.16,7.83,7.83,0,0,0-.39,2.44,9.11,9.11,0,0,0,.37,2.64,6.26,6.26,0,0,0,1.12,2.18c.06.07.15.13.21.21l7.83.62A6.43,6.43,0,0,0,206.67,17.07Zm-7.8-8a2.76,2.76,0,0,1,2.26-1.14,2.24,2.24,0,0,1,1.34.38,2.68,2.68,0,0,1,.82,1,4.72,4.72,0,0,1,.39,1.38,10.83,10.83,0,0,1,.12,1.55h-5.91A5.24,5.24,0,0,1,198.87,9.05Z"/></g></g></g></svg>
